<svg width="40" height="40" viewBox="0 0 40 40" fill="none" xmlns="http://www.w3.org/2000/svg">
<g clip-path="url(#clip0_209_857)">
<path d="M39.8364 22.5395C41.2362 11.5815 33.4976 1.56332 22.5595 0.163575C11.6215 -1.23617 1.56332 6.50243 0.163575 17.4405C-1.23617 28.3785 6.50243 38.4167 17.4405 39.8364C28.3985 41.2362 38.4167 33.4976 39.8364 22.5395Z" fill="#FF6C37"/>
<path d="M27.2187 12.8413L18.7802 21.2797L16.4006 18.9002C24.6991 10.6017 25.519 11.3215 27.2187 12.8413Z" fill="white"/>
<path d="M18.7802 21.4797C18.7202 21.4797 18.6802 21.4597 18.6402 21.4197L16.2407 19.0401C16.1607 18.9602 16.1607 18.8402 16.2407 18.7602C24.6791 10.3217 25.559 11.1216 27.3387 12.7213C27.3786 12.7613 27.3986 12.8013 27.3986 12.8613C27.3986 12.9212 27.3786 12.9612 27.3387 13.0012L18.9002 21.4197C18.8802 21.4597 18.8202 21.4797 18.7802 21.4797ZM16.6806 18.9002L18.7802 20.9998L26.9187 12.8613C25.439 11.5415 24.4392 11.1416 16.6806 18.9002Z" fill="#FF6C37"/>
<path d="M21.1997 23.6993L18.9001 21.3997L27.3386 12.9612C29.5982 15.2408 26.2188 18.9402 21.1997 23.6993Z" fill="white"/>
<path d="M21.1998 23.8993C21.1398 23.8993 21.0998 23.8793 21.0598 23.8393L18.7602 21.5397C18.7202 21.4997 18.7202 21.4597 18.7202 21.3997C18.7202 21.3397 18.7402 21.2998 18.7802 21.2598L27.2187 12.8213C27.2987 12.7413 27.4186 12.7413 27.4986 12.8213C28.0185 13.3012 28.2985 13.9811 28.2785 14.6809C28.2385 16.9005 25.719 19.72 21.3597 23.8393C21.2998 23.8793 21.2398 23.8993 21.1998 23.8993ZM19.1801 21.3997C20.4599 22.6995 20.9998 23.2194 21.1998 23.4194C24.5592 20.2199 27.8186 16.9405 27.8386 14.6809C27.8586 14.161 27.6586 13.6411 27.3187 13.2412L19.1801 21.3997Z" fill="#FF6C37"/>
<path d="M16.4406 18.9602L18.1403 20.6598C18.1803 20.6998 18.1803 20.7398 18.1403 20.7798C18.1203 20.7998 18.1203 20.7998 18.1003 20.7998L14.5809 21.5597C14.401 21.5797 14.241 21.4597 14.201 21.2797C14.181 21.1798 14.221 21.0798 14.281 21.0198L16.3206 18.9802C16.3606 18.9402 16.4206 18.9202 16.4406 18.9602Z" fill="white"/>
<path d="M14.5209 21.7597C14.2209 21.7597 14.001 21.5197 14.001 21.2198C14.001 21.0798 14.061 20.9398 14.1609 20.8398L16.2006 18.8002C16.3206 18.7002 16.4805 18.7002 16.6005 18.8002L18.3002 20.4999C18.4202 20.5999 18.4202 20.7798 18.3002 20.8998C18.2602 20.9398 18.2202 20.9598 18.1602 20.9798L14.6409 21.7397C14.6009 21.7397 14.5609 21.7597 14.5209 21.7597ZM16.3805 19.1801L14.4209 21.1398C14.3809 21.1798 14.3609 21.2398 14.4009 21.2998C14.4209 21.3597 14.4809 21.3797 14.5409 21.3597L17.8403 20.6399L16.3805 19.1801Z" fill="#FF6C37"/>
<path d="M31.6778 8.16209C30.398 6.92232 28.3384 6.96231 27.0986 8.26208C25.8588 9.56184 25.8988 11.6015 27.1986 12.8412C28.2584 13.8611 29.8581 14.041 31.1179 13.2812L28.8383 11.0016L31.6778 8.16209Z" fill="white"/>
<path d="M29.4384 13.9411C27.5387 13.9411 25.999 12.4014 25.999 10.5017C25.999 8.60204 27.5387 7.06232 29.4384 7.06232C30.3182 7.06232 31.1781 7.40226 31.818 8.02214C31.858 8.06214 31.878 8.10213 31.878 8.16212C31.878 8.22211 31.858 8.2621 31.818 8.30209L29.1185 11.0016L31.2381 13.1212C31.3181 13.2012 31.3181 13.3212 31.2381 13.4012C31.2181 13.4212 31.2181 13.4212 31.1981 13.4412C30.6782 13.7611 30.0583 13.9411 29.4384 13.9411ZM29.4384 7.48224C27.7587 7.48224 26.399 8.842 26.4189 10.5217C26.4189 12.2014 27.7787 13.5611 29.4584 13.5411C29.9183 13.5411 30.3782 13.4412 30.7982 13.2212L28.6985 11.1416C28.6585 11.1016 28.6385 11.0616 28.6385 11.0016C28.6385 10.9416 28.6585 10.9016 28.6985 10.8616L31.3781 8.18212C30.8382 7.7222 30.1583 7.48224 29.4384 7.48224Z" fill="#FF6C37"/>
<path d="M31.7379 8.22212L31.6979 8.18213L28.8384 11.0016L31.098 13.2612C31.3179 13.1212 31.5379 12.9613 31.7179 12.7813C32.9976 11.5215 32.9976 9.48189 31.7379 8.22212Z" fill="white"/>
<path d="M31.118 13.4812C31.058 13.4812 31.018 13.4612 30.978 13.4212L28.6984 11.1416C28.6584 11.1016 28.6384 11.0616 28.6384 11.0016C28.6384 10.9416 28.6584 10.9016 28.6984 10.8616L31.5379 8.02215C31.6179 7.94216 31.7379 7.94216 31.8179 8.02215L31.8778 8.06214C33.2176 9.4019 33.2176 11.5615 31.8978 12.9213C31.6979 13.1212 31.4779 13.3012 31.238 13.4412C31.178 13.4612 31.138 13.4812 31.118 13.4812ZM29.1183 11.0016L31.138 13.0212C31.2979 12.9213 31.4579 12.7813 31.5779 12.6613C32.7177 11.5215 32.7777 9.66185 31.6779 8.46207L29.1183 11.0016Z" fill="#FF6C37"/>
<path d="M27.5586 13.2012C27.0787 12.7213 26.2988 12.7213 25.8189 13.2012L18.2803 20.7398L19.54 21.9996L27.5186 15.0009C28.0385 14.5609 28.0785 13.7811 27.6386 13.2612C27.5986 13.2412 27.5786 13.2212 27.5586 13.2012Z" fill="white"/>
<path d="M19.52 22.1996C19.4601 22.1996 19.4201 22.1796 19.3801 22.1396L18.1203 20.8798C18.0403 20.7998 18.0403 20.6798 18.1203 20.5999L25.6589 13.0612C26.2188 12.5013 27.1187 12.5013 27.6786 13.0612C28.2385 13.6211 28.2385 14.521 27.6786 15.0809C27.6586 15.1009 27.6386 15.1208 27.6186 15.1408L19.64 22.1396C19.62 22.1796 19.58 22.1996 19.52 22.1996ZM18.5602 20.7398L19.54 21.7197L27.3786 14.8409C27.8185 14.481 27.8585 13.8211 27.4986 13.3812C27.1387 12.9412 26.4788 12.9012 26.0389 13.2612C26.0189 13.2812 25.9989 13.3012 25.9589 13.3212L18.5602 20.7398Z" fill="#FF6C37"/>
<path d="M12.5013 29.3183C12.4213 29.3583 12.3813 29.4383 12.4013 29.5183L12.7413 30.958C12.8213 31.158 12.7013 31.3979 12.4813 31.4579C12.3214 31.5179 12.1414 31.4579 12.0414 31.3379L9.8418 29.1583L17.0205 21.9796L19.5001 22.0196L21.1798 23.6993C20.7798 24.0392 18.3603 26.3788 12.5013 29.3183Z" fill="white"/>
<path d="M12.3414 31.6579C12.1814 31.6579 12.0215 31.5979 11.9215 31.4779L9.74187 29.2983C9.70188 29.2583 9.68188 29.2183 9.68188 29.1583C9.68188 29.0983 9.70188 29.0584 9.74187 29.0184L16.9206 21.8397C16.9606 21.7997 17.0206 21.7797 17.0606 21.7797L19.5401 21.8197C19.6001 21.8197 19.6401 21.8397 19.6801 21.8796L21.3598 23.5593C21.3998 23.5993 21.4198 23.6593 21.4198 23.7193C21.4198 23.7793 21.3998 23.8193 21.3398 23.8593L21.1998 23.9793C19.0802 25.8389 16.2007 27.6986 12.6214 29.4783L12.9613 30.898C13.0213 31.158 12.9013 31.4379 12.6613 31.5779C12.5414 31.6379 12.4414 31.6579 12.3414 31.6579ZM10.1418 29.1583L12.2014 31.198C12.2614 31.2979 12.3814 31.3379 12.4814 31.278C12.5814 31.218 12.6214 31.098 12.5614 30.998L12.2214 29.5583C12.1814 29.3783 12.2614 29.2183 12.4214 29.1383C15.9608 27.3587 18.8202 25.519 20.9199 23.6993L19.4401 22.2196L17.1405 22.1796L10.1418 29.1583Z" fill="#FF6C37"/>
<path d="M8.14222 30.878L9.86191 29.1583L12.4214 31.7179L8.34218 31.4379C8.16221 31.4179 8.04223 31.2579 8.06223 31.078C8.06223 30.998 8.08223 30.918 8.14222 30.878Z" fill="white"/>
<path d="M12.4214 31.8978L8.32211 31.6179C8.02216 31.5979 7.8222 31.3379 7.8422 31.038C7.86219 30.918 7.90218 30.798 8.00217 30.718L9.72186 28.9983C9.80184 28.9184 9.92182 28.9184 10.0018 28.9983L12.5613 31.5579C12.6213 31.6179 12.6413 31.6979 12.6013 31.7778C12.5613 31.8578 12.5014 31.8978 12.4214 31.8978ZM9.86183 29.4383L8.28212 31.018C8.22213 31.058 8.22213 31.158 8.28212 31.1979C8.30211 31.2179 8.32211 31.2379 8.3621 31.2379L11.9015 31.4779L9.86183 29.4383Z" fill="#FF6C37"/>
<path d="M16.3206 22.8995C16.2006 22.8995 16.1206 22.7995 16.1206 22.6995C16.1206 22.6395 16.1406 22.5995 16.1806 22.5595L18.1202 20.6199C18.2002 20.5399 18.3202 20.5399 18.4002 20.6199L19.66 21.8796C19.72 21.9396 19.74 21.9996 19.72 22.0796C19.7 22.1396 19.64 22.1996 19.56 22.2196L16.3606 22.8995C16.3406 22.8995 16.3206 22.8995 16.3206 22.8995ZM18.2602 21.0398L16.9405 22.3596L19.1001 21.8996L18.2602 21.0398Z" fill="#FF6C37"/>
<path d="M19.5001 22.0196L17.3005 22.4995C17.1405 22.5395 16.9806 22.4395 16.9406 22.2796C16.9206 22.1796 16.9406 22.0796 17.0205 21.9996L18.2403 20.7798L19.5001 22.0196Z" fill="white"/>
<path d="M17.2604 22.6995C16.9805 22.6995 16.7605 22.4795 16.7605 22.1996C16.7605 22.0596 16.8205 21.9396 16.9005 21.8396L18.1203 20.6199C18.2002 20.5399 18.3202 20.5399 18.4002 20.6199L19.66 21.8796C19.72 21.9396 19.74 21.9996 19.72 22.0796C19.7 22.1396 19.64 22.1996 19.56 22.2196L17.3604 22.6995C17.3204 22.6995 17.2804 22.6995 17.2604 22.6995ZM18.2602 21.0398L17.1804 22.1196C17.1404 22.1596 17.1404 22.1996 17.1604 22.2396C17.1804 22.2796 17.2204 22.2996 17.2804 22.2996L19.1201 21.8996L18.2602 21.0398Z" fill="#FF6C37"/>
<path d="M31.7579 10.1418C31.7179 10.0218 31.5779 9.96179 31.4579 10.0018C31.3379 10.0418 31.2779 10.1817 31.3179 10.3017C31.3179 10.3217 31.3379 10.3417 31.3379 10.3617C31.4579 10.6017 31.4179 10.9016 31.2579 11.1216C31.178 11.2216 31.198 11.3615 31.2779 11.4415C31.3779 11.5215 31.5179 11.5015 31.5979 11.4015C31.8978 11.0216 31.9578 10.5417 31.7579 10.1418Z" fill="#FF6C37"/>
</g>
<defs>
<clipPath id="clip0_209_857">
<rect width="40" height="40" fill="white"/>
</clipPath>
</defs>
</svg>
