<svg width="44" height="44" viewBox="0 0 44 44" fill="none" xmlns="http://www.w3.org/2000/svg">
<mask id="mask0_69_6075" style="mask-type:luminance" maskUnits="userSpaceOnUse" x="0" y="0" width="44" height="44">
<path d="M44 0H0V44H44V0Z" fill="white"/>
</mask>
<g mask="url(#mask0_69_6075)">
<path d="M36.63 0H7.37C5.41535 0 3.54077 0.77648 2.15862 2.15862C0.77648 3.54077 0 5.41535 0 7.37V36.63C0 38.5847 0.77648 40.4592 2.15862 41.8414C3.54077 43.2235 5.41535 44 7.37 44H36.63C38.5847 44 40.4592 43.2235 41.8414 41.8414C43.2235 40.4592 44 38.5847 44 36.63V7.37C44 5.41535 43.2235 3.54077 41.8414 2.15862C40.4592 0.77648 38.5847 0 36.63 0ZM39.82 35.75C39.82 36.8294 39.3912 37.8646 38.6279 38.6279C37.8646 39.3912 36.8294 39.82 35.75 39.82H8.25C7.17057 39.82 6.13535 39.3912 5.37207 38.6279C4.6088 37.8646 4.18 36.8294 4.18 35.75V17.82H39.82V35.75ZM39.82 13.64H4.18V8.25C4.18 7.17057 4.6088 6.13535 5.37207 5.37207C6.13535 4.6088 7.17057 4.18 8.25 4.18H35.75C36.8294 4.18 37.8646 4.6088 38.6279 5.37207C39.3912 6.13535 39.82 7.17057 39.82 8.25V13.64Z" fill="#4951F5"/>
<path d="M11.407 6.93018H7.744C7.59819 6.93018 7.48 7.04837 7.48 7.19418V10.8572C7.48 11.0029 7.59819 11.1212 7.744 11.1212H11.407C11.5527 11.1212 11.671 11.0029 11.671 10.8572V7.19418C11.671 7.04837 11.5527 6.93018 11.407 6.93018Z" fill="#4951F5"/>
<path d="M17.787 6.93018H14.124C13.9782 6.93018 13.86 7.04837 13.86 7.19418V10.8572C13.86 11.0029 13.9782 11.1212 14.124 11.1212H17.787C17.9328 11.1212 18.051 11.0029 18.051 10.8572V7.19418C18.051 7.04837 17.9328 6.93018 17.787 6.93018Z" fill="#4951F5"/>
<path d="M24.167 6.93018H20.504C20.3582 6.93018 20.24 7.04837 20.24 7.19418V10.8572C20.24 11.0029 20.3582 11.1212 20.504 11.1212H24.167C24.3127 11.1212 24.431 11.0029 24.431 10.8572V7.19418C24.431 7.04837 24.3127 6.93018 24.167 6.93018Z" fill="#4951F5"/>
<path d="M34.21 32.4502H22.363C22.1625 32.4502 22 32.6127 22 32.8132V36.2782C22 36.4787 22.1625 36.6412 22.363 36.6412H34.21C34.4105 36.6412 34.573 36.4787 34.573 36.2782V32.8132C34.573 32.6127 34.4105 32.4502 34.21 32.4502Z" fill="#4951F5"/>
<path d="M11.99 36.41C12.0201 36.4553 12.061 36.4926 12.1089 36.5183C12.1569 36.5441 12.2106 36.5576 12.265 36.5576C12.3195 36.5576 12.373 36.5441 12.4211 36.5183C12.4691 36.4926 12.5099 36.4553 12.54 36.41L19.25 28.93C19.3211 28.8845 19.3721 28.8137 19.3926 28.7319C19.413 28.65 19.4014 28.5635 19.36 28.49L12.87 20.9C12.8246 20.8289 12.7537 20.7779 12.6719 20.7574C12.5901 20.737 12.5035 20.7486 12.43 20.79L10.23 22.66C10.1774 22.6797 10.1307 22.7124 10.0943 22.7551C10.0579 22.7979 10.033 22.8493 10.0219 22.9044C10.0109 22.9594 10.0142 23.0164 10.0313 23.0698C10.0485 23.1234 10.079 23.1716 10.12 23.21L14.52 28.38C14.5741 28.4405 14.604 28.5188 14.604 28.6C14.604 28.6812 14.5741 28.7595 14.52 28.82L9.78999 33.99C9.74862 34.0635 9.73697 34.15 9.75742 34.2319C9.77788 34.3137 9.8289 34.3845 9.89999 34.43L11.99 36.41Z" fill="#4951F5"/>
</g>
</svg>
