<svg width="47" height="31" viewBox="0 0 47 31" fill="none" xmlns="http://www.w3.org/2000/svg">
<g clip-path="url(#clip0_69_5849)">
<path d="M7.8892 30.9531C7.07362 30.7669 5.89341 29.7878 4.5847 28.2116C1.92811 25.0122 0.485623 21.4235 0.0608323 16.9572C-0.0209257 16.0976 -0.0201047 13.9227 0.0622824 13.1268C0.450718 9.37435 1.8239 6.14279 4.34352 3.05158C5.1151 2.10497 6.39386 0.864874 7.00631 0.469301C7.8729 -0.0904042 8.41838 -0.135661 8.94183 0.308715C9.15532 0.489954 9.20442 0.574268 9.23176 0.806583C9.28325 1.244 9.04877 1.5858 7.95839 2.66273C6.43464 4.1677 5.73167 5.00546 4.95302 6.2444C3.18482 9.05784 2.42817 12.0166 2.53664 15.6933C2.59442 17.6521 2.81362 19.096 3.297 20.7019C3.73238 22.1483 4.25493 23.3145 5.03747 24.5862C5.82319 25.8631 6.48345 26.6709 7.80375 27.9709C8.96206 29.1114 9.24977 29.5075 9.24977 29.9618C9.24977 30.4136 8.91622 30.8223 8.44535 30.9474C8.18524 31.0165 8.16753 31.0167 7.8892 30.9531ZM38.4651 30.9702C38.2186 30.9202 37.7778 30.4668 37.7281 30.2122C37.648 29.802 37.9032 29.4366 39.0931 28.2581C39.6786 27.6782 40.399 26.916 40.694 26.5642C42.8526 23.9905 44.0518 21.1267 44.3718 17.7818C44.4704 16.7506 44.4194 14.0938 44.2819 13.0975C43.9937 11.0107 43.462 9.30345 42.5409 7.50827C41.6596 5.79049 40.7478 4.57214 39.2078 3.05464C38.1737 2.0356 37.8688 1.66349 37.7649 1.29336C37.663 0.930549 37.7362 0.661128 38.0208 0.351985C38.4111 -0.0720577 38.857 -0.109882 39.5548 0.221852C40.3995 0.623397 41.4941 1.67201 42.7647 3.29684C45.3211 6.56585 46.6395 10.1621 46.9564 14.7304C47.2256 18.6118 46.241 22.5407 44.1835 25.7945C42.7633 28.0405 40.5965 30.342 39.4427 30.83C39.1412 30.9576 38.7085 31.0196 38.4651 30.9702ZM12.9483 28.6034C12.2577 28.4032 11.8573 27.7432 12.0238 27.0793C12.1268 26.6688 12.5578 26.2468 12.977 26.1458C13.3994 26.0441 35.2478 26.0441 35.6702 26.1458C36.1024 26.2499 36.527 26.6733 36.6214 27.0943C36.7452 27.6462 36.4858 28.211 35.9819 28.487L35.7155 28.6329L24.418 28.6431C18.2044 28.6488 13.043 28.6309 12.9483 28.6034ZM21.5543 23.5249C19.4562 22.7952 17.7106 21.373 16.817 19.6655C16.3202 18.7162 16.0318 17.5665 16.0321 16.5359C16.0324 15.1427 16.6021 13.815 18.3379 11.1629C19.6307 9.18754 19.851 8.82757 20.2312 8.06889C20.737 7.05928 20.9038 6.45963 20.9144 5.61247C20.9245 4.80287 20.7977 4.32254 20.4077 3.69426C20.1309 3.24828 19.5081 2.57696 19.2552 2.4519C18.843 2.24808 18.7576 1.97122 19.0503 1.78782C19.5132 1.49778 20.778 1.68172 21.9401 2.20809C23.2549 2.80367 24.224 3.65886 24.855 4.78048C25.3414 5.64495 25.5375 6.3074 25.8674 8.20039C26.2335 10.301 26.5964 10.9675 27.3302 10.8869C27.7191 10.8441 27.9617 10.703 28.1255 10.4244C28.3863 9.98065 28.2745 9.3732 27.747 8.36798C27.316 7.54668 27.3426 7.29851 27.8482 7.42635C28.1101 7.49257 28.9597 8.15621 29.548 8.754C31.0199 10.2496 31.7524 11.6085 32.1047 13.4966C32.2894 14.4869 32.3048 16.1291 32.1373 16.9873C31.9261 18.07 31.4979 19.0919 30.8894 19.9659C30.2109 20.9404 28.7955 22.1734 27.7664 22.6863C27.3017 22.9179 27.1404 22.9319 26.9126 22.7606C26.6293 22.5475 26.6891 22.3993 27.3154 21.7631C28.2565 20.8073 28.7369 20.1278 29.0156 19.3585C29.4457 18.1716 29.2316 16.5169 28.5116 15.4622C28.2134 15.0253 27.7762 14.6401 27.5788 14.6401C27.4707 14.6401 27.4886 14.7765 27.689 15.4786C27.7593 15.7246 27.8167 16.0253 27.8167 16.1468C27.8167 16.7892 26.8684 17.255 26.033 17.0228C25.3541 16.834 25.0549 16.2453 25.1448 15.2754C25.1726 14.9756 25.1975 14.4309 25.2 14.065C25.2046 13.4197 25.1981 13.387 24.9845 12.9842C24.5681 12.199 23.6051 11.3902 23.0866 11.3902C22.8629 11.3902 22.8446 11.4031 22.8446 11.5602C22.8446 11.6657 22.9066 11.7856 23.008 11.8762C23.5452 12.3556 23.6463 13.338 23.2477 14.2053C23.0014 14.7414 22.7236 15.045 21.775 15.815C20.5268 16.8281 20.1245 17.3106 19.8751 18.0937C19.7597 18.456 19.7478 18.6035 19.7803 19.2673C19.8348 20.3819 20.0724 21.1207 20.6276 21.9025C21.0539 22.5028 21.553 22.8836 22.2309 23.1258C22.5569 23.2423 22.5928 23.2724 22.5928 23.4292C22.5928 23.611 22.4482 23.7305 22.235 23.7249C22.1722 23.7232 21.8659 23.6333 21.5543 23.5249Z" fill="black"/>
</g>
<defs>
<clipPath id="clip0_69_5849">
<rect width="47" height="31" fill="white"/>
</clipPath>
</defs>
</svg>
