<svg width="44" height="44" viewBox="0 0 44 44" fill="none" xmlns="http://www.w3.org/2000/svg">
<path d="M8.30235 31.9609L6.909 31.1553L22.4487 4.24072L23.8421 5.04634L8.30235 31.9609Z" fill="#AC0475"/>
<path d="M6.58862 29.0046H37.6706V30.6158H6.58862V29.0046Z" fill="#AC0475"/>
<path d="M22.7502 38.8872L7.20416 29.9115L8.00978 28.5181L23.5558 37.4939L22.7502 38.8872ZM36.2557 15.4915L20.7083 6.51701L21.5139 5.12366L37.06 14.0994L36.2557 15.4915Z" fill="#AC0475"/>
<path d="M8.01356 15.4865L7.20795 14.0932L22.7679 5.11487L23.5736 6.50822L8.01356 15.4865Z" fill="#AC0475"/>
<path d="M35.9694 31.961L20.4272 5.04389L21.8205 4.23828L37.3628 31.1554L35.9694 31.961ZM7.82111 13.024H9.43233V30.9755H7.82111V13.024ZM34.837 13.024H36.4482V30.9755H34.837V13.024Z" fill="#AC0475"/>
<path d="M22.4764 38.2045L21.7734 36.986L35.2953 29.1794L35.9983 30.3979L22.4764 38.2045Z" fill="#AC0475"/>
<path d="M38.5825 31.4998C38.1324 32.2772 37.3925 32.8444 36.5249 33.0773C35.6574 33.3103 34.7329 33.1898 33.954 32.7425C33.1767 32.2923 32.6094 31.5525 32.3765 30.6849C32.1436 29.8174 32.264 28.8929 32.7114 28.114C33.1615 27.3366 33.9014 26.7694 34.7689 26.5365C35.6364 26.3036 36.5609 26.424 37.3399 26.8714C38.9701 27.8125 39.5236 29.8797 38.5812 31.4998M11.5476 15.8866C11.0974 16.664 10.3576 17.2312 9.49003 17.4642C8.62249 17.6971 7.698 17.5766 6.91908 17.1293C6.14139 16.6791 5.57389 15.939 5.34096 15.0712C5.10804 14.2034 5.22868 13.2786 5.67646 12.4995C6.12658 11.7222 6.86644 11.1549 7.73398 10.922C8.60152 10.6891 9.52601 10.8095 10.3049 11.2569C11.0823 11.707 11.6495 12.4469 11.8824 13.3144C12.1154 14.182 11.9949 15.1065 11.5476 15.8854M5.68659 31.4998C5.23922 30.7209 5.11879 29.7964 5.3517 28.9289C5.58462 28.0614 6.15187 27.3215 6.92921 26.8714C7.70814 26.424 8.63262 26.3036 9.50016 26.5365C10.3677 26.7694 11.1076 27.3366 11.5577 28.114C12.0051 28.8929 12.1255 29.8174 11.8926 30.6849C11.6597 31.5525 11.0924 32.2923 10.3151 32.7425C8.68484 33.6735 6.61634 33.1225 5.68659 31.5011M32.7215 15.8879C32.2741 15.109 32.1537 14.1845 32.3866 13.317C32.6195 12.4494 33.1868 11.7096 33.9641 11.2594C34.7431 10.8121 35.6675 10.6916 36.5351 10.9246C37.4026 11.1575 38.1425 11.7247 38.5926 12.5021C39.04 13.281 39.1604 14.2055 38.9275 15.073C38.6946 15.9405 38.1273 16.6804 37.35 17.1305C36.5711 17.5779 35.6466 17.6983 34.779 17.4654C33.9115 17.2325 33.1716 16.6653 32.7215 15.8879M22.1345 41C21.4646 41 20.8097 40.8013 20.2526 40.4291C19.6956 40.0568 19.2614 39.5278 19.0051 38.9088C18.7488 38.2898 18.6818 37.6087 18.8126 36.9516C18.9434 36.2945 19.2661 35.691 19.7399 35.2174C20.2137 34.7437 20.8174 34.4212 21.4745 34.2907C22.1316 34.1601 22.8127 34.2274 23.4316 34.4839C24.0505 34.7405 24.5794 35.1748 24.9514 35.732C25.3235 36.2892 25.5219 36.9442 25.5217 37.6141C25.5193 38.5116 25.1617 39.3717 24.5269 40.0062C23.8922 40.6407 23.032 40.998 22.1345 41M22.1345 9.77361C21.6895 9.77428 21.2488 9.68712 20.8375 9.51714C20.4263 9.34716 20.0526 9.09769 19.738 8.78303C19.4233 8.46838 19.1739 8.09472 19.0039 7.68347C18.8339 7.27223 18.7467 6.83148 18.7474 6.38649C18.7474 5.48834 19.1042 4.62697 19.7393 3.99188C20.3744 3.35679 21.2357 3 22.1339 3C23.0321 3 23.8934 3.35679 24.5285 3.99188C25.1636 4.62697 25.5204 5.48834 25.5204 6.38649C25.5209 6.83127 25.4337 7.27178 25.2637 7.68279C25.0937 8.09381 24.8443 8.46726 24.5298 8.78177C24.2153 9.09627 23.8419 9.34565 23.4308 9.51563C23.0198 9.68561 22.5793 9.77285 22.1345 9.77235" fill="#AC0475"/>
</svg>
