<svg width="40" height="40" viewBox="0 0 40 40" fill="none" xmlns="http://www.w3.org/2000/svg">
<path d="M2.87022 15.7439L19.9944 37.9999L1.22506 24.0691C0.710105 23.6823 0.490132 23.0089 0.687349 22.4028L2.86769 15.7404L2.87022 15.7439Z" fill="#FCA326"/>
<path d="M12.8616 15.7405L20.001 37.9974L19.9943 37.9999L2.87012 15.7439L2.87517 15.7405H12.8616Z" fill="#FC6D26"/>
<path d="M27.1414 15.7405L20.002 37.9999L20.0012 37.9974L12.8618 15.7405H12.8694H27.1339H27.1414Z" fill="#E24329"/>
<path d="M37.1335 15.7439L20.0017 37.9999L27.1411 15.7405H37.1284L37.1335 15.7439Z" fill="#FC6D26"/>
<path d="M39.3163 22.4029C39.5051 23.0089 39.2936 23.6824 38.771 24.0692L20.0017 38L37.1335 15.744L37.136 15.7406L39.3163 22.4029Z" fill="#FCA326"/>
<path d="M32.8506 2.50505L37.1286 15.7405H27.1414H27.1338L31.4195 2.50505C31.6613 1.83165 32.6154 1.83165 32.8506 2.50505Z" fill="#E24329"/>
<path d="M12.8693 15.7405H12.8617H2.87524L7.15334 2.50505C7.39522 1.83165 8.34928 1.83165 8.58442 2.50505C8.58442 2.50505 12.8617 15.7405 12.8693 15.7405Z" fill="#E24329"/>
</svg>
