<svg width="48" height="48" viewBox="0 0 48 48" fill="none" xmlns="http://www.w3.org/2000/svg">
<path d="M8.88887 5.92603L14.5341 15.7038H3.24365L8.88887 5.92603Z" fill="#129F84"/>
<path d="M14.5497 15.7192L8.90446 25.497L3.25928 15.7192H14.5497Z" fill="#26B898"/>
<path d="M20.1793 25.497H8.88892L14.5341 15.7192L20.1793 25.497Z" fill="#884C9D"/>
<path d="M20.1793 25.4971L14.5341 35.275L8.88892 25.4971H20.1793Z" fill="#AC7AB4"/>
<path d="M44.4755 5.64526L38.8305 15.423L33.1852 5.64526H44.4755Z" fill="#0C1C3C"/>
<path d="M38.8459 15.4231L33.2009 25.2009L27.5555 15.4231H38.8459Z" fill="#2880BA"/>
<path d="M33.2163 25.2007L27.5711 34.9786L21.9259 25.2007H33.2163Z" fill="#C03C2B"/>
<path d="M27.5867 34.9788L21.9415 44.7565L16.2963 34.9788H27.5867Z" fill="#F09B21"/>
<path d="M33.1852 5.62964L38.8305 15.4074H27.54L33.1852 5.62964Z" fill="#3E4965"/>
<path d="M27.5556 15.4075L33.2009 25.1852H21.9103L27.5556 15.4075Z" fill="#3B96D2"/>
<path d="M21.9259 25.1853L27.5711 34.9631H16.2807L21.9259 25.1853Z" fill="#E54C3B"/>
<path d="M16.2963 34.9629L21.9415 44.7407H10.6511L16.2963 34.9629Z" fill="#EFC31A"/>
</svg>
