<svg width="40" height="40" viewBox="0 0 40 40" fill="none" xmlns="http://www.w3.org/2000/svg">
<g clip-path="url(#clip0_209_722)">
<rect width="40" height="40" rx="20" fill="#CD6799"/>
<path d="M20.1603 22.5252C19.7104 22.7307 19.2175 22.9984 18.2308 23.5365C17.8567 23.7457 17.4658 23.9548 17.102 24.1518C17.0767 24.1267 17.0505 24.0951 17.0253 24.0691C15.0734 21.9964 11.4633 20.5324 11.6167 17.7486C11.6738 16.7346 12.0245 14.0725 18.5498 10.8398C23.92 8.20935 28.1932 8.93806 28.9311 10.5544C29.9917 12.8586 26.6407 17.1463 21.0946 17.7682C20.4808 17.8919 19.8468 17.8769 19.2396 17.7244C18.6324 17.5719 18.0674 17.2857 17.5864 16.887C17.2928 16.57 17.2488 16.5515 17.1403 16.6147C16.9617 16.7076 17.0767 16.9948 17.1403 17.1593C17.3519 17.54 17.6381 17.8747 17.982 18.1435C18.3259 18.4124 18.7206 18.6099 19.1427 18.7246C21.3252 19.1934 23.6008 18.9694 25.6484 18.0842C29.0097 16.7913 31.634 13.197 30.8652 10.1836C30.0936 7.12836 24.9909 6.1208 20.1631 7.82547C17.1397 8.83805 14.3463 10.432 11.9422 12.5166C9.2823 14.989 8.86144 17.138 9.03353 18.0377C9.65267 21.2323 14.0839 23.3116 15.8609 24.8517C15.7674 24.9029 15.6888 24.9447 15.6187 24.9847C14.732 25.4224 11.352 27.1782 10.5094 29.0353C9.55259 31.1397 10.6627 32.6482 11.396 32.8509C12.501 33.1139 13.661 33.0275 14.7142 32.6035C15.7673 32.1796 16.661 31.4394 17.2703 30.4863C17.7878 29.6959 18.1055 28.793 18.1966 27.8544C18.2876 26.9159 18.1492 25.9693 17.7931 25.0953C18.0032 24.9287 18.2272 24.7804 18.4628 24.6519C18.9154 24.3861 19.3466 24.124 19.7291 23.9213C21.0388 23.3116 22.4681 22.9977 23.9144 23.0021C26.9502 23.3571 27.5497 25.2393 27.4347 26.0322C27.3809 26.3135 27.2671 26.5801 27.1009 26.814C26.9347 27.0479 26.7201 27.2437 26.4714 27.3883C26.261 27.5212 26.1908 27.5658 26.2095 27.6606C26.2348 27.8001 26.3367 27.7936 26.5153 27.7685C26.9715 27.6252 27.3733 27.3482 27.6681 26.9737C27.9629 26.5993 28.1368 26.1451 28.167 25.6706C28.2605 23.8116 26.477 21.7724 23.3196 21.791C22.3741 21.7926 21.4382 21.9779 20.5643 22.3366C20.424 22.3942 20.2878 22.4562 20.1556 22.5225L20.1603 22.5252ZM15.6477 29.8115C14.6395 30.9017 13.2366 31.3135 12.6305 30.965C11.9758 30.5932 12.2349 28.9805 13.4723 27.827C14.2051 27.1708 14.9972 26.5831 15.8385 26.0712C15.9853 25.9783 16.2023 25.8556 16.4632 25.6994C16.5081 25.6743 16.5333 25.6613 16.5333 25.6613L16.6867 25.5684C16.9074 26.3037 16.9275 27.0841 16.7449 27.8297C16.5623 28.5752 16.1837 29.2592 15.6477 29.8115Z" fill="white"/>
</g>
<defs>
<clipPath id="clip0_209_722">
<rect width="40" height="40" fill="white"/>
</clipPath>
</defs>
</svg>
