<svg width="30" height="31" viewBox="0 0 30 31" fill="none" xmlns="http://www.w3.org/2000/svg">
<path d="M20.1658 28.7865H25.5834C25.6423 28.7865 25.7007 28.7749 25.7551 28.7523C25.8095 28.7297 25.859 28.6966 25.9006 28.6548C25.9422 28.6131 25.9751 28.5636 25.9975 28.5091C26.02 28.4546 26.0314 28.3962 26.0312 28.3373V16.3109H20.1658V28.7865Z" fill="#EFAE02"/>
<path d="M9.83412 28.7865H4.41656C4.35763 28.7865 4.29928 28.7749 4.24485 28.7523C4.19043 28.7297 4.14099 28.6966 4.09939 28.6548C4.05779 28.6131 4.02484 28.5636 4.00242 28.5091C3.98 28.4546 3.96856 28.3962 3.96875 28.3373V16.3109H9.83412V28.7865Z" fill="#EFAE02"/>
<path d="M15 4.91235C14.9225 4.91197 14.8483 4.88101 14.7935 4.8262C14.7387 4.7714 14.7077 4.69718 14.7073 4.61967V2.95577C14.7073 2.87814 14.7382 2.8037 14.7931 2.74881C14.8479 2.69392 14.9224 2.66309 15 2.66309C15.0776 2.66309 15.1521 2.69392 15.207 2.74881C15.2619 2.8037 15.2927 2.87814 15.2927 2.95577V4.61967C15.2923 4.69718 15.2614 4.7714 15.2066 4.8262C15.1517 4.88101 15.0775 4.91197 15 4.91235Z" fill="#EFAE02"/>
<path d="M20.5639 16.3109H20.1658V28.7865H21.2663V16.3109H20.5639Z" fill="#B18102"/>
<path d="M9.83413 16.3109H9.43608H8.73364V28.7865H9.83413V16.3109Z" fill="#EFAE02"/>
<path d="M20.5639 9.44458H9.4361V28.7868H20.5639V9.44458Z" fill="#EFAE02"/>
<path d="M16.3771 27.8148C13.1927 27.8148 10.6112 25.2348 10.6112 22.0504V9.44458H9.4361V28.7865H20.5639V27.8148H16.3771Z" fill="#B18102"/>
<path d="M14.8522 4.72654L8.24048 9.52215C8.04292 9.6641 8.1439 9.9758 8.38829 9.9758H21.6117C21.8561 9.9758 21.9571 9.6641 21.7595 9.52215L15.1478 4.72654C15.1049 4.69514 15.0531 4.67822 15 4.67822C14.9468 4.67822 14.8951 4.69514 14.8522 4.72654Z" fill="#EFAE02"/>
<path d="M21.7595 9.52215L21.4054 9.26458H10.6537C10.4093 9.26458 10.3083 8.95288 10.5058 8.80946L15.6424 5.08507L15.1478 4.72654C15.1049 4.69514 15.0531 4.67822 15 4.67822C14.9468 4.67822 14.8951 4.69514 14.8522 4.72654L8.24048 9.52215C8.04292 9.6641 8.1439 9.9758 8.38829 9.9758H21.6117C21.8561 9.9758 21.9571 9.6641 21.7595 9.52215Z" fill="#B18102"/>
<path d="M15 18.7212C15.7991 18.7212 16.5655 19.0387 17.1306 19.6037C17.6957 20.1688 18.0132 20.9352 18.0132 21.7344V28.788H11.9868V21.7344C11.9868 20.9352 12.3043 20.1688 12.8694 19.6037C13.4344 19.0387 14.2008 18.7212 15 18.7212Z" fill="#0C0C0C"/>
<path d="M13.2775 14.1611H12.1917C11.9015 14.1611 11.6663 14.3963 11.6663 14.6865V16.4828C11.6663 16.773 11.9015 17.0082 12.1917 17.0082H13.2775C13.5677 17.0082 13.8029 16.773 13.8029 16.4828V14.6865C13.8029 14.3963 13.5677 14.1611 13.2775 14.1611Z" fill="#0C0C0C"/>
<path d="M7.60684 18.2777H5.79806C5.70754 18.2777 5.63416 18.3511 5.63416 18.4416V20.9609C5.63416 21.0514 5.70754 21.1248 5.79806 21.1248H7.60684C7.69736 21.1248 7.77074 21.0514 7.77074 20.9609V18.4416C7.77074 18.3511 7.69736 18.2777 7.60684 18.2777Z" fill="#0C0C0C"/>
<path d="M16.7225 17.009H17.8083C18.0985 17.009 18.3337 16.7738 18.3337 16.4837V14.6873C18.3337 14.3972 18.0985 14.162 17.8083 14.162H16.7225C16.4323 14.162 16.1971 14.3972 16.1971 14.6873V16.4837C16.1971 16.7738 16.4323 17.009 16.7225 17.009Z" fill="#0C0C0C"/>
<path d="M15 9.44318C15.6708 9.44318 16.2146 8.89937 16.2146 8.22855C16.2146 7.55773 15.6708 7.01392 15 7.01392C14.3291 7.01392 13.7853 7.55773 13.7853 8.22855C13.7853 8.89937 14.3291 9.44318 15 9.44318Z" fill="#0C0C0C"/>
<path d="M15.0747 1.88025H17.6649C17.7612 1.88025 17.8535 1.91849 17.9215 1.98655C17.9896 2.05461 18.0278 2.14692 18.0278 2.24318V3.42415C18.0278 3.52041 17.9896 3.61272 17.9215 3.68078C17.8535 3.74884 17.7612 3.78708 17.6649 3.78708H14.801C14.7893 3.78708 14.7777 3.78477 14.7668 3.78028C14.756 3.7758 14.7462 3.76922 14.7379 3.76093C14.7296 3.75264 14.723 3.7428 14.7185 3.73197C14.714 3.72114 14.7117 3.70953 14.7117 3.69781V2.24318C14.7117 2.14692 14.75 2.05461 14.818 1.98655C14.8861 1.91849 14.9784 1.88025 15.0747 1.88025Z" fill="#0C0C0C"/>
<path d="M22.3932 21.1241H24.2019C24.2925 21.1241 24.3658 21.0508 24.3658 20.9602V18.441C24.3658 18.3505 24.2925 18.2771 24.2019 18.2771H22.3932C22.3026 18.2771 22.2293 18.3505 22.2293 18.441V20.9602C22.2293 21.0508 22.3026 21.1241 22.3932 21.1241Z" fill="#0C0C0C"/>
<path d="M7.60684 23.7539H5.79806C5.70754 23.7539 5.63416 23.8273 5.63416 23.9178V26.4371C5.63416 26.5276 5.70754 26.601 5.79806 26.601H7.60684C7.69736 26.601 7.77074 26.5276 7.77074 26.4371V23.9178C7.77074 23.8273 7.69736 23.7539 7.60684 23.7539Z" fill="#0C0C0C"/>
<path d="M22.3932 26.6002H24.2019C24.2925 26.6002 24.3658 26.5268 24.3658 26.4363V23.917C24.3658 23.8265 24.2925 23.7531 24.2019 23.7531H22.3932C22.3026 23.7531 22.2293 23.8265 22.2293 23.917V26.4363C22.2293 26.5268 22.3026 26.6002 22.3932 26.6002Z" fill="#0C0C0C"/>
<path d="M9.43607 16.3109V13.8041L3.44632 16.2172C3.43557 16.2212 3.42655 16.2288 3.42089 16.2387C3.41522 16.2487 3.41327 16.2603 3.41538 16.2715C3.41749 16.2828 3.42352 16.2929 3.4324 16.3001C3.44128 16.3073 3.45244 16.3112 3.46388 16.3109H9.43607Z" fill="#EFAE02"/>
<path d="M20.5639 13.8041V16.3109H26.5361C26.5475 16.3112 26.5587 16.3073 26.5676 16.3001C26.5765 16.2929 26.5825 16.2828 26.5846 16.2715C26.5867 16.2603 26.5848 16.2487 26.5791 16.2387C26.5734 16.2288 26.5644 16.2212 26.5537 16.2172L20.5639 13.8041Z" fill="#EFAE02"/>
<path d="M9.43608 16.3109V13.8041L8.73364 14.0865V16.3109H9.43608Z" fill="#EFAE02"/>
<path d="M20.5639 16.3109H21.2663V14.0865L20.5639 13.8041V16.3109Z" fill="#EFAE02"/>
<path d="M15.2927 28.7866V18.7344C15.1961 18.7256 15.0981 18.7212 15 18.7212C14.902 18.7212 14.8039 18.7256 14.7073 18.7344V28.7866H15.2927Z" fill="#EFAE02"/>
<path d="M17.4775 6.45419C17.2866 6.314 17.0182 6.35506 16.878 6.54591C16.7379 6.73677 16.7789 7.00513 16.9698 7.14532L18.7647 8.46384C18.9556 8.60403 19.2239 8.56297 19.3641 8.37212C19.5043 8.18126 19.4633 7.9129 19.2724 7.77271L17.4775 6.45419Z" fill="#B18102"/>
<path d="M22.3768 14.5376C22.2426 14.4815 22.0883 14.5448 22.0321 14.679C21.976 14.8132 22.0393 14.9675 22.1735 15.0237L23.4355 15.5516C23.5697 15.6077 23.724 15.5444 23.7802 15.4102C23.8363 15.276 23.773 15.1217 23.6388 15.0655L22.3768 14.5376Z" fill="#EFAE02"/>
<path d="M20.5654 12.97C20.5654 12.6216 20.283 12.3392 19.9346 12.3392C19.5863 12.3392 19.3039 12.6216 19.3039 12.97V23.7673C19.3039 24.1157 19.5863 24.3981 19.9346 24.3981C20.283 24.3981 20.5654 24.1157 20.5654 23.7673V12.97Z" fill="#B18102"/>
<path d="M25.6142 18.1445H25.6127C25.3823 18.1445 25.1956 18.3313 25.1956 18.5616V23.5517C25.1956 23.782 25.3823 23.9688 25.6127 23.9688H25.6142C25.8445 23.9688 26.0312 23.782 26.0312 23.5517V18.5616C26.0312 18.3313 25.8445 18.1445 25.6142 18.1445Z" fill="#EFAE02"/>
<path d="M4.38735 18.1445H4.38588C4.15554 18.1445 3.96881 18.3313 3.96881 18.5616V23.5517C3.96881 23.782 4.15554 23.9688 4.38588 23.9688H4.38735C4.61769 23.9688 4.80442 23.782 4.80442 23.5517V18.5616C4.80442 18.3313 4.61769 18.1445 4.38735 18.1445Z" fill="#EFAE02"/>
</svg>
