<svg width="40" height="40" viewBox="0 0 40 40" fill="none" xmlns="http://www.w3.org/2000/svg">
<g clip-path="url(#clip0_217_926)">
<path d="M11.3672 35.9963L34.5197 34.6688C34.9912 34.6408 35.4337 34.445 35.7573 34.1211C36.0809 33.7973 36.2615 33.3696 36.2622 32.925V10.2181C36.2622 10.1108 36.2348 10.0051 36.1824 9.90979C36.1299 9.81452 36.0539 9.73249 35.9607 9.67063L28.4097 4.65938C27.6887 4.18117 26.8146 3.9514 25.9347 4.00875L5.60046 5.33813C5.09545 5.37196 4.62282 5.58467 4.27779 5.93341C3.93277 6.28215 3.74099 6.74099 3.74109 7.2175V27.75C3.74118 27.9621 3.81486 28.1684 3.95093 28.3375L9.45734 35.1688C9.67907 35.4436 9.96928 35.6629 10.3024 35.8072C10.6354 35.9515 11.0011 36.0164 11.3672 35.9963Z" fill="black"/>
<path d="M10.407 13.5456V32.2956C10.4071 32.4606 10.4429 32.6238 10.5121 32.7754C10.5813 32.9269 10.6825 33.0637 10.8095 33.1773C10.9366 33.2909 11.0869 33.3791 11.2512 33.4364C11.4156 33.4937 11.5906 33.5189 11.7657 33.5106L32.8888 32.5169C33.2152 32.5015 33.5228 32.3686 33.748 32.1457C33.9732 31.9228 34.0988 31.627 34.0987 31.3194V12.2119C34.0988 12.0853 34.0714 11.9601 34.0182 11.8438C33.9651 11.7275 33.8873 11.6227 33.7897 11.5357C33.6921 11.4486 33.5766 11.3812 33.4504 11.3376C33.3241 11.294 33.1898 11.275 33.0555 11.2819L11.5804 12.38C11.2635 12.3962 10.9652 12.526 10.747 12.7428C10.5287 12.9597 10.407 13.247 10.407 13.5456Z" fill="white"/>
<path d="M31.4637 9.22L11.077 10.3037C10.5586 10.3314 10.0474 10.1788 9.64065 9.875L6.69553 7.68C6.64502 7.64229 6.60775 7.59113 6.58859 7.53319C6.56943 7.47525 6.56926 7.41322 6.58812 7.35519C6.60697 7.29717 6.64397 7.24583 6.69429 7.20789C6.7446 7.16995 6.8059 7.14716 6.87018 7.1425L25.6871 5.7675C26.4964 5.70914 27.3012 5.92456 27.9568 6.375L31.5773 8.85625C31.613 8.88065 31.6398 8.91485 31.654 8.95416C31.6682 8.99347 31.6692 9.03596 31.6568 9.0758C31.6443 9.11564 31.6191 9.15089 31.5845 9.1767C31.55 9.20252 31.5078 9.21764 31.4637 9.22Z" fill="white"/>
<path d="M30.6947 14.5113L30.6721 15.0313C30.6657 15.1691 30.6085 15.3005 30.5106 15.4031C30.4126 15.5057 30.2798 15.5731 30.1349 15.5938L29.1083 15.7394V29.2369C29.1076 29.3046 29.0854 29.3705 29.0446 29.4262C29.0038 29.4819 28.9462 29.5248 28.8792 29.5494L27.737 29.9725C27.2168 30.1648 26.642 30.1822 26.1097 30.0219C25.5773 29.8616 25.1201 29.5333 24.8151 29.0925L18.1227 19.405V28.53L18.1619 28.5213L20.1341 29.0125C20.1522 29.0176 20.1689 29.0262 20.1831 29.0378C20.1973 29.0494 20.2088 29.0637 20.2167 29.0798C20.2246 29.0958 20.2288 29.1133 20.229 29.131C20.2292 29.1487 20.2254 29.1663 20.2178 29.1825C20.0871 29.4428 19.8846 29.6654 19.6316 29.8272C19.3785 29.989 19.0841 30.084 18.7788 30.1025L18.1227 30.1419L15.6152 30.2931L13.9677 30.3925C13.9443 30.3939 13.921 30.3899 13.8996 30.381C13.8783 30.3721 13.8595 30.3585 13.8448 30.3414C13.8302 30.3243 13.8201 30.3041 13.8155 30.2825C13.8109 30.2609 13.8118 30.2387 13.8182 30.2175L13.961 29.7525C13.9877 29.6647 14.0387 29.5851 14.1087 29.5217C14.1786 29.4584 14.2651 29.4136 14.3594 29.3919L15.6145 29.1044V16.7775L13.8534 16.6744L14.0527 15.9956C14.1084 15.805 14.2264 15.6356 14.39 15.5115C14.5536 15.3875 14.7546 15.315 14.9644 15.3044L15.6152 15.2719L18.1227 15.1469L19.7344 15.0681C19.8174 15.064 19.9002 15.0803 19.9745 15.1155C20.0488 15.1507 20.1121 15.2035 20.158 15.2688L21.4609 17.12L26.7396 24.62V16.01L25.1286 15.9294C25.0994 15.9281 25.0718 15.9167 25.051 15.8975C25.0302 15.8782 25.0176 15.8524 25.0157 15.825C25.0033 15.6683 25.0289 15.511 25.0907 15.365C25.2899 14.9069 25.8524 14.61 26.5198 14.6019L26.7396 14.59L29.1096 14.47L30.5705 14.395C30.587 14.3943 30.6034 14.3968 30.6188 14.4024C30.6341 14.408 30.6481 14.4165 30.6598 14.4275C30.6715 14.4384 30.6806 14.4515 30.6866 14.4659C30.6926 14.4803 30.6954 14.4958 30.6947 14.5113Z" fill="black"/>
</g>
<defs>
<clipPath id="clip0_217_926">
<rect width="34" height="32" fill="white" transform="translate(3 4)"/>
</clipPath>
</defs>
</svg>
