<svg width="30" height="30" viewBox="0 0 30 30" fill="none" xmlns="http://www.w3.org/2000/svg">
<circle cx="15.2344" cy="11.9531" r="6.32812" fill="#0C0C0C"/>
<path d="M15 28.125C17.0156 28.125 25.125 19.7344 25.125 12.1406C25.125 6.46875 20.5781 1.875 15 1.875C9.42188 1.875 4.875 6.46875 4.875 12.1406C4.875 19.7344 12.9844 28.125 15 28.125ZM9.46875 11.25C9.46875 10.5 9.60938 9.75 9.89063 9.09375C10.0781 8.67188 10.6406 8.625 10.875 9C11.25 9.60938 11.9531 10.0312 12.75 10.0312C13.9688 10.0312 15 9 15 7.78125C15 7.26562 14.8594 6.84375 14.5781 6.46875C14.2969 6.14062 14.5313 5.625 15 5.625C18.0469 5.625 20.5313 8.15625 20.5313 11.25C20.5313 14.3438 18.0469 16.875 15 16.875C11.9531 16.875 9.46875 14.3438 9.46875 11.25Z" fill="#EFAE02"/>
</svg>
