<svg width="285" height="68" viewBox="0 0 285 68" fill="none" xmlns="http://www.w3.org/2000/svg">
<g clip-path="url(#clip0_15_93)">
<path d="M34 68C52.7777 68 68 52.7777 68 34C68 15.2223 52.7777 0 34 0C15.2223 0 0 15.2223 0 34C0 52.7777 15.2223 68 34 68Z" fill="#0C0C0C"/>
<path d="M21.519 35.2264L21.5566 17.2502H18.5856C17.4072 17.2502 16.5298 17.5134 15.9531 18.0399C15.3764 18.5414 15.0882 19.1431 15.0882 19.8451C15.0882 20.522 15.2637 21.0861 15.6147 21.5374C15.9657 21.9887 16.4294 22.2143 17.0061 22.2143C17.6078 22.2143 18.0465 22.0765 18.3224 21.8007C18.5982 21.5248 18.8113 21.2616 18.9617 21.0109C19.1121 20.7351 19.2626 20.5972 19.413 20.5972C19.5634 20.5972 19.6386 20.7853 19.6386 21.1613C19.6386 21.5374 19.3504 21.9385 18.7737 22.3648C18.2221 22.7659 17.5702 22.9665 16.8181 22.9665C16.0659 22.9665 15.4642 22.6782 15.0129 22.1015C14.5617 21.5248 14.336 20.8103 14.336 19.9579C14.336 19.0803 14.6995 18.2906 15.4266 17.5886C16.1788 16.8615 17.2444 16.498 18.6232 16.498H25.1669L35.0576 33.835V23.493C35.0576 17.5761 37.101 14.6177 41.1876 14.6177C42.7169 14.6177 44.0331 15.094 45.1363 16.0467C46.2645 16.9995 46.8287 18.1778 46.8287 19.5818C46.8287 20.9607 46.4902 21.9385 45.8133 22.5152C45.1613 23.0667 44.5722 23.3425 44.0457 23.3425C43.5442 23.3425 43.1055 23.2297 42.7295 23.0041C42.3534 22.7784 42.1654 22.5278 42.1654 22.2519C42.1654 21.9761 42.228 21.8383 42.3534 21.8383C42.4788 21.8383 42.5664 21.8885 42.6166 21.9887C42.6919 22.0639 42.7545 22.1391 42.8047 22.2143C43.0053 22.4902 43.4064 22.628 44.0081 22.628C44.6098 22.628 45.0987 22.3522 45.4748 21.8007C45.8759 21.2491 46.0765 20.5596 46.0765 19.7323C46.0765 18.4034 45.6126 17.3504 44.685 16.5733C43.7825 15.7709 42.6919 15.3698 41.4132 15.3698C40.636 15.3698 39.9591 15.4701 39.3824 15.6707C38.8057 15.8461 38.2292 16.1972 37.6525 16.7237C36.4741 17.7517 35.8849 19.9829 35.8849 23.4178V42.4846C35.8849 42.7605 35.7595 42.8983 35.5089 42.8983C35.3585 42.8983 35.1954 42.7353 35.02 42.4094L22.3087 18.7169V34.2486C22.3087 37.0818 21.6944 39.2378 20.466 40.7171C19.2626 42.1712 17.8461 42.8983 16.2164 42.8983C14.5867 42.8983 13.2078 42.422 12.0796 41.4692C10.9764 40.5165 10.4249 39.3506 10.4249 37.9718C10.4249 36.5677 10.7633 35.5899 11.4403 35.0384C12.0921 34.4617 12.6688 34.1734 13.1702 34.1734C13.6967 34.1734 14.148 34.2862 14.5241 34.5119C14.9001 34.7375 15.0882 34.9882 15.0882 35.264C15.0882 35.5399 15.0255 35.6777 14.9001 35.6777C14.7748 35.6777 14.6745 35.6401 14.5993 35.5649C14.5491 35.4897 14.499 35.4019 14.4488 35.3016C14.2733 35.051 13.8597 34.9256 13.2078 34.9256C12.581 34.9256 12.0796 35.2014 11.7035 35.7529C11.3274 36.2794 11.1394 36.9564 11.1394 37.7837C11.1394 39.1376 11.6283 40.2156 12.6061 41.0179C13.6089 41.7951 14.7873 42.1838 16.1412 42.1838C17.495 42.1838 18.7235 41.557 19.8267 40.3034C20.9549 39.0498 21.519 37.3575 21.519 35.2264Z" fill="white"/>
<path d="M42.9796 54.0316H46.7787V28.0903H51.6523C52.8547 28.0903 53.7502 28.3589 54.3385 28.8962C54.9269 29.4078 55.2212 30.0218 55.2212 30.7382C55.2212 31.4289 55.042 32.0045 54.6839 32.465C54.3258 32.9255 53.8524 33.1558 53.2641 33.1558C52.6501 33.1558 52.2023 33.015 51.9209 32.7336C51.6396 32.4523 51.4221 32.1837 51.2686 31.9278C51.1151 31.6464 50.9616 31.5057 50.8081 31.5057C50.6546 31.5057 50.5778 31.6975 50.5778 32.0813C50.5778 32.465 50.8721 32.8744 51.4604 33.3093C52.0233 33.7187 52.6884 33.9233 53.4559 33.9233C54.2234 33.9233 54.8374 33.629 55.2979 33.0406C55.7584 32.4523 55.9887 31.7232 55.9887 30.8533C55.9887 29.9579 55.6177 29.1521 54.8758 28.4357C54.1083 27.6938 53.0211 27.3228 51.6139 27.3228H35.3047V28.0903H42.9796V54.0316Z" fill="white"/>
</g>
<path d="M91.3593 44H89.3993L78.5633 27.536V44H76.6033V24.428H78.5633L89.3993 40.864V24.428H91.3593V44ZM97.7586 24.428V44H95.7986V24.428H97.7586ZM112.641 44L104.157 34.956V44H102.197V24.428H104.157V33.584L112.641 24.428H115.133L105.977 34.2L115.217 44H112.641ZM119.987 24.428V36.748C119.987 38.6893 120.444 40.1267 121.359 41.06C122.292 41.9933 123.562 42.46 125.167 42.46C126.772 42.46 128.023 42.0027 128.919 41.088C129.834 40.1547 130.291 38.708 130.291 36.748V24.428H132.251V36.72C132.251 39.2027 131.588 41.0693 130.263 42.32C128.956 43.5707 127.248 44.196 125.139 44.196C123.03 44.196 121.312 43.5707 119.987 42.32C118.68 41.0693 118.027 39.2027 118.027 36.72V24.428H119.987ZM151.379 44H149.419L138.583 27.536V44H136.623V24.428H138.583L149.419 40.864V24.428H151.379V44ZM164.862 24.428V39.24C164.862 40.7333 164.405 41.9373 163.49 42.852C162.575 43.748 161.353 44.196 159.822 44.196C158.235 44.196 156.966 43.72 156.014 42.768C155.081 41.7973 154.614 40.4907 154.614 38.848H156.602C156.621 39.912 156.882 40.78 157.386 41.452C157.909 42.124 158.721 42.46 159.822 42.46C160.867 42.46 161.642 42.152 162.146 41.536C162.65 40.92 162.902 40.1547 162.902 39.24V24.428H164.862Z" fill="black"/>
<path d="M183.427 24.344V28.18H178.219V44H173.431V28.18H168.223V24.344H183.427ZM202.854 24.344V44H198.066V35.908H190.618V44H185.83V24.344H190.618V32.044H198.066V24.344H202.854ZM211.098 28.18V32.156H217.51V35.852H211.098V40.164H218.35V44H206.31V24.344H218.35V28.18H211.098ZM228.571 44.196C227.133 44.196 225.845 43.9627 224.707 43.496C223.568 43.0293 222.653 42.3387 221.963 41.424C221.291 40.5093 220.936 39.408 220.899 38.12H225.995C226.069 38.848 226.321 39.408 226.751 39.8C227.18 40.1733 227.74 40.36 228.431 40.36C229.14 40.36 229.7 40.2013 230.111 39.884C230.521 39.548 230.727 39.0907 230.727 38.512C230.727 38.0267 230.559 37.6253 230.223 37.308C229.905 36.9907 229.504 36.7293 229.019 36.524C228.552 36.3187 227.88 36.0853 227.003 35.824C225.733 35.432 224.697 35.04 223.895 34.648C223.092 34.256 222.401 33.6773 221.823 32.912C221.244 32.1467 220.955 31.148 220.955 29.916C220.955 28.0867 221.617 26.6587 222.943 25.632C224.268 24.5867 225.995 24.064 228.123 24.064C230.288 24.064 232.033 24.5867 233.359 25.632C234.684 26.6587 235.393 28.096 235.487 29.944H230.307C230.269 29.3093 230.036 28.8147 229.607 28.46C229.177 28.0867 228.627 27.9 227.955 27.9C227.376 27.9 226.909 28.0587 226.555 28.376C226.2 28.6747 226.023 29.1133 226.023 29.692C226.023 30.3267 226.321 30.8213 226.919 31.176C227.516 31.5307 228.449 31.9133 229.719 32.324C230.988 32.7533 232.015 33.164 232.799 33.556C233.601 33.948 234.292 34.5173 234.871 35.264C235.449 36.0107 235.739 36.972 235.739 38.148C235.739 39.268 235.449 40.2853 234.871 41.2C234.311 42.1147 233.489 42.8427 232.407 43.384C231.324 43.9253 230.045 44.196 228.571 44.196ZM243.473 24.344V44H238.685V24.344H243.473ZM263.799 24.344L256.995 37.504V44H252.207V37.504L245.403 24.344H250.835L254.643 32.576L258.423 24.344H263.799ZM277.964 40.528H270.628L269.452 44H264.44L271.552 24.344H277.096L284.208 44H279.14L277.964 40.528ZM276.732 36.832L274.296 29.636L271.888 36.832H276.732Z" fill="#0C0C0C"/>
<defs>
<clipPath id="clip0_15_93">
<rect width="68" height="68" fill="white"/>
</clipPath>
</defs>
</svg>
