<svg width="40" height="40" viewBox="0 0 40 40" fill="none" xmlns="http://www.w3.org/2000/svg">
<path fill-rule="evenodd" clip-rule="evenodd" d="M30.327 3.00001C32.1696 3.00001 33.8378 3.75113 35.0454 4.96502C36.2529 6.17891 37 7.85631 37 9.70866V30.2913C37 32.1439 36.2531 33.8211 35.0455 35.0352C34.4266 35.6591 33.6911 36.1538 32.8813 36.491C32.0716 36.8282 31.2035 37.0012 30.327 37H9.67296C7.83038 37 6.16218 36.2489 4.95463 35.035C3.74709 33.8211 3 32.1437 3 30.2913V9.70866C3 7.85612 3.7469 6.17891 4.95445 4.96484C5.57342 4.34094 6.30892 3.84618 7.11868 3.50899C7.92844 3.1718 8.79649 2.99882 9.67296 3.00001H30.327Z" fill="#EC5990"/>
<path fill-rule="evenodd" clip-rule="evenodd" d="M26.1354 10.5332H22.1198C21.8254 9.61993 20.969 9 20.0014 9C19.0339 9 18.1774 9.61993 17.883 10.5332H13.8646C12.2825 10.5332 11 11.8041 11 13.3719V28.1614C11 29.7291 12.2825 31 13.8646 31H26.1354C27.7175 31 29 29.7291 29 28.1614V13.3719C29 11.8041 27.7175 10.5332 26.1354 10.5332ZM18.0834 11.0493C18.1438 11.0508 18.2029 11.0313 18.2504 10.994C18.2979 10.9568 18.3309 10.9043 18.3437 10.8454C18.5142 10.0701 19.2069 9.51702 20.0078 9.51702C20.8087 9.51702 21.5014 10.0699 21.6719 10.8454C21.6847 10.9043 21.7177 10.9568 21.7652 10.994C21.8127 11.0313 21.8718 11.0508 21.9322 11.0493H23.3333V12.7397C23.3333 13.1672 22.9835 13.5139 22.552 13.5139H17.4609C17.0294 13.5139 16.6796 13.1672 16.6796 12.7397V11.0493H18.0834ZM28.4791 28.1614C28.4791 29.4441 27.4298 30.4839 26.1354 30.4839H13.8646C12.5702 30.4839 11.5209 29.4441 11.5209 28.1614V13.3719C11.5209 12.0891 12.5702 11.0493 13.8646 11.0493H16.1589V12.7397C16.1589 13.4524 16.742 14.0299 17.4611 14.0299H22.5391C23.2582 14.0299 23.8413 13.4522 23.8413 12.7397V11.0493H26.1356C27.43 11.0493 28.4793 12.0891 28.4793 13.3719L28.4791 28.1614ZM25.6249 18.9667H21.0415C21.0074 18.9667 20.9736 18.9733 20.942 18.9862C20.9105 18.9991 20.8818 19.0181 20.8576 19.0421C20.8335 19.0661 20.8143 19.0945 20.8011 19.1259C20.788 19.1573 20.7812 19.1909 20.7811 19.2249C20.7812 19.2588 20.788 19.2925 20.8011 19.3238C20.8143 19.3552 20.8335 19.3836 20.8576 19.4076C20.8818 19.4316 20.9105 19.4506 20.942 19.4635C20.9736 19.4764 21.0074 19.4831 21.0415 19.483H25.6249C25.659 19.4831 25.6928 19.4764 25.7243 19.4635C25.7559 19.4506 25.7845 19.4316 25.8087 19.4076C25.8329 19.3836 25.8521 19.3552 25.8652 19.3238C25.8783 19.2925 25.8851 19.2588 25.8852 19.2249C25.8851 19.1909 25.8783 19.1573 25.8652 19.1259C25.8521 19.0945 25.8329 19.0661 25.8087 19.0421C25.7845 19.0181 25.7559 18.9991 25.7243 18.9862C25.6928 18.9733 25.659 18.9667 25.6249 18.9667ZM18.8542 18.9667H14.2708C14.2367 18.9667 14.2029 18.9733 14.1714 18.9862C14.1398 18.9991 14.1112 19.0181 14.087 19.0421C14.0628 19.0661 14.0436 19.0945 14.0305 19.1259C14.0174 19.1573 14.0106 19.1909 14.0105 19.2249C14.0106 19.2588 14.0174 19.2925 14.0305 19.3238C14.0436 19.3552 14.0628 19.3836 14.087 19.4076C14.1112 19.4316 14.1398 19.4506 14.1714 19.4635C14.2029 19.4764 14.2367 19.4831 14.2708 19.483H18.8542C18.8883 19.4831 18.9221 19.4764 18.9537 19.4635C18.9852 19.4506 19.0139 19.4316 19.0381 19.4076C19.0622 19.3836 19.0814 19.3552 19.0946 19.3238C19.1077 19.2925 19.1145 19.2588 19.1146 19.2249C19.1145 19.1909 19.1077 19.1573 19.0946 19.1259C19.0814 19.0945 19.0622 19.0661 19.0381 19.0421C19.0139 19.0181 18.9852 18.9991 18.9537 18.9862C18.9221 18.9733 18.8883 18.9667 18.8542 18.9667ZM25.638 25.2118H21.0417C21.0076 25.2117 20.9738 25.2183 20.9422 25.2313C20.9107 25.2442 20.882 25.2632 20.8578 25.2872C20.8337 25.3111 20.8145 25.3396 20.8013 25.371C20.7882 25.4023 20.7814 25.4359 20.7813 25.4699C20.7814 25.5039 20.7882 25.5375 20.8013 25.5689C20.8145 25.6002 20.8337 25.6287 20.8578 25.6527C20.882 25.6766 20.9107 25.6956 20.9422 25.7086C20.9738 25.7215 21.0076 25.7281 21.0417 25.728H25.638C25.6721 25.7281 25.7059 25.7215 25.7374 25.7086C25.769 25.6956 25.7976 25.6766 25.8218 25.6527C25.846 25.6287 25.8652 25.6002 25.8783 25.5689C25.8914 25.5375 25.8982 25.5039 25.8983 25.4699C25.8982 25.4359 25.8914 25.4023 25.8783 25.371C25.8652 25.3396 25.846 25.3111 25.8218 25.2872C25.7976 25.2632 25.769 25.2442 25.7374 25.2313C25.7059 25.2183 25.6721 25.2117 25.638 25.2118ZM18.8671 25.2118H14.2708C14.2367 25.2117 14.2029 25.2183 14.1714 25.2313C14.1398 25.2442 14.1112 25.2632 14.087 25.2872C14.0628 25.3111 14.0436 25.3396 14.0305 25.371C14.0174 25.4023 14.0106 25.4359 14.0105 25.4699C14.0106 25.5039 14.0174 25.5375 14.0305 25.5689C14.0436 25.6002 14.0628 25.6287 14.087 25.6527C14.1112 25.6766 14.1398 25.6956 14.1714 25.7086C14.2029 25.7215 14.2367 25.7281 14.2708 25.728H18.8671C18.9012 25.7281 18.935 25.7215 18.9666 25.7086C18.9981 25.6956 19.0268 25.6766 19.051 25.6527C19.0751 25.6287 19.0943 25.6002 19.1075 25.5689C19.1206 25.5375 19.1274 25.5039 19.1275 25.4699C19.1274 25.4359 19.1206 25.4023 19.1075 25.371C19.0943 25.3396 19.0751 25.3111 19.051 25.2872C19.0268 25.2632 18.9981 25.2442 18.9666 25.2313C18.935 25.2183 18.9012 25.2117 18.8671 25.2118Z" fill="white"/>
</svg>
