<svg width="40" height="40" viewBox="0 0 40 40" fill="none" xmlns="http://www.w3.org/2000/svg">
<g clip-path="url(#clip0_217_906)">
<path d="M3 3H37V37H3V3Z" fill="#34BDB2"/>
<path d="M25.3738 14.5601C23.5787 13.5186 21.9852 12.6995 19.9006 12.7357C18.7079 12.7564 17.6839 13.4046 17.4686 14.5911C17.2682 15.6949 18.2495 16.3071 19.2702 16.683C20.9632 17.3064 22.437 17.9646 24.1005 18.6578C27.1245 19.918 28.6751 21.959 28.4918 24.5776C28.2586 27.9095 26.2534 30.2992 23.0666 31.087C18.9024 32.1166 14.8586 30.5483 11.442 28.3591C12.3044 27.0454 13.3048 26.1487 14.162 24.843C16.1359 25.6832 17.6866 26.8184 19.7516 26.9955C21.2076 27.1203 22.8574 27.0509 23.1845 25.3406C23.4793 23.7984 22.1371 22.9717 20.828 22.5099C19.2695 21.9602 17.7138 21.2877 16.1854 20.6635C13.3601 19.5095 12.2105 17.2524 12.404 14.5933C12.404 13.0342 13.6976 9.88299 16.8693 8.90284C21.7424 7.39675 24.4274 8.93896 27.9611 11.2099C27.0225 12.4512 26.3009 13.3337 25.3738 14.5601" fill="white"/>
</g>
<defs>
<clipPath id="clip0_217_906">
<rect x="3" y="3" width="34" height="34" rx="8" fill="white"/>
</clipPath>
</defs>
</svg>
