<svg width="40" height="40" viewBox="0 0 40 40" fill="none" xmlns="http://www.w3.org/2000/svg">
<g clip-path="url(#clip0_209_770)">
<path d="M27.7158 27.4338C29.1919 27.2815 30.3117 26.0132 30.2608 24.4912C30.21 22.9693 28.9374 21.7517 27.4103 21.7517H27.3086C25.7305 21.8024 24.5089 23.1214 24.5599 24.6941C24.6108 25.4551 24.9161 26.1146 25.3742 26.5712C23.6436 29.9704 20.9967 32.4562 17.0264 34.5362C14.3286 35.9568 11.5291 36.4641 8.72953 36.1091C6.43891 35.8046 4.65734 34.7901 3.53734 33.1157C1.90859 30.6299 1.75594 27.941 3.13031 25.2522C4.0975 23.3243 5.62438 21.9038 6.59156 21.1935C6.38797 20.534 6.0825 19.418 5.92984 18.6063C-1.45094 23.9332 -0.687346 31.1372 1.55234 34.5362C3.23203 37.073 6.6425 38.6457 10.4092 38.6457C11.4272 38.6457 12.4452 38.5442 13.4633 38.2906C19.9788 37.0222 24.9163 33.1665 27.7158 27.4338V27.4338ZM36.6745 21.1429C32.8059 16.6277 27.105 14.1418 20.5895 14.1418H19.7752C19.317 13.2286 18.3499 12.6198 17.2809 12.6198H17.1791C15.6013 12.6705 14.3797 13.9895 14.4305 15.5623C14.4814 17.0842 15.7539 18.3019 17.2809 18.3019H17.3827C18.5025 18.2511 19.4697 17.5408 19.8769 16.5769H20.7931C24.6617 16.5769 28.3266 17.693 31.6353 19.8745C34.1803 21.5487 36.0128 23.7303 37.0308 26.3683C37.8961 28.4991 37.8452 30.5791 36.9289 32.3548C35.5038 35.0436 33.1114 36.5149 29.9555 36.5149C27.9194 36.5149 25.9852 35.906 24.967 35.4494C24.4072 35.9568 23.3891 36.7684 22.6764 37.2759C24.8653 38.2905 27.105 38.8486 29.2428 38.8486C34.1294 38.8486 37.7435 36.1597 39.1178 33.4709C40.5939 30.5283 40.492 25.4551 36.6745 21.1429V21.1429ZM10.8164 28.296C10.8673 29.8181 12.1398 31.0355 13.6669 31.0355H13.7688C15.3467 30.9849 16.5683 29.6658 16.5173 28.0931C16.4666 26.571 15.1939 25.3536 13.6669 25.3536H13.5652C13.4633 25.3536 13.3105 25.3536 13.2089 25.4042C11.1219 21.9544 10.2566 18.2003 10.562 14.1417C10.7655 11.0977 11.7836 8.45955 13.5652 6.27799C15.0413 4.40088 17.8917 3.4877 19.8261 3.43709C25.2216 3.33556 27.512 10.0322 27.6649 12.7211C28.3266 12.8733 29.4464 13.2285 30.21 13.4822C29.5991 5.2636 24.5089 1.00201 19.6225 1.00201C15.0413 1.00201 10.8164 4.29966 9.13656 9.16997C6.79516 15.6637 8.32219 21.9038 11.1727 26.8249C10.9183 27.1799 10.7655 27.7381 10.8164 28.2962V28.296Z" fill="#764ABC"/>
</g>
<defs>
<clipPath id="clip0_209_770">
<rect width="40" height="38" fill="white" transform="translate(0 1)"/>
</clipPath>
</defs>
</svg>
