<svg width="40" height="40" viewBox="0 0 40 40" fill="none" xmlns="http://www.w3.org/2000/svg">
<g clip-path="url(#clip0_209_848)">
<path fill-rule="evenodd" clip-rule="evenodd" d="M23.1354 27.6698C27.0327 27.2096 31.1777 25.7926 31.1777 19.0611C31.1777 17.1478 30.504 15.5886 29.4066 14.3838C29.5837 13.9237 30.15 12.1874 29.193 9.77859C29.193 9.77859 27.7759 9.31781 24.4462 11.5496C23.0291 11.1603 21.4705 10.9119 20.018 10.9119C18.5295 10.9119 16.9702 11.1603 15.5885 11.5496C12.2227 9.31781 10.8057 9.77859 10.8057 9.77859C9.84938 12.1874 10.4164 13.9237 10.5934 14.3838C9.49484 15.5885 8.82172 17.1478 8.82172 19.0611C8.82172 25.7926 12.9668 27.2096 16.8641 27.6698C16.3684 28.0958 15.9077 28.9099 15.7307 30.0438C14.7384 30.4687 12.152 31.2839 10.5934 28.5913C10.5934 28.5913 9.67187 26.9265 7.93617 26.8203C7.93617 26.8203 6.19992 26.7849 7.79453 27.8822C7.79453 27.8822 8.96328 28.4144 9.7432 30.4332C9.7432 30.4332 10.8057 33.7995 15.6947 32.7363V35.7475C15.6947 36.2089 15.3408 36.7398 14.4552 36.5983C7.51086 34.2951 2.51563 27.7052 2.51563 19.982C2.51563 10.3096 10.345 2.48031 20.018 2.48031C29.6545 2.48031 37.5198 10.3097 37.4844 19.982C37.4844 27.7052 32.4886 34.2597 25.5447 36.5983C24.6586 36.7753 24.3046 36.2444 24.3046 35.7475V30.8945C24.3047 29.2638 23.7725 28.202 23.1354 27.6698ZM40 20.018C40 8.96328 31.0362 0 20.018 0C8.96328 0 0 8.96328 0 20.018C0 31.0362 8.96328 40 20.018 40C31.0362 40 40 31.0362 40 20.018Z" fill="#0D2636"/>
</g>
<defs>
<clipPath id="clip0_209_848">
<rect width="40" height="40" fill="white"/>
</clipPath>
</defs>
</svg>
