<svg width="46" height="44" viewBox="0 0 46 44" fill="none" xmlns="http://www.w3.org/2000/svg">
<path d="M22.447 0.0309928C22.361 0.0348387 22.0366 0.0617594 21.724 0.0848343C17.8159 0.369425 13.8532 1.79238 10.6056 4.07679C9.53086 4.83057 8.68281 5.5382 7.73706 6.46889C2.30097 11.8223 0.0616542 19.4831 1.76166 26.9248C2.45729 29.9784 3.94235 33.0512 5.912 35.5202C9.00327 39.4006 13.2396 42.135 17.9918 43.3195C19.9263 43.8041 21.5325 44.0002 23.5608 44.0002C25.5617 44.0002 27.035 43.8233 28.9421 43.3657C31.6817 42.7042 34.089 41.6158 36.4964 39.9583C38.8022 38.3661 40.9477 36.1355 42.4874 33.7319C44.4727 30.6245 45.6022 27.194 45.8796 23.4289C45.9383 22.6367 45.9031 20.6753 45.8171 19.8677C45.6451 18.264 45.2074 16.1488 44.9534 15.7065C44.8518 15.5335 44.5665 15.3104 44.3555 15.2374C44.2812 15.2143 44.1171 15.1951 43.9842 15.1951C43.398 15.1951 42.9056 15.6758 42.9056 16.2411C42.9056 16.3757 42.9681 16.6988 43.058 17.0487C43.8318 20.01 43.8943 23.2636 43.2339 26.2325C42.3897 30.0361 40.5061 33.3896 37.6649 36.1394C36.3401 37.42 35.0621 38.3661 33.409 39.2968C29.5518 41.4697 24.7566 42.2927 20.2585 41.5543C16.8428 40.9966 13.8766 39.7044 11.0589 37.5469C9.73408 36.5316 8.12005 34.8587 7.11959 33.4588C5.39223 31.0437 4.3058 28.4977 3.74304 25.5403C3.45775 24.0327 3.36005 22.0329 3.49292 20.4061C3.69614 17.9371 4.32534 15.645 5.39223 13.4721C5.88465 12.4607 6.18948 11.9338 6.77959 11.0608C7.98327 9.26865 9.57776 7.59187 11.3403 6.26122C13.4076 4.69597 15.8619 3.50761 18.3435 2.86921C19.684 2.52308 20.7548 2.35002 22.1148 2.25388C27.035 1.90775 31.8185 3.29994 35.7148 6.21891C36.004 6.43428 36.3088 6.66887 36.3909 6.74194L36.5394 6.86886L36.4808 7.03038C36.1799 7.86108 36.4026 8.8956 37.0357 9.61862C37.3601 9.98781 37.9463 10.3339 38.4426 10.4493C38.7826 10.5301 39.3727 10.5301 39.7166 10.4493C40.5881 10.2455 41.401 9.51093 41.6589 8.69562C41.9481 7.78416 41.7801 6.88424 41.1861 6.15353C40.5295 5.34591 39.4001 4.98441 38.3566 5.25361L38.13 5.3113L37.8095 5.04978C36.5081 3.9768 34.9332 2.98458 33.2762 2.19619C30.5874 0.915531 27.887 0.22713 24.8113 0.0425303C24.2212 0.0079179 22.826 0.000226295 22.447 0.0309928Z" fill="white"/>
<path d="M20.1335 12.6833C19.7192 13.7371 18.8204 16.0446 18.1286 17.8098C17.4369 19.5751 16.0183 23.2017 14.9748 25.8668C13.9353 28.532 13.0716 30.7241 13.0638 30.7395C13.0521 30.7587 14.1503 30.7702 15.4985 30.7702H17.9567L18.1013 30.3741C18.1834 30.1587 18.4726 29.3973 18.7422 28.6819L19.2346 27.3859H22.9238C25.8627 27.3859 26.613 27.3744 26.6013 27.3359C26.5622 27.2321 25.9604 25.5399 25.6399 24.6361L25.296 23.6747L22.8535 23.6555L20.4149 23.6362L22.0015 19.3328C22.9551 16.7484 23.5999 15.0562 23.6116 15.0947C23.6273 15.1293 24.2604 16.9022 25.0224 19.0328C25.7845 21.1634 27.0429 24.6708 27.8167 26.8283L29.2197 30.751L31.6661 30.7625C33.0105 30.7664 34.1126 30.7625 34.1126 30.7548C34.1126 30.7472 33.796 29.928 33.4052 28.9396C33.0144 27.9474 32.1781 25.813 31.545 24.1939C30.9119 22.5748 30.2006 20.7596 29.9622 20.1558C29.7277 19.552 29.3174 18.5059 29.0516 17.829C28.7859 17.1522 28.0942 15.3793 27.508 13.8871C26.9218 12.3949 26.4098 11.0835 26.3668 10.972L26.2926 10.772H20.8799L20.1335 12.6833Z" fill="white"/>
</svg>
