<svg width="40" height="40" viewBox="0 0 40 40" fill="none" xmlns="http://www.w3.org/2000/svg">
<g clip-path="url(#clip0_209_790)">
<mask id="mask0_209_790" style="mask-type:luminance" maskUnits="userSpaceOnUse" x="1" y="1" width="38" height="38">
<path d="M1 1.04666H38.9533V39H1V1.04666Z" fill="white"/>
</mask>
<g mask="url(#mask0_209_790)">
<path d="M38.2383 18.3334L21.667 1.76331C21.44 1.53617 21.1704 1.35597 20.8738 1.23303C20.5771 1.11009 20.2591 1.04681 19.938 1.04681C19.6168 1.04681 19.2988 1.11009 19.0022 1.23303C18.7055 1.35597 18.436 1.53617 18.209 1.76331L14.7691 5.20479L19.1334 9.56901C19.6464 9.39476 20.1981 9.36755 20.7258 9.49047C21.2536 9.6134 21.7364 9.88154 22.1197 10.2646C22.5051 10.6504 22.7741 11.1369 22.896 11.6684C23.0179 12.2 22.9878 12.7551 22.809 13.2703L27.0167 17.4767C27.532 17.2977 28.0874 17.2676 28.6191 17.3897C29.1508 17.5119 29.6373 17.7814 30.0228 18.1673C30.2929 18.4374 30.5072 18.7579 30.6533 19.1108C30.7995 19.4636 30.8747 19.8418 30.8747 20.2237C30.8747 20.6056 30.7995 20.9837 30.6533 21.3366C30.5072 21.6894 30.2929 22.01 30.0228 22.28C29.4768 22.8254 28.7366 23.1318 27.9648 23.1318C27.1931 23.1318 26.4529 22.8254 25.9069 22.28C25.5012 21.8737 25.2249 21.3565 25.1126 20.7935C25.0003 20.2305 25.057 19.6469 25.2757 19.1161L21.3518 15.1934V25.5183C21.766 25.7229 22.1254 26.0232 22.4004 26.3944C22.6754 26.7655 22.858 27.1969 22.9331 27.6527C23.0082 28.1085 22.9736 28.5756 22.8322 29.0154C22.6909 29.4551 22.4467 29.8549 22.1201 30.1815C21.8501 30.4516 21.5295 30.6658 21.1766 30.812C20.8238 30.9582 20.4456 31.0334 20.0637 31.0334C19.6818 31.0334 19.3037 30.9582 18.9508 30.812C18.598 30.6658 18.2774 30.4516 18.0074 30.1815C17.7373 29.9115 17.523 29.5909 17.3768 29.238C17.2306 28.8852 17.1553 28.5069 17.1553 28.125C17.1553 27.743 17.2306 27.3648 17.3768 27.0119C17.523 26.6591 17.7373 26.3385 18.0074 26.0684C18.2795 25.7958 18.603 25.5797 18.9591 25.4328V15.0129C18.6044 14.8668 18.2821 14.6521 18.0107 14.3812C17.7393 14.1102 17.5241 13.7882 17.3775 13.4338C17.2309 13.0794 17.1558 12.6995 17.1564 12.316C17.157 11.9324 17.2334 11.5528 17.3812 11.1989L13.0781 6.89497L1.71449 18.2557C1.25657 18.7145 0.99939 19.3363 0.99939 19.9845C0.99939 20.6327 1.25657 21.2545 1.71449 21.7133L18.2866 38.2854C18.7454 38.7432 19.3671 39.0003 20.0152 39.0003C20.6633 39.0003 21.285 38.7432 21.7438 38.2854L38.2383 21.791C38.6962 21.3321 38.9534 20.7104 38.9534 20.0622C38.9534 19.4139 38.6962 18.7922 38.2383 18.3334Z" fill="#F03C2E"/>
</g>
</g>
<defs>
<clipPath id="clip0_209_790">
<rect width="38" height="38" fill="white" transform="translate(1 1)"/>
</clipPath>
</defs>
</svg>
