<svg width="32" height="32" viewBox="0 0 32 32" fill="none" xmlns="http://www.w3.org/2000/svg">
<path d="M15.2726 3.02512L2.66303 7.98278C2.36957 8.09985 2.36957 8.51507 2.66303 8.63215L16.0078 13.8786C16.0895 13.9113 16.1806 13.9113 16.2622 13.8786L29.607 8.63215C29.9021 8.51507 29.9021 8.09985 29.607 7.98278L16.9975 3.02512C16.4433 2.80657 15.8268 2.80657 15.2726 3.02512Z" fill="#4D4C78"/>
<path d="M11.5668 7.68933L7.38498 10.4882L11.4997 12.1069L11.5668 7.68933Z" fill="#323150"/>
<path d="M20.7032 7.68933L24.8851 10.4882L20.7719 12.1069L20.7032 7.68933Z" fill="#323150"/>
<path d="M22.3969 17.3081H9.87317L11.033 8.27317C11.0516 8.13294 11.1127 8.00178 11.2082 7.89739C11.3036 7.793 11.4288 7.72039 11.5668 7.68937C14.8948 6.94843 17.9486 6.94374 20.7282 7.67532C20.8605 7.70961 20.9794 7.78286 21.0696 7.88556C21.1598 7.98827 21.2171 8.11569 21.2339 8.25132L22.3969 17.3081Z" fill="#4D4C78"/>
<path d="M13.0076 9.6921C13.026 9.55179 13.0871 9.42052 13.1826 9.31609C13.278 9.21165 13.4033 9.13911 13.5415 9.1083C16.32 8.49015 18.9076 8.38452 21.3042 8.79142L21.234 8.25132C21.2171 8.11569 21.1598 7.98827 21.0696 7.88556C20.9794 7.78286 20.8605 7.70961 20.7282 7.67532C17.9497 6.94374 14.8959 6.94843 11.5668 7.68937C11.4288 7.72039 11.3036 7.793 11.2082 7.89739C11.1127 8.00178 11.0516 8.13294 11.033 8.27317L9.87317 17.3081H12.0304L13.0076 9.6921Z" fill="#323150"/>
<path d="M16.1358 18.0777C19.5937 18.0777 22.3969 17.7332 22.3969 17.3081C22.3969 16.8831 19.5937 16.5386 16.1358 16.5386C12.6779 16.5386 9.87473 16.8831 9.87473 17.3081C9.87473 17.7332 12.6779 18.0777 16.1358 18.0777Z" fill="#323150"/>
<path d="M25.4658 15.872C25.4247 15.8722 25.384 15.8643 25.346 15.8487C25.3081 15.8331 25.2736 15.8101 25.2445 15.781C25.2155 15.752 25.1925 15.7175 25.1769 15.6795C25.1613 15.6416 25.1534 15.6009 25.1536 15.5598V6.69659C25.1536 6.6138 25.1865 6.53439 25.245 6.47584C25.3036 6.41729 25.383 6.3844 25.4658 6.3844C25.5486 6.3844 25.628 6.41729 25.6865 6.47584C25.7451 6.53439 25.778 6.6138 25.778 6.69659V15.5598C25.778 15.6426 25.7451 15.722 25.6865 15.7806C25.628 15.8391 25.5486 15.872 25.4658 15.872Z" fill="#323150"/>
<path d="M25.422 18.9393C25.1353 18.9389 24.8604 18.8248 24.6576 18.622C24.4548 18.4192 24.3407 18.1443 24.3403 17.8575V16.1217C24.3509 15.8421 24.4694 15.5775 24.671 15.3835C24.8726 15.1895 25.1415 15.0811 25.4213 15.0811C25.701 15.0811 25.97 15.1895 26.1715 15.3835C26.3731 15.5775 26.4916 15.8421 26.5022 16.1217V17.8575C26.5018 18.144 26.3879 18.4187 26.1855 18.6214C25.9831 18.8242 25.7085 18.9385 25.422 18.9393Z" fill="#4D4C78"/>
<path d="M24.8851 18.4507V16.7149C24.8848 16.5322 24.9309 16.3524 25.0191 16.1923C25.1072 16.0323 25.2345 15.8972 25.389 15.7998C25.5436 15.7023 25.7203 15.6456 25.9027 15.635C26.0851 15.6245 26.2672 15.6603 26.432 15.7393C26.3431 15.502 26.1736 15.3035 25.9532 15.1786C25.7328 15.0536 25.4754 15.0101 25.2262 15.0557C24.977 15.1013 24.7517 15.233 24.5897 15.4279C24.4278 15.6227 24.3395 15.8683 24.3403 16.1217V17.8575C24.3405 18.0615 24.3984 18.2614 24.5072 18.434C24.616 18.6066 24.7713 18.7449 24.9553 18.8331C24.9088 18.711 24.885 18.5814 24.8851 18.4507Z" fill="#323150"/>
<path d="M28.5268 20.0648C28.4287 19.9325 28.3009 19.825 28.1537 19.751C28.0065 19.6769 27.844 19.6385 27.6792 19.6387H3.75883C3.59409 19.6386 3.43162 19.6771 3.28444 19.7511C3.13725 19.8251 3.00943 19.9326 2.91122 20.0648C1.92677 21.3927 1.92677 22.7206 2.91122 24.0484C3.00943 24.1807 3.13725 24.2881 3.28444 24.3621C3.43162 24.4361 3.59409 24.4746 3.75883 24.4746H27.6792C27.844 24.4748 28.0065 24.4363 28.1537 24.3623C28.3009 24.2883 28.4287 24.1808 28.5268 24.0484C29.5134 22.7206 29.5134 21.3927 28.5268 20.0648Z" fill="#4D4C78"/>
<path d="M29.1465 22.7466H5.22615C5.06139 22.7468 4.89888 22.7083 4.75167 22.6343C4.60446 22.5603 4.47667 22.4528 4.37854 22.3204C3.71565 21.4276 3.49867 20.5336 3.72761 19.6387C3.56831 19.6441 3.41225 19.6851 3.27096 19.7589C3.12966 19.8327 3.00672 19.9372 2.91122 20.0648C1.92677 21.3927 1.92677 22.7206 2.91122 24.0484C3.00943 24.1807 3.13725 24.2881 3.28444 24.3621C3.43162 24.4361 3.59409 24.4746 3.75883 24.4746H27.6792C27.844 24.4748 28.0065 24.4363 28.1537 24.3623C28.3009 24.2883 28.4287 24.1808 28.5268 24.0484C28.8505 23.6145 29.0674 23.1805 29.1778 22.7466H29.1465Z" fill="#3F3E6B"/>
<path d="M8.71805 19.6387H6.76839V24.4749H8.71805V19.6387Z" fill="#323150"/>
<path d="M24.6697 19.6387H22.72V24.4749H24.6697V19.6387Z" fill="#323150"/>
<path d="M20.379 9.96391L20.3775 9.96414C19.8629 10.0383 19.5059 10.5155 19.5801 11.03L20.1571 15.0341C20.2312 15.5486 20.7084 15.9056 21.223 15.8315L21.2245 15.8313C21.739 15.7571 22.096 15.2799 22.0219 14.7654L21.4449 10.7613C21.3708 10.2468 20.8935 9.88977 20.379 9.96391Z" fill="#64639C"/>
<path d="M17.7544 4.47821L17.7538 4.47968C17.5769 4.96849 17.8297 5.50819 18.3185 5.68513L22.1224 7.06211C22.6112 7.23906 23.1509 6.98625 23.3278 6.49744L23.3284 6.49597C23.5053 6.00716 23.2525 5.46746 22.7637 5.29052L18.9598 3.91354C18.471 3.73659 17.9313 3.98941 17.7544 4.47821Z" fill="#64639C"/>
<path d="M26.4788 16.7399C26.4788 16.4951 26.2803 16.2966 26.0355 16.2966C25.7907 16.2966 25.5922 16.4951 25.5922 16.7399V17.6349C25.5922 17.8797 25.7907 18.0782 26.0355 18.0782C26.2803 18.0782 26.4788 17.8797 26.4788 17.6349V16.7399Z" fill="#64639C"/>
<path d="M20.0414 23.9423C20.0414 24.3778 19.4107 24.7087 19.2827 25.1005C19.1547 25.4923 19.4622 26.1448 19.2156 26.4836C18.969 26.8223 18.2634 26.7239 17.9216 26.9737C17.5797 27.2235 17.4626 27.9212 17.0552 28.0539C16.6478 28.1866 16.1545 27.6886 15.719 27.6886C15.2835 27.6886 14.7762 28.1819 14.3844 28.0539C13.9926 27.9259 13.8568 27.2203 13.518 26.9737C13.1793 26.7271 12.4722 26.8254 12.224 26.4836C11.9758 26.1417 12.288 25.5079 12.1569 25.1005C12.0258 24.6931 11.3982 24.3778 11.3982 23.9423C11.3982 23.5068 12.0289 23.1774 12.1569 22.7856C12.2849 22.3938 11.9774 21.7413 12.224 21.4026C12.4706 21.0638 13.1762 21.1606 13.518 20.9124C13.8599 20.6642 13.977 19.9634 14.3844 19.8322C14.7918 19.7011 15.2851 20.1975 15.719 20.1975C16.153 20.1975 16.6634 19.7042 17.0552 19.8322C17.447 19.9602 17.5828 20.6658 17.9216 20.9124C18.2603 21.1591 18.9674 21.0607 19.2156 21.4026C19.4638 21.7444 19.15 22.3782 19.2827 22.7856C19.4154 23.193 20.0414 23.5083 20.0414 23.9423Z" fill="#F4C23F"/>
<path d="M15.6191 27.0392C15.0601 27.0387 14.5138 26.8726 14.0492 26.5619C13.5846 26.2511 13.2224 25.8097 13.0084 25.2933C12.7945 24.7769 12.7384 24.2086 12.8471 23.6603C12.9559 23.112 13.2247 22.6083 13.6195 22.2126C13.8778 21.9551 14.183 21.7495 14.5186 21.607C15.037 21.3878 15.6089 21.3283 16.1612 21.4362C16.7135 21.544 17.2211 21.8142 17.6189 22.2122C18.0167 22.6102 18.2867 23.1179 18.3943 23.6702C18.5019 24.2226 18.4422 24.7945 18.2228 25.3127C18.0065 25.8245 17.6442 26.2612 17.1811 26.5683C16.7181 26.8753 16.1748 27.0391 15.6191 27.0392Z" fill="#F4A93F"/>
<path d="M17.4111 24.8273C17.3855 24.7705 17.3385 24.7261 17.2803 24.7039C17.2221 24.6816 17.1574 24.6834 17.1005 24.7087L15.3647 25.4891C15.3409 25.5006 15.3188 25.5153 15.2991 25.5329C15.2794 25.5153 15.2573 25.5006 15.2336 25.4891L13.4978 24.7087C13.4408 24.6834 13.3762 24.6816 13.3179 24.7039C13.2597 24.7261 13.2127 24.7705 13.1871 24.8273L12.3817 26.6209C12.6954 26.8019 13.2324 26.766 13.518 26.9736C13.8458 27.2125 13.9692 27.8759 14.3454 28.0398L15.2991 25.9184L16.1452 27.7994C16.462 27.9368 16.7867 28.1412 17.0552 28.0538C17.4626 27.9211 17.5828 27.2203 17.9216 26.9736C18.0246 26.8987 18.1604 26.855 18.3071 26.8222L17.4111 24.8273Z" fill="#F4A93F"/>
<path d="M13.9145 29.0201L13.504 28.2927C13.4794 28.2489 13.4414 28.2142 13.3956 28.1937C13.3498 28.1732 13.2986 28.1679 13.2496 28.1787L12.4332 28.3535C12.3907 28.3624 12.3466 28.3594 12.3057 28.3449C12.2649 28.3303 12.2288 28.3048 12.2015 28.271C12.1743 28.2373 12.1568 28.1967 12.1512 28.1537C12.1455 28.1107 12.1518 28.067 12.1694 28.0273L13.6086 24.8273C13.6342 24.7705 13.6812 24.7261 13.7394 24.7039C13.7976 24.6816 13.8623 24.6834 13.9192 24.7087L15.655 25.4891C15.7113 25.5153 15.755 25.5625 15.7769 25.6206C15.7988 25.6786 15.7971 25.743 15.7721 25.7998L14.3329 28.9998C14.3153 29.0396 14.2871 29.0737 14.2512 29.0983C14.2154 29.1229 14.1734 29.1371 14.13 29.1392C14.0865 29.1413 14.0434 29.1313 14.0053 29.1102C13.9673 29.0892 13.9358 29.058 13.9145 29.0201Z" fill="#DE3226"/>
<path d="M14.1112 25.4142C14.138 25.3563 14.1531 25.2937 14.1557 25.23C14.1583 25.1662 14.1482 25.1026 14.1262 25.0427C14.1042 24.9829 14.0705 24.9279 14.0273 24.881C13.984 24.8342 13.9319 24.7963 13.8739 24.7696L13.735 24.7056C13.6784 24.7278 13.6329 24.7716 13.6086 24.8273L12.1694 28.0273C12.1518 28.067 12.1455 28.1107 12.1512 28.1537C12.1568 28.1967 12.1743 28.2373 12.2015 28.2711C12.2288 28.3048 12.2649 28.3304 12.3057 28.3449C12.3466 28.3595 12.3907 28.3625 12.4332 28.3536L12.7859 28.2771L14.1112 25.4142Z" fill="#B11A31"/>
<path d="M17.5251 29.0201L17.9356 28.2927C17.9602 28.2489 17.9982 28.2142 18.044 28.1937C18.0898 28.1732 18.141 28.1679 18.19 28.1787L19.0064 28.3535C19.0489 28.3624 19.093 28.3594 19.1339 28.3449C19.1747 28.3303 19.2108 28.3048 19.2381 28.271C19.2653 28.2373 19.2828 28.1967 19.2884 28.1537C19.2941 28.1107 19.2878 28.067 19.2702 28.0273L17.831 24.8273C17.8054 24.7705 17.7584 24.7261 17.7002 24.7039C17.642 24.6816 17.5773 24.6834 17.5204 24.7087L15.7846 25.4891C15.728 25.515 15.684 25.5622 15.6621 25.6204C15.6402 25.6785 15.6421 25.743 15.6675 25.7998L17.1052 28.9998C17.123 29.0395 17.1514 29.0735 17.1874 29.0981C17.2234 29.1226 17.2654 29.1367 17.3089 29.1388C17.3524 29.1409 17.3956 29.1309 17.4338 29.11C17.4719 29.089 17.5035 29.0579 17.5251 29.0201Z" fill="#DE3226"/>
<path d="M16.2357 25.6593L15.7097 25.8934L17.1052 28.9998C17.123 29.0395 17.1514 29.0735 17.1874 29.0981C17.2233 29.1226 17.2654 29.1367 17.3089 29.1388C17.3524 29.1409 17.3956 29.131 17.4338 29.11C17.4719 29.089 17.5035 29.0579 17.5251 29.0201L17.6421 28.8125L16.2357 25.6593Z" fill="#B11A31"/>
<path d="M15.655 25.4891L13.9192 24.7087C13.8623 24.6834 13.7976 24.6816 13.7394 24.7039C13.6812 24.7261 13.6342 24.7705 13.6086 24.8273L13.2152 25.6999C13.4341 26.0526 13.7277 26.353 14.0754 26.5798C14.4231 26.8067 14.8163 26.9544 15.2273 27.0127L15.7721 25.7998C15.7971 25.743 15.7988 25.6786 15.7769 25.6206C15.7551 25.5625 15.7113 25.5153 15.655 25.4891Z" fill="#B11A31"/>
<path d="M18.1354 25.5016L17.831 24.8273C17.8054 24.7705 17.7584 24.7261 17.7002 24.7039C17.642 24.6816 17.5773 24.6834 17.5204 24.7087L15.7846 25.4891C15.728 25.515 15.684 25.5622 15.6621 25.6204C15.6402 25.6785 15.6421 25.743 15.6675 25.7998L16.1967 26.9799C16.3759 26.9423 16.551 26.8875 16.7196 26.816C17.3301 26.556 17.8309 26.0912 18.1354 25.5016Z" fill="#B11A31"/>
<path d="M15.719 26.5194C17.1803 26.5194 18.3649 25.3348 18.3649 23.8735C18.3649 22.4123 17.1803 21.2277 15.719 21.2277C14.2578 21.2277 13.0732 22.4123 13.0732 23.8735C13.0732 25.3348 14.2578 26.5194 15.719 26.5194Z" fill="#F8881B"/>
<path d="M15.719 26.2103C17.0096 26.2103 18.0558 25.1641 18.0558 23.8735C18.0558 22.583 17.0096 21.5367 15.719 21.5367C14.4285 21.5367 13.3822 22.583 13.3822 23.8735C13.3822 25.1641 14.4285 26.2103 15.719 26.2103Z" fill="#F08000"/>
<path d="M15.719 25.9481C16.8648 25.9481 17.7936 25.0193 17.7936 23.8736C17.7936 22.7279 16.8648 21.7991 15.719 21.7991C14.5733 21.7991 13.6445 22.7279 13.6445 23.8736C13.6445 25.0193 14.5733 25.9481 15.719 25.9481Z" fill="#F4C23F"/>
<path d="M17.5672 20.8156C17.6254 20.7815 17.6758 20.7358 17.7155 20.6813C17.511 20.3722 17.369 19.9336 17.0552 19.8322C16.9475 19.7962 16.832 19.8087 16.7102 19.8446C16.6735 19.9154 16.6553 19.9943 16.6572 20.0739C16.6591 20.1536 16.6811 20.2315 16.7212 20.3004L16.9179 20.6423C16.9812 20.7512 17.085 20.8306 17.2067 20.8631C17.3285 20.8956 17.4581 20.8785 17.5672 20.8156Z" fill="#FAD564"/>
<path d="M15.73 20.3535C15.762 20.3045 15.7847 20.25 15.7971 20.1927C15.7712 20.1959 15.7451 20.1974 15.719 20.1974C15.3381 20.1974 14.8995 19.8165 14.5327 19.8103C14.52 19.8995 14.5329 19.9904 14.5699 20.0725C14.607 20.1546 14.6666 20.2245 14.7419 20.2739L15.0728 20.4909C15.1782 20.5595 15.3066 20.5835 15.4297 20.5578C15.5528 20.532 15.6608 20.4586 15.73 20.3535Z" fill="#FAD564"/>
<path d="M19.2827 22.7856C19.1501 22.3782 19.4622 21.7413 19.2156 21.4026C19.0611 21.1887 18.727 21.1482 18.4164 21.0873C18.3319 21.2274 18.2952 21.3912 18.3118 21.554L18.3727 22.1909C18.3823 22.2916 18.4116 22.3894 18.459 22.4787C18.5064 22.568 18.571 22.6471 18.6489 22.7115C18.7269 22.7758 18.8169 22.8242 18.9136 22.8538C19.0102 22.8834 19.1118 22.8936 19.2125 22.884C19.2477 22.8806 19.2827 22.8749 19.3171 22.8668C19.3037 22.8406 19.2922 22.8135 19.2827 22.7856Z" fill="#FAD564"/>
<path d="M14.9232 27.6811C15.0045 27.505 14.9277 27.2963 14.7517 27.2149C14.5756 27.1336 14.3669 27.2104 14.2855 27.3865L14.0182 27.9649C13.9369 28.141 14.0137 28.3497 14.1898 28.431C14.3658 28.5124 14.5745 28.4356 14.6559 28.2595L14.9232 27.6811Z" fill="#F44533"/>
<path d="M18.5836 26.5056C18.5047 26.3284 18.2971 26.2487 18.1199 26.3276C17.9427 26.4065 17.863 26.6141 17.9419 26.7913L18.2011 27.3734C18.28 27.5506 18.4876 27.6303 18.6648 27.5514C18.842 27.4725 18.9217 27.2649 18.8428 27.0877L18.5836 26.5056Z" fill="#F44533"/>
<path d="M27.0189 19.6387H25.5797C25.1961 19.6387 24.8851 19.9497 24.8851 20.3333V20.3341C24.8851 20.7177 25.1961 21.0287 25.5797 21.0287H27.0189C27.4026 21.0287 27.7136 20.7177 27.7136 20.3341V20.3333C27.7136 19.9497 27.4026 19.6387 27.0189 19.6387Z" fill="#64639C"/>
<path d="M21.5227 19.6387H20.0835C19.6999 19.6387 19.3889 19.9497 19.3889 20.3333V20.3341C19.3889 20.7177 19.6999 21.0287 20.0835 21.0287H21.5227C21.9064 21.0287 22.2174 20.7177 22.2174 20.3341V20.3333C22.2174 19.9497 21.9064 19.6387 21.5227 19.6387Z" fill="#64639C"/>
<path d="M5.65541 19.6387H4.86712C4.48348 19.6387 4.17249 19.9497 4.17249 20.3333V20.3341C4.17249 20.7177 4.48348 21.0287 4.86712 21.0287H5.65541C6.03905 21.0287 6.35005 20.7177 6.35005 20.3341V20.3333C6.35005 19.9497 6.03905 19.6387 5.65541 19.6387Z" fill="#64639C"/>
</svg>
