<svg width="48" height="48" viewBox="0 0 48 48" fill="none" xmlns="http://www.w3.org/2000/svg">
<g clip-path="url(#clip0_120_1697)">
<path fill-rule="evenodd" clip-rule="evenodd" d="M27.7625 33.2038C32.4392 32.6515 37.4133 30.9511 37.4133 22.8733C37.4133 20.5774 36.6048 18.7063 35.288 17.2606C35.5004 16.7084 36.18 14.6249 35.0317 11.7343C35.0317 11.7343 33.3311 11.1814 29.3355 13.8595C27.635 13.3924 25.7646 13.0942 24.0216 13.0942C22.2353 13.0942 20.3643 13.3924 18.7062 13.8595C14.6673 11.1814 12.9668 11.7343 12.9668 11.7343C11.8193 14.6249 12.4997 16.7084 12.712 17.2606C11.3938 18.7062 10.5861 20.5774 10.5861 22.8733C10.5861 30.9511 15.5602 32.6515 20.2369 33.2038C19.6421 33.7149 19.0893 34.6919 18.8768 36.0526C17.686 36.5624 14.5823 37.5407 12.712 34.3096C12.712 34.3096 11.6062 32.3118 9.52341 32.1844C9.52341 32.1844 7.43991 32.1419 9.35344 33.4586C9.35344 33.4586 10.7559 34.0973 11.6918 36.5198C11.6918 36.5198 12.9668 40.5594 18.8336 39.2836V42.897C18.8336 43.4507 18.4089 44.0878 17.3463 43.9179C9.01303 41.1541 3.01875 33.2462 3.01875 23.9784C3.01875 12.3715 12.414 2.97637 24.0216 2.97637C35.5853 2.97637 45.0237 12.3716 44.9812 23.9784C44.9812 33.2462 38.9863 41.1116 30.6536 43.9179C29.5903 44.1304 29.1655 43.4932 29.1655 42.897V37.0734C29.1656 35.1166 28.527 33.8423 27.7625 33.2038ZM48 24.0216C48 10.7559 37.2434 0 24.0216 0C10.7559 0 0 10.7559 0 24.0216C0 37.2434 10.7559 48 24.0216 48C37.2434 48 48 37.2434 48 24.0216Z" fill="white"/>
</g>
<defs>
<clipPath id="clip0_120_1697">
<rect width="48" height="48" fill="white"/>
</clipPath>
</defs>
</svg>
