<svg width="40" height="40" viewBox="0 0 40 40" fill="none" xmlns="http://www.w3.org/2000/svg">
<g clip-path="url(#clip0_209_773)">
<path d="M4.27111 11.0643C1.10579 15.5997 1.50003 21.4998 3.91162 26.3131L4.08897 26.6562L4.2088 26.8733C4.23096 26.9155 4.25673 26.9571 4.2795 26.9982C4.32144 27.0744 4.36338 27.1477 4.39933 27.2228L4.63 27.6175L4.76181 27.8345L5.02963 28.2521L5.14947 28.428C5.2693 28.6157 5.4047 28.8022 5.53772 28.9864C5.54071 28.9911 5.54491 28.9964 5.5485 29.0011C5.56947 29.0304 5.59284 29.0597 5.60842 29.089C5.72345 29.2474 5.84808 29.4034 5.96791 29.5582L6.10092 29.7271L6.42746 30.1271L6.55208 30.2761C6.7006 30.4516 6.85241 30.6245 7.00744 30.7946L7.01702 30.8039C7.02302 30.8116 7.02901 30.8157 7.035 30.8233C7.1852 30.9891 7.33942 31.1514 7.49754 31.3101L7.64613 31.459L8.01581 31.8203L8.1668 31.9634C8.33293 32.1193 8.50172 32.2724 8.67308 32.4227L8.76895 32.5048L9.2285 32.8919L9.41903 33.0432L9.80248 33.3364L10.0074 33.4918L10.5934 33.9112C10.6083 33.9212 10.6215 33.9317 10.6365 33.9417C10.7743 34.0355 10.9139 34.1264 11.0541 34.2173L11.2351 34.3376L11.8893 34.7364L12.0703 34.8378L12.5616 35.1123C12.6515 35.1604 12.7431 35.2062 12.833 35.2519L13.1841 35.4279L13.265 35.4666L13.4088 35.5358L13.966 35.7927L14.084 35.8513C14.2989 35.9448 14.5154 36.0346 14.7335 36.1205L14.8917 36.1827L15.5046 36.4091L15.5813 36.436C15.8077 36.5142 16.0354 36.5885 16.2643 36.6589L16.4291 36.7082C16.6688 36.7786 16.8935 36.8624 17.1343 36.9076C32.4415 39.6969 36.889 27.743 36.889 27.743C33.1545 32.5933 26.526 33.8719 20.2457 32.4485C20.0078 32.3898 19.7772 32.3212 19.5447 32.2526L19.3698 32.1939C19.1433 32.1247 18.918 32.0514 18.6951 31.9752L18.6022 31.9417C18.4028 31.8714 18.2045 31.798 18.0073 31.7218L17.8395 31.6561C17.6238 31.5712 17.4096 31.4825 17.1972 31.3898L17.069 31.3335L16.5274 31.0813L16.3716 31.0063C16.2309 30.9371 16.0911 30.8661 15.9522 30.7934L15.6724 30.6468C15.5033 30.5561 15.3359 30.4624 15.1703 30.3658L15.0007 30.272C14.7802 30.143 14.5622 30.0081 14.3465 29.8732C14.2865 29.835 14.229 29.7946 14.1697 29.7559L13.7042 29.4474L13.5544 29.3418L13.114 29.0251L12.9187 28.8785L12.5214 28.5688L12.3441 28.428L11.8498 28.0175C11.833 28.0028 11.8138 27.9882 11.7899 27.9723C11.6137 27.8181 11.4406 27.6597 11.2698 27.5008L11.1236 27.36L10.7497 26.9952L10.6036 26.8486C10.4478 26.6902 10.295 26.5291 10.1452 26.3653C10.138 26.3571 10.1296 26.3495 10.1224 26.3419C9.96407 26.1688 9.80906 25.9928 9.65749 25.814L9.53586 25.6698L9.20034 25.2575L9.07751 25.105L8.69106 24.5918C5.20399 19.85 3.95775 13.3106 6.73782 7.93945L4.27111 11.0643ZM14.0972 7.2427C11.8084 10.5271 11.9325 14.9223 13.7179 18.3955C14.0166 18.9787 14.3549 19.5416 14.7305 20.0805C15.0732 20.5702 15.4537 21.1538 15.909 21.5467C16.0738 21.7227 16.2464 21.8986 16.4225 22.0781C16.4669 22.1232 16.5124 22.166 16.5579 22.2112C16.7289 22.3773 16.9039 22.5395 17.0828 22.6974C17.09 22.7033 17.0966 22.7103 17.1044 22.7162C17.3058 22.8914 17.5118 23.0615 17.7221 23.2264L17.8611 23.3343C18.0705 23.4955 18.2843 23.6512 18.5022 23.8012C18.508 23.8059 18.514 23.8104 18.5202 23.8147C18.616 23.881 18.7149 23.9437 18.8125 24.0071C18.8593 24.0375 18.9036 24.0698 18.9503 24.0985C19.1066 24.1987 19.265 24.2954 19.4255 24.3889L19.4926 24.4276L19.912 24.6622C19.9611 24.6897 20.0114 24.7138 20.0618 24.7396L20.3613 24.8909C20.3763 24.8985 20.3913 24.9044 20.4057 24.9114C20.6076 25.0111 20.8107 25.105 21.0186 25.1959C21.063 25.2152 21.1085 25.2328 21.154 25.2516C21.32 25.322 21.4878 25.39 21.6573 25.4551L21.873 25.5337C22.0259 25.5894 22.1797 25.6428 22.3344 25.6938L22.5429 25.7601C22.7628 25.8287 22.9802 25.9143 23.2097 25.9525C35.028 27.9043 37.7571 18.8324 37.7571 18.8324C35.2976 22.3631 30.535 24.0487 25.4517 22.7338C25.2269 22.6753 25.0037 22.6108 24.7825 22.5402C24.7148 22.5197 24.6483 22.498 24.5812 22.4816C24.4242 22.4308 24.2682 22.3773 24.1132 22.3209L23.9017 22.2423C23.7322 22.1836 23.5644 22.1103 23.3985 22.04C23.3529 22.0206 23.3074 22.003 23.2624 21.9825C23.0539 21.8932 22.8481 21.7979 22.6453 21.6969C22.5411 21.6458 22.4386 21.5925 22.3362 21.5397L22.1576 21.4482C22.0258 21.3773 21.8954 21.3039 21.7664 21.2282L21.6729 21.1696C21.5133 21.0762 21.3555 20.98 21.1996 20.881C21.1516 20.8505 21.1049 20.8224 21.057 20.786L20.7502 20.5837C20.5335 20.4335 20.3205 20.2783 20.1115 20.118L19.9677 20.0054C17.7431 18.2541 15.9791 15.8612 15.1409 13.1475C14.262 10.3324 14.4519 7.17408 15.9797 4.61051L14.0972 7.2427ZM22.3595 4.38765C21.0102 6.36765 20.8778 8.82623 21.8203 11.0127C22.8077 13.3334 24.831 15.1545 27.1923 16.0172C27.2893 16.0536 27.387 16.0859 27.4919 16.1187L27.6213 16.1598C27.7603 16.2032 27.8987 16.2536 28.0419 16.2806C34.5679 17.5374 36.3378 12.9423 36.8087 12.266C35.2581 14.4918 32.6524 15.0261 29.4553 14.2525C29.2036 14.1909 28.925 14.1 28.6764 14.0144C28.3635 13.9036 28.0569 13.7765 27.7579 13.6337C27.1889 13.3606 26.6494 13.0323 26.1474 12.6537C23.2804 10.4895 21.5027 6.36179 23.3697 3" fill="#0868AC"/>
</g>
<defs>
<clipPath id="clip0_209_773">
<rect width="36" height="35" fill="white" transform="translate(2 3)"/>
</clipPath>
</defs>
</svg>
