<svg width="42" height="42" viewBox="0 0 42 42" fill="none" xmlns="http://www.w3.org/2000/svg">
<path d="M21 3.9375C21.3481 3.9375 21.6819 4.07578 21.9281 4.32192C22.1742 4.56806 22.3125 4.9019 22.3125 5.25V9.1875C22.3125 9.5356 22.1742 9.86944 21.9281 10.1156C21.6819 10.3617 21.3481 10.5 21 10.5C20.6519 10.5 20.3181 10.3617 20.0719 10.1156C19.8258 9.86944 19.6875 9.5356 19.6875 9.1875V5.25C19.6875 4.9019 19.8258 4.56806 20.0719 4.32192C20.3181 4.07578 20.6519 3.9375 21 3.9375ZM13.125 21C13.125 18.9114 13.9547 16.9084 15.4315 15.4315C16.9084 13.9547 18.9114 13.125 21 13.125C23.0886 13.125 25.0916 13.9547 26.5685 15.4315C28.0453 16.9084 28.875 18.9114 28.875 21C28.875 23.0886 28.0453 25.0916 26.5685 26.5685C25.0916 28.0453 23.0886 28.875 21 28.875C18.9114 28.875 16.9084 28.0453 15.4315 26.5685C13.9547 25.0916 13.125 23.0886 13.125 21ZM33.0645 10.7905C33.2963 10.5417 33.4226 10.2126 33.4166 9.87259C33.4106 9.53256 33.2728 9.20813 33.0323 8.96766C32.7919 8.72719 32.4674 8.58944 32.1274 8.58344C31.7874 8.57744 31.4583 8.70366 31.2095 8.9355L28.4253 11.718C28.2998 11.839 28.1998 11.9838 28.1309 12.1439C28.0621 12.304 28.0258 12.4762 28.0242 12.6505C28.0226 12.8247 28.0557 12.9976 28.1216 13.1589C28.1875 13.3202 28.2849 13.4668 28.4081 13.5901C28.5313 13.7134 28.6778 13.8109 28.839 13.877C29.0003 13.9431 29.1731 13.9764 29.3474 13.9749C29.5217 13.9735 29.6939 13.9374 29.8541 13.8687C30.0142 13.8 30.1591 13.7 30.2802 13.5747L33.0645 10.7905ZM38.0625 21C38.0625 21.3481 37.9242 21.6819 37.6781 21.9281C37.4319 22.1742 37.0981 22.3125 36.75 22.3125H32.8125C32.4644 22.3125 32.1306 22.1742 31.8844 21.9281C31.6383 21.6819 31.5 21.3481 31.5 21C31.5 20.6519 31.6383 20.3181 31.8844 20.0719C32.1306 19.8258 32.4644 19.6875 32.8125 19.6875H36.75C37.0981 19.6875 37.4319 19.8258 37.6781 20.0719C37.9242 20.3181 38.0625 20.6519 38.0625 21ZM31.2095 33.0645C31.4583 33.2963 31.7874 33.4226 32.1274 33.4166C32.4674 33.4106 32.7919 33.2728 33.0323 33.0323C33.2728 32.7919 33.4106 32.4674 33.4166 32.1274C33.4226 31.7874 33.2963 31.4583 33.0645 31.2095L30.282 28.4253C30.161 28.2998 30.0162 28.1998 29.8561 28.1309C29.696 28.0621 29.5238 28.0258 29.3495 28.0242C29.1753 28.0226 29.0024 28.0557 28.8411 28.1216C28.6797 28.1875 28.5332 28.2849 28.4099 28.4081C28.2866 28.5313 28.1891 28.6778 28.123 28.839C28.0569 29.0003 28.0236 29.1731 28.0251 29.3474C28.0265 29.5217 28.0626 29.6939 28.1313 29.8541C28.2 30.0142 28.3 30.1591 28.4253 30.2802L31.2095 33.0645ZM21 31.5C21.3481 31.5 21.6819 31.6383 21.9281 31.8844C22.1742 32.1306 22.3125 32.4644 22.3125 32.8125V36.75C22.3125 37.0981 22.1742 37.4319 21.9281 37.6781C21.6819 37.9242 21.3481 38.0625 21 38.0625C20.6519 38.0625 20.3181 37.9242 20.0719 37.6781C19.8258 37.4319 19.6875 37.0981 19.6875 36.75V32.8125C19.6875 32.4644 19.8258 32.1306 20.0719 31.8844C20.3181 31.6383 20.6519 31.5 21 31.5ZM13.5765 30.2802C13.8155 30.0326 13.9476 29.701 13.9445 29.3569C13.9413 29.0127 13.8031 28.6836 13.5597 28.4404C13.3162 28.1971 12.9869 28.0593 12.6428 28.0564C12.2987 28.0536 11.9672 28.186 11.7198 28.4253L8.9355 31.2078C8.6963 31.4552 8.56385 31.7867 8.56667 32.1308C8.5695 32.4749 8.70738 32.8042 8.95061 33.0476C9.19385 33.2911 9.52298 33.4293 9.86711 33.4325C10.2112 33.4356 10.5428 33.3035 10.7905 33.0645L13.5747 30.282L13.5765 30.2802ZM10.5 21C10.5 21.3481 10.3617 21.6819 10.1156 21.9281C9.86944 22.1742 9.5356 22.3125 9.1875 22.3125H5.25C4.9019 22.3125 4.56806 22.1742 4.32192 21.9281C4.07578 21.6819 3.9375 21.3481 3.9375 21C3.9375 20.6519 4.07578 20.3181 4.32192 20.0719C4.56806 19.8258 4.9019 19.6875 5.25 19.6875H9.1875C9.5356 19.6875 9.86944 19.8258 10.1156 20.0719C10.3617 20.3181 10.5 20.6519 10.5 21ZM11.7198 13.5747C11.9686 13.8066 12.2976 13.9328 12.6377 13.9268C12.9777 13.9208 13.3021 13.7831 13.5426 13.5426C13.7831 13.3021 13.9208 12.9777 13.9268 12.6377C13.9328 12.2976 13.8066 11.9686 13.5747 11.7198L10.7922 8.9355C10.5448 8.6963 10.2133 8.56385 9.86921 8.56667C9.52507 8.5695 9.19581 8.70738 8.95235 8.95061C8.70889 9.19385 8.5707 9.52298 8.56755 9.86711C8.56439 10.2112 8.69653 10.5428 8.9355 10.7905L11.7198 13.5747Z" fill="white"/>
</svg>
