<svg width="40" height="40" viewBox="0 0 40 40" fill="none" xmlns="http://www.w3.org/2000/svg">
<path d="M9.0192 3H30.9808C34.3135 3 37 5.76241 37 9.17357V30.8264C37 34.2446 34.3067 37 30.9808 37H9.0192C5.68654 37 3 34.2376 3 30.8264V9.17357C3 5.75543 5.69334 3 9.0192 3Z" fill="#470137"/>
<path d="M20.7117 12.1981L16.8608 18.7866L20.9705 25.7777C20.9952 25.8288 21.0075 25.8863 20.9952 25.9374C20.9828 25.9886 20.9336 25.9502 20.8535 25.963H17.9144C17.7111 25.963 17.5694 25.9502 17.4769 25.816C17.2058 25.2537 16.9224 24.7105 16.6575 24.1545C16.3863 23.6113 16.0906 23.049 15.7825 22.4738C15.4744 21.8987 15.1664 21.33 14.8583 20.7421H14.8336C14.5625 21.3172 14.2668 21.8859 13.971 22.4611C13.6753 23.0362 13.3795 23.6049 13.0961 24.1673C12.8003 24.7297 12.5046 25.2984 12.2088 25.848C12.1595 25.9822 12.0548 25.9949 11.9131 25.9949H9.09726C9.04797 25.9949 9.00483 26.0205 9.00483 25.9566C8.99251 25.9055 9.00483 25.848 9.02948 25.8096L13.0221 19.0103L9.13423 12.1853C9.09726 12.1342 9.08493 12.0767 9.10958 12.0511C9.13423 12.0128 9.18968 12 9.23897 12H12.1534C12.215 12 12.2828 12.0128 12.3321 12.0256C12.3814 12.0511 12.4245 12.0895 12.4615 12.147C12.7079 12.7221 12.9852 13.2909 13.2809 13.866C13.589 14.4411 13.8848 14.9971 14.2052 15.5594C14.5132 16.1154 14.7967 16.6778 15.0678 17.2529H15.0924C15.3635 16.665 15.647 16.0962 15.9242 15.5339C16.2077 14.9779 16.5034 14.4156 16.7992 13.8532C17.0949 13.2972 17.3783 12.7221 17.6618 12.1789C17.6741 12.1278 17.6987 12.0703 17.7419 12.0447C17.7912 12.0192 17.8466 12.0064 17.9082 12.0192H20.6193C20.6809 12.0064 20.7487 12.0447 20.761 12.115C20.7672 12.115 20.7364 12.1725 20.7117 12.1981Z" fill="#FF61F6"/>
<path d="M26.632 26.9994C25.6442 27.0127 24.6565 26.807 23.7585 26.3757C22.9183 25.9776 22.2191 25.3141 21.7381 24.4979C21.2442 23.6553 21.0005 22.6069 21.0005 21.3462C20.9876 20.3244 21.2442 19.3159 21.7381 18.4268C22.2448 17.531 22.9824 16.7813 23.8611 16.2836C24.7976 15.7462 25.9201 15.4808 27.2414 15.4808C27.3055 15.4808 27.4017 15.4808 27.5236 15.494C27.6454 15.5073 27.7801 15.5073 27.9405 15.5206V11.1547C27.9405 11.0551 27.979 11.0021 28.0752 11.0021H30.7883C30.8525 10.9888 30.9102 11.0419 30.923 11.1016C30.923 11.1149 30.923 11.1281 30.923 11.1281V24.2856C30.923 24.5378 30.9359 24.8098 30.9487 25.115C30.9743 25.407 30.9872 25.679 31 25.9179C31 26.0174 30.9615 26.097 30.8653 26.1368C30.1726 26.442 29.435 26.661 28.6845 26.8003C28.0046 26.9264 27.3247 26.9994 26.632 26.9994ZM27.9405 24.2325V18.1481C27.8186 18.1216 27.6968 18.095 27.5813 18.0818C27.4338 18.0685 27.2863 18.0552 27.1387 18.0552C26.6192 18.0552 26.0932 18.168 25.6314 18.4135C25.176 18.6457 24.7912 18.9908 24.4961 19.4353C24.2011 19.8799 24.0536 20.4704 24.0536 21.1936C24.0407 21.678 24.1177 22.1624 24.2781 22.6202C24.4127 22.9918 24.6116 23.3235 24.881 23.6022C25.1375 23.8543 25.4454 24.0468 25.7918 24.1529C26.151 24.279 26.5294 24.3321 26.9014 24.3321C27.1002 24.3321 27.2863 24.3188 27.4658 24.3055C27.6326 24.3188 27.7801 24.2856 27.9405 24.2325Z" fill="#FF61F6"/>
</svg>
