<svg width="46" height="46" viewBox="0 0 46 46" fill="none" xmlns="http://www.w3.org/2000/svg">
<g clip-path="url(#clip0_69_5845)">
<path d="M34.8594 11.6071L33.1035 11.5309C27.7969 11.5309 24.3613 14.3556 22.453 17.6388L17.8336 25.8082C16.6118 27.7488 14.9708 28.5948 12.7564 28.5948C9.58812 28.5948 6.992 26.1898 6.992 23.2501C6.992 20.3104 9.58812 17.9055 12.7564 17.9055C14.6266 17.9055 16.0015 18.4086 17.1084 19.6305L20.5059 14.0192C18.2263 12.3792 15.4885 11.4979 12.6802 11.5C5.68819 11.4935 0 16.7232 0 23.2128C0 28.6717 4.04656 33.2523 9.54356 34.5503C10.5354 34.7803 11.6049 34.9313 12.6737 34.9313H12.9411C17.1098 34.8551 21.0723 33.5189 23.0194 30.0078L28.1348 20.8078C29.0893 19.32 29.9676 18.6703 31.303 18.2505C31.9139 18.0593 32.563 17.945 33.2436 17.945C36.4119 17.945 39.008 20.35 39.008 23.2897C39.008 26.2293 36.4191 28.6415 33.2508 28.6415C30.6547 28.6415 29.0519 27.9924 27.5245 26.0842L24.2413 31.4748C26.5319 33.6504 29.7757 35.0254 33.3263 35.0254C40.3125 35.0254 46 29.7958 46 23.3062C46.0381 17.2744 41.152 12.3122 34.8594 11.6251V11.6071Z" fill="#3B72B9"/>
</g>
<defs>
<clipPath id="clip0_69_5845">
<rect width="46" height="46" fill="white"/>
</clipPath>
</defs>
</svg>
