<svg width="40" height="40" viewBox="0 0 40 40" fill="none" xmlns="http://www.w3.org/2000/svg">
<g clip-path="url(#clip0_209_752)">
<path d="M19.9942 0C31.08 0.0872791 39.9616 8.66759 39.9999 20.2036C40.0348 30.7783 31.3968 40.2277 19.4913 39.9957C8.63189 39.7841 -0.238014 30.9384 0.00487231 19.3888C0.2192 9.18779 8.54194 0.105429 19.9942 0ZM15.7818 23.0246C16.4929 23.0246 17.2042 23.0262 17.9152 23.0238C18.2553 23.0227 18.4683 23.0996 18.389 23.5259C18.2147 24.4632 18.0719 25.4062 17.9187 26.3471C17.6301 28.1206 17.3425 29.8943 17.0558 31.6682C17.0283 31.8371 16.94 32.0178 17.1578 32.1345C17.5285 32.3328 18.5422 32.0803 18.7517 31.7304C21.4091 27.2959 24.0651 22.8607 26.7198 18.4247C27.2712 17.502 26.9819 17.0031 25.9001 16.9951C24.6554 16.9862 23.4107 16.9862 22.166 16.9951C21.7795 16.9973 21.5169 16.9463 21.6101 16.4405C21.8876 14.9359 22.1412 13.4271 22.3956 11.9183C22.5945 10.7371 22.7851 9.55453 22.9673 8.37052C22.9945 8.19383 23.1021 7.97523 22.8143 7.87033C22.1999 7.69187 21.5398 7.92101 21.1681 8.44178C19.1239 11.8461 17.0813 15.2514 15.0404 18.6577C14.4243 19.6853 13.7899 20.7022 13.203 21.7464C12.7631 22.5284 13.0519 23.0129 13.9151 23.0222C14.5372 23.0289 15.1597 23.0235 15.7821 23.0249L15.7818 23.0246Z" fill="#1D5FE6"/>
</g>
<defs>
<clipPath id="clip0_209_752">
<rect width="40" height="40" fill="white"/>
</clipPath>
</defs>
</svg>
