<svg width="40" height="39" viewBox="0 0 40 39" fill="none" xmlns="http://www.w3.org/2000/svg">
<path d="M29.2994 18.9394L16.6751 12.8073C16.1323 12.5414 15.5672 13.1286 15.8498 13.6659L18.7856 19.2163C18.8353 19.3054 18.8609 19.4059 18.8599 19.5079C18.8589 19.6099 18.8314 19.7099 18.7801 19.798L15.8498 25.3429C15.5672 25.8802 16.1323 26.4674 16.6751 26.2015L29.2994 20.0694C29.4059 20.0183 29.4958 19.9382 29.5587 19.8382C29.6216 19.7382 29.655 19.6225 29.655 19.5044C29.655 19.3863 29.6216 19.2706 29.5587 19.1706C29.4958 19.0706 29.4059 18.9905 29.2994 18.9394Z" stroke="#0C0C0C" stroke-linecap="round" stroke-linejoin="round"/>
</svg>
