<svg width="40" height="40" viewBox="0 0 40 40" fill="none" xmlns="http://www.w3.org/2000/svg">
<g clip-path="url(#clip0_209_783)">
<path fill-rule="evenodd" clip-rule="evenodd" d="M8.30813 4.00433C6.02578 4.00433 4.33695 6.01001 4.41258 8.18512C4.48516 10.2748 4.39086 12.9813 3.71227 15.1884C3.03125 17.4017 1.88031 18.8042 0 18.9843V21.0168C1.88031 21.1972 3.03125 22.599 3.71219 24.8126C4.39086 27.0198 4.48508 29.7262 4.4125 31.8159C4.33687 33.9907 6.0257 35.9967 8.30844 35.9967H31.6949C33.9773 35.9967 35.6658 33.991 35.5902 31.8159C35.5176 29.7262 35.6119 27.0198 36.2905 24.8126C36.9715 22.599 38.1196 21.1966 40 21.0168V18.9843C38.1197 18.8038 36.9716 17.402 36.2905 15.1884C35.6118 12.9816 35.5176 10.2748 35.5902 8.18512C35.6658 6.01033 33.9773 4.00433 31.6949 4.00433H8.30781H8.30813ZM27.1187 23.6977C27.1187 26.6927 24.8936 28.5092 21.201 28.5092H14.9152C14.7354 28.5092 14.563 28.4374 14.4358 28.3098C14.3087 28.1821 14.2373 28.009 14.2373 27.8285V12.1726C14.2373 11.9921 14.3087 11.819 14.4358 11.6913C14.563 11.5637 14.7354 11.4919 14.9152 11.4919H21.1652C24.2442 11.4919 26.2649 13.1665 26.2649 15.7374C26.2649 17.5418 24.9055 19.1573 23.1737 19.4403V19.5344C25.5312 19.7941 27.1187 21.4334 27.1187 23.6977V23.6977ZM20.5156 13.6497H16.9316V18.7325H19.9502C22.2838 18.7325 23.5705 17.7891 23.5705 16.1027C23.5703 14.5223 22.4641 13.6497 20.5156 13.6497ZM16.9316 20.7493V26.3507H20.6475C23.0772 26.3507 24.3641 25.3718 24.3641 23.5323C24.3641 21.6927 23.0411 20.749 20.4912 20.749H16.9316V20.7493Z" fill="#7952B3"/>
</g>
<defs>
<clipPath id="clip0_209_783">
<rect width="40" height="32" fill="white" transform="translate(0 4)"/>
</clipPath>
</defs>
</svg>
