<svg width="44" height="44" viewBox="0 0 44 44" fill="none" xmlns="http://www.w3.org/2000/svg">
<path d="M15.8358 40C19.1581 40 21.8545 37.312 21.8545 34V27.9999H15.8358C12.5134 27.9999 9.81714 30.688 9.81714 34C9.81714 37.312 12.5134 40 15.8358 40Z" fill="#0ACF83"/>
<path d="M9.81714 21.9999C9.81714 18.6879 12.5134 15.9999 15.8358 15.9999H21.8545V28H15.8358C12.5134 28 9.81714 25.3119 9.81714 21.9999Z" fill="#A259FF"/>
<path d="M9.81787 9.99995C9.81787 6.68796 12.5143 4 15.8365 4H21.8552V16H15.8365C12.5143 16 9.81787 13.3119 9.81787 9.99995Z" fill="#F24E1E"/>
<path d="M21.8542 4H27.8729C31.1952 4 33.8916 6.68796 33.8916 9.99995C33.8916 13.3119 31.1952 16 27.8729 16H21.8542V4Z" fill="#FF7262"/>
<path d="M33.8916 21.9999C33.8916 25.3119 31.1952 28 27.8729 28C24.5505 28 21.8542 25.3119 21.8542 21.9999C21.8542 18.6879 24.5505 15.9999 27.8729 15.9999C31.1952 15.9999 33.8916 18.6879 33.8916 21.9999Z" fill="#1ABCFE"/>
</svg>
