<svg width="48" height="48" viewBox="0 0 48 48" fill="none" xmlns="http://www.w3.org/2000/svg">
<g clip-path="url(#clip0_58_5406)">
<path d="M12.5638 37.9093C7.85455 32.6772 4.61848 26.1876 3.33382 19.3778C3.09295 18.0664 2.92539 16.701 2.92539 15.3525C2.74037 15.6391 2.55186 15.929 2.3843 16.2156C-0.0523596 20.3655 -0.481742 25.6145 0.467786 30.2331C1.71404 36.308 6.94342 41.1423 13.5692 40.0096C13.9043 39.9557 14.2394 39.8849 14.5746 39.8107C13.831 39.2545 13.1782 38.5903 12.5638 37.9093Z" fill="#44C1C0"/>
<path d="M39.4229 14.3074C40.9693 15.2783 42.4181 16.4448 43.591 17.8303C43.9261 16.5358 44.2054 15.2244 44.167 13.913C44.0553 10.3193 41.5244 7.06606 38.2674 5.31977C34.1725 3.14533 25.166 1.76314 21.7589 5.95018C24.9216 7.06606 27.5293 9.05844 30.6362 10.353C33.5965 11.6105 36.6301 12.5814 39.4229 14.3074Z" fill="#9251A0"/>
<path d="M43.015 34.636C39.7579 38.6814 34.752 41.1424 29.6134 42.4538C29.0723 42.5988 28.5137 42.7067 27.9761 42.8146C30.7479 43.4787 33.4464 43.9641 36.4451 43.2832C41.5453 42.1336 45.8077 36.9925 44.7639 31.9424C44.2787 32.8931 43.6852 33.7932 43.015 34.636Z" fill="#8FC640"/>
<path d="M45.1549 20.1869C44.7255 19.3407 44.1879 18.5519 43.5735 17.8338C42.4006 16.4482 40.9693 15.2818 39.4054 14.3109C36.6336 12.568 33.6 11.5971 30.6013 10.3565C27.4944 9.06191 24.9076 7.06616 21.7239 5.95365C21.3714 5.82892 21.0153 5.72104 20.6452 5.61316C17.0147 4.61865 13.0316 4.61865 9.53019 5.96714C7.55783 6.72229 5.71463 7.90896 4.54168 9.61479C3.36874 11.3038 2.93935 13.2995 2.9219 15.3661C2.90444 16.7146 3.07201 18.0799 3.33034 19.3913C4.61848 26.2248 7.85455 32.6941 12.5638 37.9263C13.1782 38.6106 13.831 39.2747 14.5746 39.831C14.6688 39.9018 14.7805 39.976 14.8713 40.0468C16.0826 40.8558 17.4964 41.3413 18.8719 41.7897C20.6592 42.383 22.464 42.9763 24.3421 43.1011C25.5535 43.1719 26.7613 43.0471 27.9517 42.8314C28.5103 42.7235 29.0514 42.5988 29.589 42.4707C34.7276 41.1761 39.7126 38.6949 42.9906 34.6528C43.6608 33.8269 44.2578 32.9099 44.7395 31.9558C46.6246 28.2374 47.0156 23.8346 45.1549 20.1869Z" fill="#152739"/>
<path d="M21.7798 3.53979C22.7118 3.28695 23.417 2.36998 23.3995 1.43615C23.3995 1.27433 23.3821 1.11252 23.3053 0.950698C23.1168 0.502327 22.6141 0.215774 22.1323 0.107895C18.4285 -0.788848 18.0759 4.54778 21.7798 3.53979Z" fill="#8FC640"/>
<path d="M11.8761 41.1256C10.0713 41.5402 9.1776 43.2292 11.1884 43.6236C11.7295 43.7315 12.3439 43.7147 12.9373 43.6236C13.7193 43.5158 14.5745 43.2831 15.0039 42.8314C16.5295 41.1795 13.9252 40.657 11.8761 41.1256Z" fill="#9251A0"/>
<path d="M22.5792 35.1045C22.1498 35.1045 21.7588 34.9596 21.4446 34.6562C21.127 34.3696 20.9803 33.992 20.9803 33.5774V24.8055C20.9803 24.374 21.1479 24.0132 21.4446 23.7267C21.7623 23.4401 22.1323 23.2783 22.5792 23.2783C23.0086 23.2783 23.3995 23.4233 23.6963 23.7267C23.993 24.0132 24.1606 24.3908 24.1606 24.8055V33.5774C24.1606 34.0089 24.0105 34.3696 23.6963 34.6562C23.3786 34.9427 23.0051 35.1045 22.5792 35.1045Z" fill="#152739"/>
<path d="M22.5792 23.5277C22.9318 23.5277 23.2495 23.6524 23.5113 23.8884C23.7731 24.1412 23.8848 24.4278 23.8848 24.7885V33.5604C23.8848 33.9009 23.7557 34.2077 23.5113 34.4605C23.2495 34.7134 22.9528 34.8212 22.5792 34.8212C22.2266 34.8212 21.909 34.6965 21.6472 34.4605C21.3853 34.2077 21.2562 33.9211 21.2562 33.5604V24.7851C21.2562 24.4446 21.3853 24.1379 21.6472 23.885C21.8915 23.6558 22.2057 23.5277 22.5792 23.5277ZM22.5792 22.9883C22.0591 22.9883 21.6297 23.167 21.2562 23.5108C20.8827 23.8547 20.6976 24.3031 20.6976 24.7885V33.5604C20.6976 34.0459 20.8827 34.4942 21.2562 34.8381C21.6297 35.182 22.0765 35.3606 22.5792 35.3606C23.0819 35.3606 23.5462 35.182 23.9023 34.8381C24.2549 34.4976 24.4434 34.0459 24.4434 33.5604V24.7851C24.4434 24.2997 24.2584 23.8513 23.9023 23.5074C23.5288 23.1872 23.0819 22.9883 22.5792 22.9883Z" fill="white"/>
<path d="M16.9763 17.5235C16.5294 17.5235 16.1559 17.3786 15.8592 17.0752C15.5625 16.7886 15.3949 16.411 15.3949 15.9964C15.3949 15.5817 15.545 15.2244 15.8592 14.9345C16.1559 14.6479 16.5469 14.4861 16.9763 14.4861H28.1612C28.5905 14.4861 28.9606 14.631 29.2608 14.9345C29.561 15.2379 29.7251 15.5817 29.7251 15.9964C29.7251 16.411 29.575 16.7886 29.2608 17.0752C28.9641 17.3617 28.5905 17.5235 28.1612 17.5235H16.9763Z" fill="#152739"/>
<path d="M28.1611 14.7557C28.5137 14.7557 28.8139 14.8804 29.0723 15.1164C29.3341 15.3693 29.4458 15.6558 29.4458 15.9963C29.4458 16.3368 29.3166 16.6436 29.0723 16.8964C28.8104 17.1493 28.5137 17.2571 28.1611 17.2571H16.9763C16.6237 17.2571 16.306 17.1324 16.0442 16.8964C15.7824 16.6436 15.6707 16.357 15.6707 15.9963C15.6707 15.6558 15.7998 15.3659 16.0442 15.1164C16.306 14.8636 16.6027 14.7557 16.9763 14.7557H28.1611ZM28.1611 14.2163H16.9763C16.4736 14.2163 16.0093 14.395 15.6532 14.7388C15.3006 15.0793 15.1121 15.5109 15.1121 15.9963C15.1121 16.4818 15.2971 16.9301 15.6532 17.274C16.0058 17.6145 16.4736 17.7965 16.9763 17.7965H28.1611C28.6638 17.7965 29.1107 17.6179 29.4632 17.274C29.8158 16.9335 30.0043 16.4818 30.0043 15.9963C30.0043 15.5109 29.8193 15.0793 29.4632 14.7388C29.1107 14.3984 28.6638 14.2163 28.1611 14.2163Z" fill="white"/>
<path d="M93.3434 16.1043C91.762 15.2042 90.0305 14.7559 88.1315 14.7559C86.215 14.7559 84.466 15.2042 82.9021 16.1043C81.3207 17.0045 80.0745 18.2248 79.1424 19.7351C78.2103 21.2623 77.746 22.9344 77.746 24.7684C77.746 26.6192 78.2103 28.2913 79.1424 29.8184C80.0745 31.3288 81.3207 32.5491 82.9021 33.4492C84.4835 34.3494 86.215 34.7977 88.1315 34.7977C90.0305 34.7977 91.7795 34.3494 93.3434 33.4492C94.9248 32.5491 96.171 31.3288 97.1031 29.8184C98.0352 28.3081 98.4995 26.6192 98.4995 24.7684C98.4995 22.9344 98.0352 21.2454 97.1031 19.7351C96.171 18.2248 94.9038 17.0045 93.3434 16.1043ZM94.8305 28.561C94.1219 29.6937 93.1933 30.5905 92.0203 31.2748C90.8474 31.9592 89.5453 32.2828 88.1315 32.2828C86.6967 32.2828 85.3946 31.9423 84.2217 31.2748C83.0487 30.5905 82.1201 29.6937 81.4115 28.561C80.7028 27.4283 80.3677 26.1708 80.3677 24.7852C80.3677 23.3997 80.7203 22.1422 81.4115 21.0095C82.1201 19.8767 83.0487 18.98 84.2217 18.2956C85.3946 17.6113 86.6967 17.2876 88.1315 17.2876C89.5453 17.2876 90.8474 17.6281 92.0203 18.2956C93.1933 18.98 94.1428 19.8767 94.8305 21.0095C95.5392 22.1422 95.8918 23.3997 95.8918 24.7852C95.8918 26.1539 95.5392 27.4114 94.8305 28.561ZM46.3662 35.0135C45.9368 35.0135 45.5668 34.8685 45.2317 34.5651L42.404 31.8344C42.0864 31.5277 41.9398 31.1501 41.9398 30.7388C41.9398 30.3241 42.0899 29.9668 42.404 29.6431C42.7392 29.3364 43.1127 29.1745 43.5386 29.1745C43.9645 29.1745 44.338 29.3195 44.6731 29.6229L47.5008 32.3738C47.8184 32.6806 47.9651 33.0582 47.9651 33.4695C47.9651 33.8841 47.815 34.2415 47.5008 34.5483C47.1831 34.8517 46.7921 35.0135 46.3662 35.0135Z" fill="#152739"/>
<path d="M43.5351 29.4408C43.8877 29.4408 44.2054 29.5655 44.4846 29.8183L47.3123 32.5692C47.5741 32.8221 47.7032 33.1255 47.7032 33.4694C47.7032 33.8099 47.5741 34.1166 47.3123 34.3695C47.0505 34.6223 46.7363 34.7471 46.3802 34.7471C46.0276 34.7471 45.7099 34.6223 45.4307 34.3695L42.603 31.6388C42.3412 31.386 42.212 31.0825 42.212 30.7387C42.212 30.3982 42.3412 30.0914 42.603 29.8217C42.8648 29.5689 43.1825 29.4408 43.5351 29.4408ZM43.5351 28.9014C43.0324 28.9014 42.5856 29.08 42.212 29.4239L42.1946 29.4408L42.1771 29.4576C41.8246 29.8352 41.636 30.2667 41.636 30.7353C41.636 31.2208 41.8211 31.6523 42.1771 32.013L45.0048 34.7437C45.3958 35.0842 45.8426 35.2662 46.3278 35.2662C46.8305 35.2662 47.2774 35.0875 47.6509 34.7437C48.0035 34.383 48.192 33.9514 48.192 33.466C48.192 32.9805 48.007 32.549 47.6509 32.1883L44.8232 29.4374C44.4672 29.0834 44.0203 28.9014 43.5351 28.9014Z" fill="white"/>
<path d="M67.954 16.1043C66.3726 15.2042 64.6411 14.7558 62.7421 14.7558C60.8256 14.7558 59.0766 15.2042 57.5127 16.1043C55.9313 17.0044 54.6851 18.2248 53.753 19.7351C52.8209 21.2623 52.3566 22.9344 52.3566 24.7683C52.3566 26.6191 52.8209 28.2913 53.753 29.8184C54.6851 31.3287 55.9313 32.5491 57.5127 33.4492C59.0941 34.3493 60.8256 34.7977 62.7421 34.7977C64.6411 34.7977 66.3901 34.3493 67.954 33.4492C69.5354 32.5491 70.7817 31.3287 71.7137 29.8184C72.6458 28.3081 73.1101 26.6191 73.1101 24.7683C73.1101 22.9344 72.6458 21.2454 71.7137 19.7351C70.7817 18.2248 69.5354 17.0044 67.954 16.1043ZM69.4446 28.561C68.736 29.6937 67.8074 30.5904 66.6345 31.2748C65.4615 31.9591 64.1594 32.2828 62.7456 32.2828C61.3108 32.2828 60.0087 31.9423 58.8358 31.2748C57.6628 30.5904 56.7342 29.6937 56.0256 28.561C55.3169 27.4282 54.9818 26.1708 54.9818 24.7852C54.9818 23.3996 55.3344 22.1422 56.0256 21.0094C56.7342 19.8767 57.6628 18.98 58.8358 18.2956C60.0087 17.6112 61.3108 17.2876 62.7456 17.2876C64.1594 17.2876 65.4615 17.6281 66.6345 18.2956C67.8074 18.98 68.7569 19.8767 69.4446 21.0094C70.1533 22.1422 70.5059 23.3996 70.5059 24.7852C70.5059 26.1539 70.1498 27.4114 69.4446 28.561ZM35.4013 35.0674C34.9719 35.0674 34.5809 34.9224 34.2667 34.619C33.9491 34.3325 33.8025 33.9549 33.8025 33.5402V24.7852C33.8025 24.3908 33.9526 24.03 34.2318 23.7233L34.3051 23.6322H34.3226C34.6403 23.3457 34.9929 23.2007 35.4013 23.2007L37.3178 23.2176H41.6535C42.4739 23.2176 43.1232 22.9647 43.6817 22.4253C44.2403 21.8859 44.5195 21.2387 44.5579 20.4127V20.3284C44.5195 19.5194 44.2228 18.8721 43.6643 18.3529C43.1057 17.8304 42.4529 17.5809 41.6535 17.5809H37.2969L35.3978 17.5978C34.951 17.5978 34.5774 17.4359 34.2633 17.1292C33.9456 16.8224 33.778 16.4448 33.778 16.0335C33.778 15.602 33.9281 15.2413 34.2423 14.9379C34.56 14.6311 34.93 14.4895 35.3769 14.4895H37.035L39.9569 14.5266C40.0128 14.5097 40.0686 14.5097 40.1245 14.5097H41.65L41.6884 14.4929H41.7443C41.8734 14.4929 42.0061 14.4929 42.1353 14.5097C43.1022 14.5266 43.8667 14.6345 44.4253 14.8704C44.9838 15.1031 45.4865 15.4267 45.9159 15.8414L45.9892 15.9122C46.4186 16.2729 46.7886 16.6842 47.0889 17.1528V17.1696L47.218 17.3146L47.2355 17.3314C47.7556 18.2855 48.0174 19.307 47.979 20.3689C47.9965 22.0039 47.4589 23.4064 46.3593 24.5391C45.2038 25.6887 43.6224 26.2652 41.65 26.2652L37.0909 26.3022C37.0525 26.3022 37.035 26.3022 37.0176 26.3191C37.0001 26.336 37.0001 26.3562 37.0001 26.3899V33.5065C37.0001 33.9212 36.85 34.2988 36.5358 34.5853C36.2042 34.9224 35.8307 35.0674 35.4013 35.0674Z" fill="#152739"/>
<path d="M41.7478 14.7559C41.877 14.7559 41.9887 14.7559 42.1213 14.7728H42.1388C43.0499 14.7896 43.797 14.8975 44.3171 15.1132C44.8582 15.329 45.3225 15.6358 45.7135 16.0302C45.7135 16.0471 45.7135 16.0471 45.7309 16.0673C46.1778 16.4078 46.5513 16.8393 46.848 17.3079C46.8655 17.3248 46.8655 17.345 46.8864 17.3618L46.9981 17.4866C47.5008 18.4036 47.7417 19.3745 47.7068 20.3993V20.4162C47.7242 21.9804 47.2041 23.3087 46.1603 24.4077C45.0607 25.5033 43.5561 26.0427 41.657 26.0427L37.0979 26.0798C36.9862 26.0798 36.9129 26.1169 36.8361 26.1877C36.7628 26.2585 36.7244 26.3495 36.7244 26.4405V33.5572C36.7244 33.8977 36.5952 34.2044 36.3509 34.4573C36.089 34.7101 35.7923 34.818 35.4188 34.818C35.0662 34.818 34.7485 34.6933 34.4867 34.4573C34.2249 34.2044 34.0957 33.9179 34.0957 33.5572V24.8055C34.0957 24.4819 34.2074 24.1953 34.4483 23.9425H34.4658C34.745 23.6559 35.0627 23.5109 35.4327 23.5109L37.3109 23.4941H41.6466C42.5228 23.4941 43.2663 23.2075 43.8807 22.6311C44.4951 22.0546 44.8128 21.3197 44.8303 20.4398C44.8303 20.4027 44.8303 20.369 44.8128 20.3319C44.7744 19.4689 44.4393 18.7508 43.8458 18.1743C43.2314 17.6181 42.5053 17.3281 41.6326 17.3281H37.2829L35.3664 17.345C35.0138 17.345 34.6962 17.2203 34.4343 16.9506C34.1725 16.6977 34.0434 16.3943 34.0434 16.0336C34.0434 15.6931 34.1725 15.3863 34.4343 15.1335C34.6962 14.8806 35.0103 14.7559 35.3664 14.7559H37.0246L39.929 14.793H39.9849C40.0407 14.7761 40.0791 14.7761 40.135 14.7761H41.6605C41.6745 14.7761 41.7129 14.7761 41.7478 14.7559ZM41.7478 14.2165H41.6535L41.6151 14.2334H40.1455C40.0896 14.2334 40.0163 14.2334 39.9605 14.2502L37.056 14.2131H35.3804C34.8777 14.2131 34.4134 14.3918 34.0573 14.7525C33.7047 15.093 33.4988 15.5448 33.4988 16.0302C33.4988 16.5325 33.6838 16.964 34.0573 17.3248C34.4309 17.6855 34.8951 17.881 35.3978 17.881L37.3143 17.8642H41.6675C42.3936 17.8642 42.9906 18.0968 43.4898 18.5654C43.9925 19.034 44.2543 19.6273 44.2892 20.3622V20.433L44.3066 20.4701C44.2682 21.1882 44.0099 21.7815 43.5247 22.2501C43.022 22.7356 42.425 22.9682 41.6815 22.9682H37.3178L35.4188 22.9513C34.9719 22.9513 34.581 23.0963 34.2284 23.3828H34.19L34.0224 23.5615C33.6873 23.9222 33.5197 24.3335 33.5197 24.8021V33.5538C33.5197 34.0393 33.7047 34.4876 34.0783 34.8315C34.4518 35.172 34.8986 35.354 35.4013 35.354C35.904 35.354 36.3683 35.1754 36.7244 34.8315C37.077 34.491 37.2655 34.0393 37.2655 33.5538V26.6192L41.6396 26.5821C43.6853 26.5821 45.3434 25.9719 46.5338 24.7853C47.6893 23.5817 48.2653 22.1254 48.2269 20.4162C48.2653 19.3003 48.0035 18.2249 47.445 17.2337L47.4066 17.1798L47.3682 17.1259L47.2739 17.0348C46.9772 16.5494 46.5862 16.1179 46.1394 15.7403L46.0661 15.6695C45.6192 15.238 45.0991 14.8773 44.5021 14.6278C43.8877 14.375 43.1058 14.2502 42.1004 14.2334C42.0096 14.2367 41.8805 14.2165 41.7478 14.2165Z" fill="white"/>
</g>
<defs>
<clipPath id="clip0_58_5406">
<rect width="48" height="48" fill="white"/>
</clipPath>
</defs>
</svg>
