<svg width="34" height="34" viewBox="0 0 34 34" fill="none" xmlns="http://www.w3.org/2000/svg">
<path d="M18.0625 18.0625C18.0625 18.3443 17.9506 18.6145 17.7513 18.8138C17.552 19.0131 17.2818 19.125 17 19.125C16.7182 19.125 16.448 19.0131 16.2487 18.8138C16.0494 18.6145 15.9375 18.3443 15.9375 18.0625C15.9375 17.7807 16.0494 17.5105 16.2487 17.3112C16.448 17.1119 16.7182 17 17 17C17.2818 17 17.552 17.1119 17.7513 17.3112C17.9506 17.5105 18.0625 17.7807 18.0625 18.0625ZM10.625 22.3125C10.9068 22.3125 11.177 22.2006 11.3763 22.0013C11.5756 21.802 11.6875 21.5318 11.6875 21.25C11.6875 20.9682 11.5756 20.698 11.3763 20.4987C11.177 20.2994 10.9068 20.1875 10.625 20.1875C10.3432 20.1875 10.073 20.2994 9.8737 20.4987C9.67444 20.698 9.5625 20.9682 9.5625 21.25C9.5625 21.5318 9.67444 21.802 9.8737 22.0013C10.073 22.2006 10.3432 22.3125 10.625 22.3125ZM11.6875 24.4375C11.6875 24.7193 11.5756 24.9895 11.3763 25.1888C11.177 25.3881 10.9068 25.5 10.625 25.5C10.3432 25.5 10.073 25.3881 9.8737 25.1888C9.67444 24.9895 9.5625 24.7193 9.5625 24.4375C9.5625 24.1557 9.67444 23.8855 9.8737 23.6862C10.073 23.4869 10.3432 23.375 10.625 23.375C10.9068 23.375 11.177 23.4869 11.3763 23.6862C11.5756 23.8855 11.6875 24.1557 11.6875 24.4375ZM13.8125 22.3125C14.0943 22.3125 14.3645 22.2006 14.5638 22.0013C14.7631 21.802 14.875 21.5318 14.875 21.25C14.875 20.9682 14.7631 20.698 14.5638 20.4987C14.3645 20.2994 14.0943 20.1875 13.8125 20.1875C13.5307 20.1875 13.2605 20.2994 13.0612 20.4987C12.8619 20.698 12.75 20.9682 12.75 21.25C12.75 21.5318 12.8619 21.802 13.0612 22.0013C13.2605 22.2006 13.5307 22.3125 13.8125 22.3125ZM14.875 24.4375C14.875 24.7193 14.7631 24.9895 14.5638 25.1888C14.3645 25.3881 14.0943 25.5 13.8125 25.5C13.5307 25.5 13.2605 25.3881 13.0612 25.1888C12.8619 24.9895 12.75 24.7193 12.75 24.4375C12.75 24.1557 12.8619 23.8855 13.0612 23.6862C13.2605 23.4869 13.5307 23.375 13.8125 23.375C14.0943 23.375 14.3645 23.4869 14.5638 23.6862C14.7631 23.8855 14.875 24.1557 14.875 24.4375ZM17 22.3125C17.2818 22.3125 17.552 22.2006 17.7513 22.0013C17.9506 21.802 18.0625 21.5318 18.0625 21.25C18.0625 20.9682 17.9506 20.698 17.7513 20.4987C17.552 20.2994 17.2818 20.1875 17 20.1875C16.7182 20.1875 16.448 20.2994 16.2487 20.4987C16.0494 20.698 15.9375 20.9682 15.9375 21.25C15.9375 21.5318 16.0494 21.802 16.2487 22.0013C16.448 22.2006 16.7182 22.3125 17 22.3125ZM18.0625 24.4375C18.0625 24.7193 17.9506 24.9895 17.7513 25.1888C17.552 25.3881 17.2818 25.5 17 25.5C16.7182 25.5 16.448 25.3881 16.2487 25.1888C16.0494 24.9895 15.9375 24.7193 15.9375 24.4375C15.9375 24.1557 16.0494 23.8855 16.2487 23.6862C16.448 23.4869 16.7182 23.375 17 23.375C17.2818 23.375 17.552 23.4869 17.7513 23.6862C17.9506 23.8855 18.0625 24.1557 18.0625 24.4375ZM20.1875 22.3125C20.4693 22.3125 20.7395 22.2006 20.9388 22.0013C21.1381 21.802 21.25 21.5318 21.25 21.25C21.25 20.9682 21.1381 20.698 20.9388 20.4987C20.7395 20.2994 20.4693 20.1875 20.1875 20.1875C19.9057 20.1875 19.6355 20.2994 19.4362 20.4987C19.2369 20.698 19.125 20.9682 19.125 21.25C19.125 21.5318 19.2369 21.802 19.4362 22.0013C19.6355 22.2006 19.9057 22.3125 20.1875 22.3125ZM21.25 24.4375C21.25 24.7193 21.1381 24.9895 20.9388 25.1888C20.7395 25.3881 20.4693 25.5 20.1875 25.5C19.9057 25.5 19.6355 25.3881 19.4362 25.1888C19.2369 24.9895 19.125 24.7193 19.125 24.4375C19.125 24.1557 19.2369 23.8855 19.4362 23.6862C19.6355 23.4869 19.9057 23.375 20.1875 23.375C20.4693 23.375 20.7395 23.4869 20.9388 23.6862C21.1381 23.8855 21.25 24.1557 21.25 24.4375ZM23.375 22.3125C23.6568 22.3125 23.927 22.2006 24.1263 22.0013C24.3256 21.802 24.4375 21.5318 24.4375 21.25C24.4375 20.9682 24.3256 20.698 24.1263 20.4987C23.927 20.2994 23.6568 20.1875 23.375 20.1875C23.0932 20.1875 22.823 20.2994 22.6237 20.4987C22.4244 20.698 22.3125 20.9682 22.3125 21.25C22.3125 21.5318 22.4244 21.802 22.6237 22.0013C22.823 22.2006 23.0932 22.3125 23.375 22.3125ZM21.25 18.0625C21.25 18.3443 21.1381 18.6145 20.9388 18.8138C20.7395 19.0131 20.4693 19.125 20.1875 19.125C19.9057 19.125 19.6355 19.0131 19.4362 18.8138C19.2369 18.6145 19.125 18.3443 19.125 18.0625C19.125 17.7807 19.2369 17.5105 19.4362 17.3112C19.6355 17.1119 19.9057 17 20.1875 17C20.4693 17 20.7395 17.1119 20.9388 17.3112C21.1381 17.5105 21.25 17.7807 21.25 18.0625ZM23.375 19.125C23.6568 19.125 23.927 19.0131 24.1263 18.8138C24.3256 18.6145 24.4375 18.3443 24.4375 18.0625C24.4375 17.7807 24.3256 17.5105 24.1263 17.3112C23.927 17.1119 23.6568 17 23.375 17C23.0932 17 22.823 17.1119 22.6237 17.3112C22.4244 17.5105 22.3125 17.7807 22.3125 18.0625C22.3125 18.3443 22.4244 18.6145 22.6237 18.8138C22.823 19.0131 23.0932 19.125 23.375 19.125Z" fill="#0C0C0C"/>
<path fill-rule="evenodd" clip-rule="evenodd" d="M9.5625 3.1875C9.84429 3.1875 10.1145 3.29944 10.3138 3.4987C10.5131 3.69796 10.625 3.96821 10.625 4.25V6.375H23.375V4.25C23.375 3.96821 23.4869 3.69796 23.6862 3.4987C23.8855 3.29944 24.1557 3.1875 24.4375 3.1875C24.7193 3.1875 24.9895 3.29944 25.1888 3.4987C25.3881 3.69796 25.5 3.96821 25.5 4.25V6.375H26.5625C27.6897 6.375 28.7707 6.82277 29.5677 7.6198C30.3647 8.41683 30.8125 9.49783 30.8125 10.625V26.5625C30.8125 27.6897 30.3647 28.7707 29.5677 29.5677C28.7707 30.3647 27.6897 30.8125 26.5625 30.8125H7.4375C6.31033 30.8125 5.22933 30.3647 4.4323 29.5677C3.63527 28.7707 3.1875 27.6897 3.1875 26.5625V10.625C3.1875 9.49783 3.63527 8.41683 4.4323 7.6198C5.22933 6.82277 6.31033 6.375 7.4375 6.375H8.5V4.25C8.5 3.96821 8.61194 3.69796 8.8112 3.4987C9.01046 3.29944 9.28071 3.1875 9.5625 3.1875ZM28.6875 15.9375C28.6875 15.3739 28.4636 14.8334 28.0651 14.4349C27.6666 14.0364 27.1261 13.8125 26.5625 13.8125H7.4375C6.87391 13.8125 6.33341 14.0364 5.9349 14.4349C5.53638 14.8334 5.3125 15.3739 5.3125 15.9375V26.5625C5.3125 27.1261 5.53638 27.6666 5.9349 28.0651C6.33341 28.4636 6.87391 28.6875 7.4375 28.6875H26.5625C27.1261 28.6875 27.6666 28.4636 28.0651 28.0651C28.4636 27.6666 28.6875 27.1261 28.6875 26.5625V15.9375Z" fill="#0C0C0C"/>
</svg>
