<svg width="40" height="40" viewBox="0 0 40 40" fill="none" xmlns="http://www.w3.org/2000/svg">
<g clip-path="url(#clip0_209_757)">
<path d="M24.5249 14.4475L20.5212 18.1725L16.8062 10.6788L18.7287 6.36875C19.2287 5.49375 20.0087 5.50375 20.4962 6.36875L24.5249 14.4475Z" fill="#FFA000"/>
<path d="M16.8063 10.6787L20.5213 18.1725L5.55884 32.0912L16.8063 10.6787Z" fill="#F57F17"/>
<path d="M28.9038 8.75376C29.6188 8.06626 30.3588 8.30126 30.5476 9.27501L34.4426 31.9063L21.5326 39.6563C21.0826 39.9063 19.8826 40.0138 19.8826 40.0138C19.8826 40.0138 18.7901 39.8838 18.3738 39.6388L5.55884 32.0913L28.9038 8.75376Z" fill="#FFCA28"/>
<path d="M16.8063 10.6788L5.56006 32.0913L10.5688 0.797506C10.7538 -0.177494 11.3088 -0.271244 11.8038 0.588756L16.8063 10.6788Z" fill="#FFA000"/>
</g>
<defs>
<clipPath id="clip0_209_757">
<rect width="40" height="40" fill="white"/>
</clipPath>
</defs>
</svg>
