<svg width="46" height="46" viewBox="0 0 46 46" fill="none" xmlns="http://www.w3.org/2000/svg">
<path fill-rule="evenodd" clip-rule="evenodd" d="M45.227 25.6289C45.0705 25.5007 44.8846 25.4134 44.6861 25.3746C43.5186 26.5384 42.0938 27.7641 40.8288 28.5882C40.2452 28.976 39.5108 29.1696 39.0249 29.1696C37.9059 29.1696 37.4197 28.1027 37.2737 26.4064C37.0789 24.1288 36.9479 21.4001 36.9479 17.1831C36.9479 12.8578 35.9663 9.91799 33.3516 9.68735C33.2411 9.67777 33.1293 9.67074 33.013 9.67074C31.4078 9.67074 30.6293 10.4949 29.6077 12.579C28.7324 14.372 27.3703 16.9892 24.8416 21.9329C22.6528 26.1988 20.2208 29.9797 18.1285 32.5966C17.5458 33.3218 17.0855 33.8201 16.6526 34.1044C16.3635 34.2948 16.086 34.39 15.794 34.39C14.9682 34.39 14.3661 33.6936 14.1648 32.0708C14.1169 31.6853 14.0913 31.2476 14.0913 30.7547C14.0913 27.4101 15.3563 21.9821 17.5413 13.9845C19.1465 8.16871 18.4658 4.19482 14.9634 4.19482H14.9241L14.9219 4.19546C14.1287 4.20505 13.4716 4.49191 12.8378 4.99088C12.2143 5.48187 11.5901 6.54242 11.0074 7.96874C10.3542 9.57363 6.36014 17.5843 0.00447763 21.7112C-0.0702724 23.2804 0.817783 24.8482 2.61753 25.0184C4.25628 25.1737 5.41906 24.4831 6.91726 23.4771C6.71643 24.3726 6.51859 25.2688 6.32373 26.1656L6.11545 27.1194C5.91788 28.0183 5.76679 28.9267 5.6628 29.8411C4.76612 37.8521 8.47902 41.8056 12.8273 41.8056C13.554 41.8056 14.2744 41.7193 14.989 41.5372C19.78 40.3221 24.3928 34.8267 29.8514 22.1757C29.7684 23.5519 29.7601 24.8367 29.8195 26.0298C30.1789 33.2802 33.0469 35.4557 37.0987 35.4557C40.1631 35.4557 43.0327 33.8565 44.4919 31.8693C45.562 30.4637 45.9997 28.9125 45.9997 27.7005C45.9997 26.7601 45.7013 26.009 45.2266 25.6279" fill="#EA5252"/>
</svg>
