<svg width="40" height="40" viewBox="0 0 40 40" fill="none" xmlns="http://www.w3.org/2000/svg">
<g clip-path="url(#clip0_69_6058)">
<path d="M39.99 40.0002L40 39.9985V25.3285C40 18.1519 38.455 12.6235 30.065 12.6235C26.0316 12.6235 23.325 14.8369 22.22 16.9352H22.1033V13.2935H14.1483V39.9985H22.4316V26.7752C22.4316 23.2935 23.0916 19.9269 27.4033 19.9269C31.6516 19.9269 31.715 23.9002 31.715 26.9985V40.0002H39.99Z" fill="#0077B5"/>
<path d="M0.659973 13.2949H8.95331V39.9999H0.659973V13.2949Z" fill="#0077B5"/>
<path d="M4.80333 0C2.15167 0 0 2.15167 0 4.80333C0 7.455 2.15167 9.65167 4.80333 9.65167C7.455 9.65167 9.60667 7.455 9.60667 4.80333C9.605 2.15167 7.45333 0 4.80333 0Z" fill="#0077B5"/>
</g>
<defs>
<clipPath id="clip0_69_6058">
<rect width="40" height="40" fill="white"/>
</clipPath>
</defs>
</svg>
