<svg width="60" height="60" viewBox="0 0 60 60" fill="none" xmlns="http://www.w3.org/2000/svg">
<g clip-path="url(#clip0_175_522)">
<path d="M16.1001 25.35C19.2757 25.35 21.8501 22.7756 21.8501 19.6C21.8501 16.4244 19.2757 13.85 16.1001 13.85C12.9245 13.85 10.3501 16.4244 10.3501 19.6C10.3501 22.7756 12.9245 25.35 16.1001 25.35Z" fill="#80CE8F"/>
<path opacity="0.4" d="M15.5 22.7C15.45 22.7 15.4 22.7 15.35 22.7C14.55 22.65 13.8 22.25 13.45 21.85C12.05 20.2 12.5 18.4 13.5 17.4C14.65 16.3 16.3 16.15 17.75 17.05C18.7 17.65 19.3 18.5 19.5 19.45C19.7 20.3 19.5 21.25 19 22C18.9 22.1 18.75 22.15 18.65 22.05C18.55 21.95 18.5 21.8 18.6 21.7C19 21.05 19.15 20.3 19 19.55C18.85 18.7 18.3 18 17.45 17.45C16.5 16.85 15 16.55 13.85 17.7C13 18.55 12.65 20.05 13.85 21.45C14.05 21.7 14.7 22.1 15.4 22.15C15.85 22.2 16.2 22.05 16.45 21.8C17 21.3 17.25 20.8 17.2 20.4C17.05 19.65 16.05 19.2 16.05 19.2C15.9 19.15 15.85 19 15.9 18.85C15.95 18.7 16.1 18.65 16.25 18.7C16.3 18.7 17.55 19.25 17.7 20.25C17.8 20.85 17.5 21.5 16.8 22.1C16.45 22.55 16 22.7 15.5 22.7Z" fill="#424242"/>
<path d="M9.75001 37.65L8.30001 37.25C7.55001 37.05 7.15001 36.3 7.30001 35.6L9.05001 28.85C9.25001 28.1 10 27.7 10.7 27.85L12.15 28.25C12.9 28.45 13.3 29.2 13.15 29.9L11.4 36.65C11.2 37.4 10.5 37.8 9.75001 37.65Z" fill="#424242"/>
<g filter="url(#filter0_d_175_522)">
<path d="M11.1501 36.4C10.8501 37.9 9.90006 42.4 9.90006 42.4C9.85006 42.7 9.80006 42.95 9.85006 43.25C9.85006 43.4 9.85006 43.55 9.90006 43.7C10.1501 45.3 11.5501 46.55 13.3001 46.55H48.0501C50.0001 46.55 51.6501 45.4 52.3501 43.7C52.4001 43.55 52.4501 43.4 52.5001 43.25C52.6501 42.8 52.7001 42.35 52.7001 41.85V35.75C52.7001 35.05 52.5501 34.4 52.2501 33.8C51.5001 32.2 49.9001 31.1 48.0001 31.1H41.6001C41.1501 31.1 40.8001 30.8 40.7001 30.35C40.7001 30.35 39.0001 26.3 38.5501 24.9C37.9001 22.8 36.1501 21.25 33.9501 21.25H18.6001C15.8001 21.25 14.3001 23.2 13.8001 25.95L11.1501 36.4Z" fill="#84C6FF"/>
</g>
<path d="M12.7 41.55H10.05C9.69997 41.55 9.39997 41.2 9.49997 40.85L10.25 37.55C10.3 37.3 10.55 37.1 10.8 37.1H13.45C13.8 37.1 14.1 37.45 14 37.8L13.25 41.1C13.2 41.35 12.95 41.55 12.7 41.55Z" fill="#FF957F"/>
<path d="M52.3499 43.7C51.6499 45.4 49.9499 46.55 48.0499 46.55H13.2999C11.5499 46.55 10.1999 45.3 9.8999 43.7H52.3499Z" fill="#42A0E5"/>
<path d="M20.35 49.75C23.0286 49.75 25.2 47.5786 25.2 44.9C25.2 42.2214 23.0286 40.05 20.35 40.05C17.6714 40.05 15.5 42.2214 15.5 44.9C15.5 47.5786 17.6714 49.75 20.35 49.75Z" fill="#424242"/>
<path d="M20.3499 47.1C21.5649 47.1 22.5499 46.115 22.5499 44.9C22.5499 43.685 21.5649 42.7 20.3499 42.7C19.1349 42.7 18.1499 43.685 18.1499 44.9C18.1499 46.115 19.1349 47.1 20.3499 47.1Z" fill="white"/>
<path d="M41.2001 49.75C43.8787 49.75 46.0501 47.5786 46.0501 44.9C46.0501 42.2214 43.8787 40.05 41.2001 40.05C38.5215 40.05 36.3501 42.2214 36.3501 44.9C36.3501 47.5786 38.5215 49.75 41.2001 49.75Z" fill="#424242"/>
<path d="M41.2 47.1C42.415 47.1 43.4 46.115 43.4 44.9C43.4 43.685 42.415 42.7 41.2 42.7C39.985 42.7 39 43.685 39 44.9C39 46.115 39.985 47.1 41.2 47.1Z" fill="white"/>
<path d="M52.75 35.75V36.1C52.6 36.1 52.4 36.15 52.25 36.15C49.75 36.15 47.75 34.15 47.75 31.65C47.75 31.45 47.75 31.25 47.8 31.1H48.05C49.95 31.1 51.55 32.2 52.3 33.8C52.6 34.4 52.75 35.05 52.75 35.75Z" fill="#FFD460"/>
<path d="M24.1501 31.1H28.9501C29.4001 31.1 29.7501 30.75 29.7501 30.3V24.7C29.7501 24.25 29.4001 23.9 28.9501 23.9H24.1501C23.7001 23.9 23.3501 24.25 23.3501 24.7V30.3C23.3501 30.75 23.7001 31.1 24.1501 31.1Z" fill="#C6EBFF"/>
<path d="M37.7501 29.6L36.0501 24.65C35.9001 24.2 35.4501 23.9 35.0001 23.9H32.1501C31.7001 23.9 31.3501 24.25 31.3501 24.7V30.3C31.3501 30.75 31.7001 31.1 32.1501 31.1H36.7001C37.4501 31.1 38.0001 30.3 37.7501 29.6Z" fill="#C6EBFF"/>
<path d="M21.7501 24.7C21.7501 24.25 21.4001 23.9 20.9501 23.9H17.5501C17.0001 23.9 16.5001 24.3 16.4501 24.85L15.2501 29.8C15.1501 30.45 15.7001 31.05 16.3501 31.05H20.9001C21.3501 31.05 21.7001 30.7 21.7001 30.25V24.7H21.7501Z" fill="#C6EBFF"/>
<path d="M29.1501 34.15H27.4501C27.1501 34.15 26.8501 33.9 26.8501 33.65C26.8501 33.35 27.1001 33.15 27.4501 33.15H29.1501C29.4501 33.15 29.7501 33.4 29.7501 33.65C29.7001 33.9 29.4501 34.15 29.1501 34.15Z" fill="#C6EBFF"/>
<path d="M37.1999 34.15H35.4999C35.1999 34.15 34.8999 33.9 34.8999 33.65C34.8999 33.35 35.1499 33.15 35.4999 33.15H37.1999C37.4999 33.15 37.7999 33.4 37.7999 33.65C37.7999 33.9 37.5499 34.15 37.1999 34.15Z" fill="#C6EBFF"/>
<path d="M29.45 10.55H22.6C22 10.55 21.5 11.05 21.5 11.65V16.6C21.5 17.2 22 17.7 22.6 17.7H29.45C30.05 17.7 30.55 17.2 30.55 16.6V11.65C30.55 11 30.05 10.55 29.45 10.55Z" fill="#FFBE75"/>
<path d="M33.45 14.1H21.4C20.6 14.1 19.95 14.75 19.95 15.55V19.8C19.95 20.6 20.6 21.25 21.4 21.25H33.45C34.25 21.25 34.9 20.6 34.9 19.8V15.55C34.9 14.75 34.25 14.1 33.45 14.1Z" fill="#FFD460"/>
<path d="M24.3501 10.55C24.3501 10.4 24.2001 10.25 24.0501 10.25H23.9001C23.7501 10.25 23.6001 10.4 23.6001 10.55V14.1H24.0001V21.25H24.7501V14.1H24.3501V10.55Z" fill="#FF8F3D"/>
<path d="M28.75 14.1V10.55C28.75 10.4 28.6 10.25 28.45 10.25H28.3C28.15 10.25 28 10.4 28 10.55V14.1H28.4V21.25H29.15V14.1H28.75Z" fill="#FF8F3D"/>
</g>
<defs>
<filter id="filter0_d_175_522" x="5.82935" y="21.25" width="50.8706" height="33.3" filterUnits="userSpaceOnUse" color-interpolation-filters="sRGB">
<feFlood flood-opacity="0" result="BackgroundImageFix"/>
<feColorMatrix in="SourceAlpha" type="matrix" values="0 0 0 0 0 0 0 0 0 0 0 0 0 0 0 0 0 0 127 0" result="hardAlpha"/>
<feOffset dy="4"/>
<feGaussianBlur stdDeviation="2"/>
<feComposite in2="hardAlpha" operator="out"/>
<feColorMatrix type="matrix" values="0 0 0 0 0 0 0 0 0 0 0 0 0 0 0 0 0 0 0.25 0"/>
<feBlend mode="normal" in2="BackgroundImageFix" result="effect1_dropShadow_175_522"/>
<feBlend mode="normal" in="SourceGraphic" in2="effect1_dropShadow_175_522" result="shape"/>
</filter>
<clipPath id="clip0_175_522">
<rect width="60" height="60" fill="white"/>
</clipPath>
</defs>
</svg>
