<svg width="40" height="40" viewBox="0 0 40 40" fill="none" xmlns="http://www.w3.org/2000/svg">
<path d="M24.216 23.8243L23.5255 25.0106C23.3174 25.368 22.9323 25.5882 22.5155 25.5882H17.2256C16.8087 25.5882 16.4237 25.368 16.2156 25.0106L15.525 23.8243H24.216ZM26.1492 20.5032L24.9316 22.5949H14.8094L13.5919 20.5032H26.1492ZM24.9763 17.2556L26.1511 19.2739H13.59L14.7648 17.2556H24.9763ZM22.5155 14.1855C22.9323 14.1855 23.3174 14.4058 23.5255 14.7632L24.2607 16.0262H15.4804L16.2156 14.7632C16.4237 14.4058 16.8087 14.1855 17.2256 14.1855H22.5155Z" fill="#00435B"/>
<path d="M9.52665 13.6351C8.94065 10.8238 8.8149 8.66758 9.19368 7.10187C9.41895 6.17067 9.83082 5.41102 10.4571 4.86294C11.1183 4.28431 11.9542 4.00038 12.8935 4.00038C14.443 4.00038 16.0719 4.69946 17.8127 6.02754C18.5227 6.56924 19.2596 7.22217 20.0249 7.9867C20.0859 7.90911 20.1547 7.83593 20.2314 7.76829C22.3951 5.86063 24.2168 4.67537 25.7749 4.21837C26.7013 3.94664 27.5711 3.92075 28.3632 4.18447C29.1993 4.46285 29.8655 5.0383 30.3355 5.84433C31.1112 7.17455 31.3157 8.92248 31.0265 11.0807C30.9087 11.9604 30.7071 12.9187 30.4224 13.957C30.5298 13.9699 30.6375 13.9934 30.7441 14.0284C33.4894 14.9284 35.4333 15.8964 36.6102 17.0025C37.3104 17.6607 37.7677 18.3934 37.933 19.2044C38.1075 20.0605 37.9373 20.9191 37.4679 21.7246C36.6936 23.0529 35.27 24.1005 33.2419 24.9303C32.4275 25.2635 31.5061 25.5652 30.4766 25.8366C30.5236 25.9416 30.56 26.053 30.5844 26.1699C31.1704 28.9812 31.2962 31.1374 30.9174 32.7031C30.6921 33.6343 30.2802 34.3939 29.654 34.942C28.9928 35.5206 28.1569 35.8046 27.2176 35.8046C25.6681 35.8046 24.0392 35.1055 22.2984 33.7774C21.5808 33.23 20.8357 32.5689 20.0617 31.7938C19.982 31.9171 19.8842 32.0316 19.7686 32.1336C17.6049 34.0413 15.7832 35.2265 14.2251 35.6835C13.2987 35.9553 12.4289 35.9812 11.6368 35.7174C10.8007 35.439 10.1345 34.8636 9.66453 34.0576C8.88883 32.7273 8.68427 30.9794 8.97347 28.8212C9.09561 27.9097 9.30755 26.9138 9.60881 25.832C9.49105 25.8202 9.37281 25.7955 9.25589 25.7572C6.51062 24.8571 4.56669 23.8892 3.38979 22.783C2.68956 22.1249 2.2323 21.3922 2.067 20.5812C1.89254 19.7251 2.06266 18.8664 2.53213 18.061C3.30638 16.7327 4.73 15.6851 6.75814 14.8553C7.59677 14.5122 8.54892 14.2024 9.61569 13.9248C9.57769 13.8327 9.54767 13.7359 9.52665 13.6351Z" fill="#002B3B"/>
<path d="M28.6692 26.4463C28.9421 26.3984 29.2037 26.5716 29.2646 26.8372L29.268 26.8529L29.2971 27.0024C30.2407 31.9104 29.576 34.3645 27.3031 34.3645C25.0792 34.3645 22.2483 32.2705 18.8104 28.0824C18.7344 27.9899 18.6934 27.874 18.6944 27.7548C18.6969 27.4771 18.9222 27.253 19.2008 27.247L19.217 27.2469L19.398 27.2481C20.8447 27.2559 22.2512 27.206 23.6173 27.0984C25.2299 26.9714 26.9139 26.754 28.6692 26.4463ZM13.0596 22.7363L13.0683 22.7508L13.1592 22.9077C13.8872 24.1599 14.6456 25.3484 15.4346 26.4731C16.3637 27.7977 17.4086 29.1387 18.5691 30.496C18.7487 30.706 18.7282 31.0177 18.5256 31.203L18.5125 31.2147L18.3957 31.3141C14.5558 34.5693 12.06 35.2192 10.9083 33.2637C9.78102 31.3495 10.1897 27.8691 12.1345 22.8223C12.1772 22.7114 12.2575 22.6186 12.3617 22.5598C12.6052 22.4223 12.9139 22.5017 13.0596 22.7363ZM30.6177 15.494L30.6334 15.4991L30.778 15.5485C35.5177 17.1797 37.3185 18.9724 36.1802 20.9265C35.067 22.8376 31.8307 24.2291 26.4713 25.1009C26.3518 25.1204 26.2292 25.0978 26.1248 25.037C25.8781 24.8936 25.7958 24.5795 25.9407 24.3355C26.7083 23.0437 27.3997 21.7583 28.0148 20.4793C28.7123 19.0288 29.367 17.4719 29.9787 15.8086C30.0714 15.5564 30.3439 15.4195 30.6019 15.4895L30.6177 15.494ZM13.8753 14.6727C14.122 14.8161 14.2043 15.1302 14.0594 15.3742C13.2918 16.6661 12.6004 17.9515 11.9853 19.2304C11.2878 20.6809 10.6331 22.2378 10.0214 23.9011C9.92678 24.1584 9.64504 24.2958 9.38238 24.2157L9.36665 24.2107L9.22212 24.1613C4.48239 22.53 2.68164 20.7374 3.81988 18.7833C4.93311 16.8721 8.16941 15.4806 13.5288 14.6088C13.6483 14.5894 13.7709 14.612 13.8753 14.6727ZM29.0918 6.63826C30.2191 8.55241 29.8104 12.0329 27.8656 17.0796C27.8229 17.1905 27.7426 17.2833 27.6384 17.3421C27.3949 17.4796 27.0862 17.4002 26.9405 17.1657L26.9318 17.1511L26.8409 16.9942C26.1129 15.7421 25.3545 14.5536 24.5655 13.4288C23.6364 12.1042 22.5915 10.7632 21.4309 9.40591C21.2514 9.19594 21.2719 8.88426 21.4745 8.69891L21.4876 8.68725L21.6044 8.58781C25.4443 5.3326 27.9401 4.68275 29.0918 6.63826ZM12.8913 5.47339C15.1151 5.47339 17.946 7.56741 21.384 11.7555C21.46 11.848 21.5009 11.9638 21.4999 12.083C21.4974 12.3607 21.2722 12.5849 20.9935 12.5909L20.9774 12.591L20.7963 12.5897C19.3496 12.582 17.9432 12.6319 16.5771 12.7395C14.9644 12.8664 13.2804 13.0838 11.5252 13.3916C11.2522 13.4394 10.9906 13.2663 10.9297 13.0007L10.9264 12.985L10.8973 12.8355C9.95369 7.92742 10.6184 5.47339 12.8913 5.47339Z" fill="#FF4154"/>
<path d="M17.6508 14.2496H22.0912C22.7405 14.2496 23.3403 14.5933 23.6636 15.1505L25.8931 18.9941C26.2138 19.547 26.2138 20.2268 25.8931 20.7797L23.6636 24.6233C23.3403 25.1806 22.7405 25.5242 22.0912 25.5242H17.6508C17.0014 25.5242 16.4016 25.1806 16.0784 24.6233L13.8488 20.7797C13.5281 20.2268 13.5281 19.547 13.8488 18.9941L16.0784 15.1505C16.4016 14.5933 17.0014 14.2496 17.6508 14.2496ZM21.4144 15.4097C22.0641 15.4097 22.6642 15.7537 22.9873 16.3114L24.542 18.9949C24.8621 19.5474 24.8621 20.2264 24.542 20.7789L22.9873 23.4624C22.6642 24.0201 22.0641 24.3641 21.4144 24.3641H18.3275C17.6778 24.3641 17.0778 24.0201 16.7547 23.4624L15.1999 20.7789C14.8798 20.2264 14.8798 19.5474 15.1999 18.9949L16.7547 16.3114C17.0778 15.7537 17.6778 15.4097 18.3275 15.4097H21.4144ZM20.685 16.6786H19.057C18.4079 16.6786 17.8084 17.0219 17.485 17.5786L16.6635 18.9933C16.3421 19.5466 16.3421 20.2272 16.6635 20.7805L17.485 22.1952C17.8084 22.752 18.4079 23.0953 19.057 23.0953H20.685C21.334 23.0953 21.9336 22.752 22.2569 22.1952L23.0785 20.7805C23.3998 20.2272 23.3998 19.5466 23.0785 18.9933L22.2569 17.5786C21.9336 17.0219 21.334 16.6786 20.685 16.6786ZM19.9826 17.893C20.6312 17.893 21.2303 18.2358 21.5539 18.7919L21.6703 18.9922C21.9926 19.5461 21.9926 20.2278 21.6703 20.7817L21.5539 20.9819C21.2303 21.538 20.6312 21.8808 19.9826 21.8808H19.7593C19.1108 21.8808 18.5116 21.538 18.1881 20.9819L18.0716 20.7817C17.7494 20.2278 17.7494 19.5461 18.0716 18.9922L18.1881 18.7919C18.5116 18.2358 19.1108 17.893 19.7593 17.893H19.9826ZM19.8713 19.0894C19.5826 19.0894 19.3164 19.2414 19.1723 19.4881C19.0282 19.7349 19.0282 20.039 19.1723 20.2857C19.3164 20.5325 19.5826 20.6845 19.8707 20.6845C20.1593 20.6845 20.4256 20.5325 20.5697 20.2857C20.7138 20.039 20.7138 19.7349 20.5697 19.4881C20.4256 19.2414 20.1593 19.0894 19.8713 19.0894ZM13.3309 19.8869H14.7823Z" fill="#FFD94C"/>
</svg>
