<svg width="44" height="44" viewBox="0 0 44 44" fill="none" xmlns="http://www.w3.org/2000/svg">
<g clip-path="url(#clip0_175_487)">
<path d="M20.6261 1.03284C20.5359 1.04104 20.2488 1.06975 19.9905 1.09025C14.0315 1.62751 8.44979 4.84282 4.91459 9.78472C2.94603 12.5325 1.68697 15.6494 1.21124 18.9508C1.04309 20.1032 1.02258 20.4436 1.02258 22.0062C1.02258 23.5687 1.04309 23.9091 1.21124 25.0615C2.35136 32.9399 7.95765 39.5592 15.5612 42.0116C16.9228 42.4505 18.3582 42.7499 19.9905 42.9303C20.6261 43 23.3739 43 24.0096 42.9303C26.8271 42.6186 29.214 41.9214 31.568 40.7198C31.9289 40.5352 31.9987 40.486 31.9494 40.445C31.9166 40.4204 30.3787 38.3575 28.5332 35.864L25.1784 31.3322L20.9747 25.1108C18.6617 21.6904 16.7587 18.8934 16.7423 18.8934C16.7259 18.8893 16.7095 21.6535 16.7013 25.0287C16.689 30.9385 16.6849 31.1764 16.6111 31.3158C16.5045 31.5168 16.4224 31.5988 16.2502 31.689C16.119 31.7546 16.0041 31.7669 15.3849 31.7669H14.6753L14.4867 31.648C14.3637 31.5701 14.2734 31.4676 14.2119 31.3486L14.1258 31.1641L14.134 22.9412L14.1463 14.7143L14.2734 14.5544C14.3391 14.4682 14.4785 14.3575 14.5769 14.3042C14.7451 14.2222 14.8107 14.214 15.5202 14.214C16.3568 14.214 16.4963 14.2468 16.7136 14.4846C16.7751 14.5503 19.0513 17.9788 21.7745 22.1087C24.4976 26.2386 28.2215 31.8777 30.0506 34.646L33.3725 39.6781L33.5407 39.5674C35.0294 38.5995 36.6043 37.2215 37.851 35.7861C40.5045 32.7389 42.2147 29.0233 42.7888 25.0615C42.957 23.9091 42.9775 23.5687 42.9775 22.0062C42.9775 20.4436 42.957 20.1032 42.7888 18.9508C41.6487 11.0725 36.0424 4.45321 28.4388 2.00071C27.0978 1.56599 25.6706 1.2666 24.0711 1.08615C23.6774 1.04514 20.9665 1.00003 20.6261 1.03284ZM29.214 13.7218C29.4108 13.8203 29.5708 14.0089 29.6282 14.2058C29.661 14.3124 29.6692 16.5926 29.661 21.7314L29.6487 29.1053L28.3486 27.1121L27.0445 25.119V19.7587C27.0445 16.2933 27.0609 14.3452 27.0855 14.2509C27.1511 14.0212 27.2946 13.8408 27.4915 13.7341C27.6596 13.648 27.7211 13.6398 28.365 13.6398C28.972 13.6398 29.0786 13.648 29.214 13.7218Z" fill="black"/>
<path d="M33.1675 39.7683C33.0239 39.8585 32.9788 39.92 33.1059 39.8503C33.1962 39.797 33.3438 39.6862 33.3192 39.6821C33.3069 39.6821 33.2372 39.7231 33.1675 39.7683ZM32.8845 39.9528C32.8107 40.0102 32.8107 40.0143 32.9009 39.9692C32.9501 39.9446 32.9911 39.9159 32.9911 39.9077C32.9911 39.8749 32.9706 39.8831 32.8845 39.9528ZM32.6794 40.0758C32.6056 40.1333 32.6056 40.1374 32.6958 40.0922C32.745 40.0676 32.786 40.0389 32.786 40.0307C32.786 39.9979 32.7655 40.0061 32.6794 40.0758ZM32.4744 40.1989C32.4005 40.2563 32.4005 40.2604 32.4908 40.2153C32.54 40.1907 32.581 40.162 32.581 40.1538C32.581 40.121 32.5605 40.1292 32.4744 40.1989ZM32.1627 40.3629C32.0068 40.4449 32.015 40.4778 32.1709 40.3998C32.2406 40.3629 32.2939 40.326 32.2939 40.3178C32.2939 40.2891 32.2898 40.2932 32.1627 40.3629Z" fill="black"/>
</g>
<defs>
<clipPath id="clip0_175_487">
<rect width="42" height="42" fill="white" transform="translate(1 1)"/>
</clipPath>
</defs>
</svg>
