<svg width="80" height="80" viewBox="0 0 80 80" fill="none" xmlns="http://www.w3.org/2000/svg">
<path d="M17.7795 8.08203V50.685L11.5044 62.4079H55.1415C58.6068 62.4079 61.4127 59.5981 61.4127 56.1328V8.08203H17.7795Z" fill="#C8C2E9"/>
<path d="M57.2644 8.08203V52.1796C57.2644 53.8439 56.6033 55.44 55.4264 56.6168C54.2496 57.7936 52.6535 58.4547 50.9893 58.4547H13.6195L11.5044 62.4079H55.1415C58.6068 62.4079 61.4127 59.5981 61.4127 56.1328V8.08203H57.2644Z" fill="#B9B1E0"/>
<path d="M5.22926 50.6851H17.7795V56.129C17.7795 57.7932 17.1184 59.3893 15.9416 60.5661C14.7648 61.743 13.1686 62.4041 11.5044 62.4041C9.84079 62.4041 8.24528 61.7435 7.06858 60.5675C5.89188 59.3915 5.2303 57.7965 5.22926 56.1329V50.6851Z" fill="#8A87B2"/>
<path d="M13.5454 62.0685C14.7811 61.6428 15.8532 60.8422 16.6122 59.7782C17.3712 58.7142 17.7793 57.4398 17.7795 56.1329V50.6851H9.30731V56.1329C9.30782 57.4403 9.71646 58.715 10.4762 59.7791C11.2359 60.8431 12.3089 61.6435 13.5454 62.0685Z" fill="#7C79AB"/>
<path d="M53.3541 18.2206H25.4127C25.2057 18.2206 25.0072 18.1384 24.8608 17.992C24.7144 17.8457 24.6322 17.6472 24.6322 17.4402C24.6322 17.2332 24.7144 17.0346 24.8608 16.8883C25.0072 16.7419 25.2057 16.6597 25.4127 16.6597H53.3541C53.5611 16.6597 53.7597 16.7419 53.906 16.8883C54.0524 17.0346 54.1346 17.2332 54.1346 17.4402C54.1346 17.6472 54.0524 17.8457 53.906 17.992C53.7597 18.1384 53.5611 18.2206 53.3541 18.2206Z" fill="#4D4C78"/>
<path d="M48.3629 25.725H25.4127C25.2057 25.725 25.0072 25.6428 24.8608 25.4964C24.7144 25.3501 24.6322 25.1515 24.6322 24.9446C24.6322 24.7376 24.7144 24.539 24.8608 24.3927C25.0072 24.2463 25.2057 24.1641 25.4127 24.1641H48.3629C48.5699 24.1641 48.7684 24.2463 48.9148 24.3927C49.0612 24.539 49.1434 24.7376 49.1434 24.9446C49.1434 25.1515 49.0612 25.3501 48.9148 25.4964C48.7684 25.6428 48.5699 25.725 48.3629 25.725Z" fill="#4D4C78"/>
<path d="M44.9873 33.2255H25.4127C25.2057 33.2255 25.0072 33.1433 24.8608 32.9969C24.7144 32.8506 24.6322 32.652 24.6322 32.445C24.6322 32.238 24.7144 32.0395 24.8608 31.8931C25.0072 31.7468 25.2057 31.6646 25.4127 31.6646H44.9873C45.1943 31.6646 45.3928 31.7468 45.5392 31.8931C45.6856 32.0395 45.7678 32.238 45.7678 32.445C45.7678 32.652 45.6856 32.8506 45.5392 32.9969C45.3928 33.1433 45.1943 33.2255 44.9873 33.2255Z" fill="#4D4C78"/>
<path d="M48.3629 40.7299H25.4127C25.2057 40.7299 25.0072 40.6477 24.8608 40.5013C24.7144 40.355 24.6322 40.1564 24.6322 39.9494C24.6322 39.7424 24.7144 39.5439 24.8608 39.3975C25.0072 39.2512 25.2057 39.1689 25.4127 39.1689H48.3629C48.5699 39.1689 48.7684 39.2512 48.9148 39.3975C49.0612 39.5439 49.1434 39.7424 49.1434 39.9494C49.1434 40.1564 49.0612 40.355 48.9148 40.5013C48.7684 40.6477 48.5699 40.7299 48.3629 40.7299Z" fill="#4D4C78"/>
<path d="M44.9873 48.2304H25.4127C25.2057 48.2304 25.0072 48.1482 24.8608 48.0018C24.7144 47.8554 24.6322 47.6569 24.6322 47.4499C24.6322 47.2429 24.7144 47.0444 24.8608 46.898C25.0072 46.7517 25.2057 46.6694 25.4127 46.6694H44.9873C45.1943 46.6694 45.3928 46.7517 45.5392 46.898C45.6856 47.0444 45.7678 47.2429 45.7678 47.4499C45.7678 47.6569 45.6856 47.8554 45.5392 48.0018C45.3928 48.1482 45.1943 48.2304 44.9873 48.2304Z" fill="#4D4C78"/>
<path d="M61.4127 56.1328V41.7914C61.3071 41.836 61.1952 41.8637 61.081 41.8733C60.8468 41.8733 60.2615 41.5963 59.8751 41.4128C59.1142 41.0538 58.2517 40.648 57.2878 40.648C56.9595 40.6471 56.633 40.6971 56.32 40.7963C54.9424 41.245 54.279 42.4665 53.7444 43.446C53.561 43.7816 53.2566 44.3436 53.0966 44.4645C52.9366 44.5855 52.2888 44.7065 51.9063 44.7806C50.8137 44.9836 49.4556 45.2411 48.6166 46.3963C47.7776 47.5514 47.9532 48.9094 48.0937 50.006C48.1444 50.4197 48.2263 51.0519 48.16 51.2548C48.0937 51.4577 47.6644 51.8909 47.4107 52.1602C46.6341 52.9758 45.6741 53.9904 45.6741 55.4538C45.6741 56.9172 46.6341 57.9319 47.4107 58.7514C47.6644 59.0206 48.0937 59.4694 48.16 59.6528C48.2263 59.8363 48.1444 60.488 48.0937 60.9055C48.0429 61.3231 47.9688 61.8811 47.9766 62.408H55.1415C58.6068 62.408 61.4127 59.5982 61.4127 56.1328Z" fill="#B9B1E0"/>
<path d="M74.7707 55.4537C74.7707 56.8312 72.7727 57.8771 72.3668 59.122C71.961 60.3668 72.9366 62.4312 72.1561 63.5044C71.3756 64.5776 69.1395 64.2654 68.0546 65.0537C66.9698 65.842 66.599 68.0585 65.3112 68.48C64.0234 68.9015 62.4585 67.321 61.081 67.321C59.7034 67.321 58.0917 68.882 56.8468 68.48C55.6019 68.0781 55.1805 65.8381 54.1073 65.0537C53.0341 64.2693 50.7941 64.5854 50.002 63.5044C49.2098 62.4234 50.2088 60.4137 49.7912 59.122C49.3737 57.8303 47.3912 56.8312 47.3912 55.4537C47.3912 54.0761 49.3893 53.0303 49.7912 51.7854C50.1932 50.5405 49.2215 48.48 50.002 47.4068C50.7824 46.3337 53.0224 46.642 54.1073 45.8537C55.1922 45.0654 55.559 42.8488 56.8468 42.4312C58.1346 42.0137 59.7034 43.5903 61.081 43.5903C62.4585 43.5903 64.0663 42.0254 65.3112 42.4312C66.5561 42.8371 66.9815 45.0732 68.0546 45.8537C69.1278 46.6342 71.3678 46.322 72.1561 47.4068C72.9444 48.4917 71.9493 50.4976 72.3668 51.7854C72.7844 53.0732 74.7707 54.0761 74.7707 55.4537Z" fill="#F4C23F"/>
<path d="M60.761 65.2642C58.5372 65.2651 56.3925 64.4398 54.743 62.9484C53.0935 61.4571 52.0569 59.406 51.8345 57.1934C51.6121 54.9809 52.2196 52.7645 53.5393 50.9747C54.8589 49.1848 56.7965 47.9491 58.9759 47.5074C61.1553 47.0656 63.4211 47.4494 65.3336 48.5841C67.246 49.7189 68.6686 51.5237 69.3252 53.6483C69.9819 55.7729 69.8258 58.0656 68.8872 60.0816C67.9486 62.0975 66.2944 63.6929 64.2459 64.5579C63.1438 65.0261 61.9584 65.2664 60.761 65.2642Z" fill="#F4A93F"/>
<path d="M66.439 58.2557C66.3986 58.1665 66.341 58.0862 66.2694 58.0193C66.1979 57.9523 66.1139 57.9002 66.0222 57.8657C65.9305 57.8313 65.8329 57.8153 65.735 57.8186C65.6372 57.8219 65.5409 57.8445 65.4517 57.885L59.9532 60.3552C59.8768 60.3901 59.8069 60.4376 59.7463 60.4957C59.6879 60.4368 59.6191 60.3892 59.5434 60.3552L54.0449 57.885C53.9558 57.8439 53.8595 57.821 53.7614 57.8174C53.6634 57.8138 53.5656 57.8297 53.4738 57.8642C53.382 57.8987 53.2979 57.9511 53.2265 58.0183C53.155 58.0855 53.0976 58.1662 53.0576 58.2557L50.5054 63.9377C51.5005 64.5113 53.202 64.3982 54.1073 65.0538C55.1454 65.8109 55.5356 67.9182 56.7259 68.4333L59.7463 61.7133L62.4273 67.6723C63.4342 68.1094 64.4566 68.7572 65.3112 68.4801C66.599 68.0587 66.9815 65.8382 68.0546 65.0538C68.3824 64.8157 68.8156 64.6791 69.28 64.5738L66.439 58.2557Z" fill="#F4A93F"/>
<path d="M55.36 71.5396L54.0605 69.2333C53.982 69.0958 53.8617 68.9869 53.7172 68.9224C53.5727 68.8578 53.4113 68.841 53.2566 68.8743L50.6654 69.4284C50.0722 69.5572 49.5805 68.9523 49.8302 68.3943L54.3922 58.2557C54.4323 58.1667 54.4895 58.0864 54.5607 58.0195C54.6318 57.9526 54.7155 57.9005 54.8069 57.866C54.8983 57.8316 54.9955 57.8155 55.0931 57.8188C55.1907 57.822 55.2867 57.8445 55.3756 57.885L60.8741 60.3552C61.054 60.4362 61.1944 60.5852 61.2647 60.7695C61.3349 60.9539 61.3292 61.1585 61.2488 61.3386L56.6868 71.4772C56.6303 71.6025 56.5401 71.7097 56.4264 71.7869C56.3127 71.8642 56.1799 71.9085 56.0426 71.915C55.9052 71.9214 55.7688 71.8898 55.6483 71.8235C55.5279 71.7573 55.4281 71.659 55.36 71.5396Z" fill="#DE3226"/>
<path d="M55.9805 60.1169C56.0659 59.9335 56.1142 59.7351 56.1228 59.5329C56.1313 59.3308 56.0999 59.129 56.0303 58.939C55.9607 58.749 55.8543 58.5747 55.7172 58.4259C55.58 58.2771 55.4149 58.1569 55.2312 58.0721L54.7941 57.8691C54.6145 57.94 54.4701 58.0788 54.3922 58.2555L49.8302 68.394C49.5805 68.9521 50.0722 69.5569 50.6654 69.4282L51.7893 69.1862L55.9805 60.1169Z" fill="#B11A31"/>
<path d="M66.798 71.5396L68.1015 69.2333C68.1795 69.0954 68.2997 68.9861 68.4444 68.9215C68.589 68.8569 68.7506 68.8404 68.9054 68.8743L71.4927 69.4284C71.6273 69.457 71.7673 69.4478 71.897 69.4018C72.0267 69.3558 72.1412 69.2747 72.2276 69.1676C72.3141 69.0605 72.3692 68.9316 72.3869 68.7951C72.4046 68.6586 72.3841 68.5198 72.3278 68.3943L67.7698 58.2557C67.7297 58.1667 67.6725 58.0864 67.6013 58.0195C67.5301 57.9526 67.4465 57.9005 67.3551 57.866C67.2637 57.8316 67.1664 57.8155 67.0688 57.8188C66.9712 57.822 66.8752 57.8445 66.7863 57.885L61.2878 60.3552C61.1079 60.4362 60.9675 60.5852 60.8973 60.7695C60.8271 60.9539 60.8328 61.1585 60.9132 61.3386L65.4712 71.4772C65.5278 71.6025 65.6179 71.7097 65.7316 71.7869C65.8453 71.8642 65.9782 71.9085 66.1155 71.915C66.2528 71.9214 66.3893 71.8898 66.5097 71.8235C66.6302 71.7573 66.73 71.659 66.798 71.5396Z" fill="#DE3226"/>
<path d="M62.7161 60.8936L61.0459 61.635L65.4712 71.477C65.5278 71.6023 65.6179 71.7095 65.7316 71.7867C65.8453 71.864 65.9782 71.9083 66.1155 71.9148C66.2528 71.9212 66.3892 71.8896 66.5097 71.8233C66.6302 71.7571 66.73 71.6588 66.798 71.5394L67.1688 70.8838L62.7161 60.8936Z" fill="#B11A31"/>
<path d="M60.8741 60.3552L55.3756 57.885C55.2867 57.8445 55.1907 57.822 55.0931 57.8188C54.9955 57.8155 54.8982 57.8316 54.8069 57.866C54.7155 57.9005 54.6318 57.9526 54.5607 58.0195C54.4895 58.0864 54.4322 58.1667 54.3922 58.2557L53.1473 61.0225C54.1219 62.6022 55.5653 63.8383 57.2761 64.5582C57.993 64.8643 58.7477 65.073 59.52 65.1786L61.2488 61.3386C61.3292 61.1585 61.3349 60.9539 61.2647 60.7695C61.1944 60.5852 61.054 60.4362 60.8741 60.3552Z" fill="#B11A31"/>
<path d="M68.7298 60.3943L67.7698 58.2557C67.7297 58.1667 67.6725 58.0864 67.6013 58.0195C67.5301 57.9526 67.4465 57.9005 67.3551 57.866C67.2637 57.8316 67.1664 57.8155 67.0688 57.8188C66.9712 57.822 66.8752 57.8445 66.7863 57.885L61.2878 60.3552C61.1079 60.4362 60.9675 60.5852 60.8973 60.7695C60.8271 60.9539 60.8328 61.1585 60.9132 61.3386L62.5912 65.0772C64.2963 64.7182 65.8607 63.8723 67.0946 62.6421C67.7535 61.9826 68.3052 61.2242 68.7298 60.3943Z" fill="#B11A31"/>
<path d="M61.081 63.6174C65.7105 63.6174 69.4634 59.8645 69.4634 55.235C69.4634 50.6055 65.7105 46.8525 61.081 46.8525C56.4515 46.8525 52.6985 50.6055 52.6985 55.235C52.6985 59.8645 56.4515 63.6174 61.081 63.6174Z" fill="#F8881B"/>
<path d="M61.081 62.6418C65.1717 62.6418 68.4878 59.3256 68.4878 55.235C68.4878 51.1443 65.1717 47.8281 61.081 47.8281C56.9903 47.8281 53.6741 51.1443 53.6741 55.235C53.6741 59.3256 56.9903 62.6418 61.081 62.6418Z" fill="#F08000"/>
<path d="M61.081 61.807C64.7104 61.807 67.6527 58.8647 67.6527 55.2353C67.6527 51.6058 64.7104 48.6636 61.081 48.6636C57.4515 48.6636 54.5093 51.6058 54.5093 55.2353C54.5093 58.8647 57.4515 61.807 61.081 61.807Z" fill="#F4C23F"/>
<path d="M66.9307 45.5495C67.1158 45.4417 67.2765 45.2969 67.4029 45.1241C66.759 44.1446 66.3024 42.7514 65.3112 42.4314C64.9717 42.3221 64.601 42.3573 64.2185 42.4704C64.1024 42.6945 64.0444 42.9441 64.0498 43.1964C64.0553 43.4487 64.124 43.6955 64.2498 43.9143L64.878 44.9953C64.9763 45.1666 65.1074 45.3168 65.2638 45.4373C65.4202 45.5579 65.5989 45.6464 65.7895 45.6979C65.9802 45.7494 66.1791 45.7628 66.3749 45.7373C66.5707 45.7118 66.7596 45.648 66.9307 45.5495Z" fill="#FAD564"/>
<path d="M61.1122 44.0818C61.2141 43.9272 61.2868 43.7553 61.3268 43.5745C61.2449 43.5823 61.1629 43.5901 61.081 43.5901C59.8712 43.5901 58.482 42.3843 57.319 42.3647C57.279 42.6471 57.3201 42.935 57.4375 43.1948C57.555 43.4546 57.744 43.6757 57.9824 43.8321L59.0322 44.5189C59.1974 44.6268 59.3824 44.7011 59.5763 44.7376C59.7703 44.774 59.9696 44.7719 60.1628 44.7313C60.3559 44.6907 60.5392 44.6125 60.7021 44.501C60.865 44.3896 61.0044 44.2471 61.1122 44.0818Z" fill="#FAD564"/>
<path d="M72.3668 51.7853C71.9493 50.4975 72.9366 48.4799 72.1561 47.4067C71.6644 46.7277 70.6068 46.5989 69.6234 46.4077C69.3554 46.8517 69.239 47.3708 69.2917 47.8867L69.4829 49.9043C69.5452 50.5483 69.8604 51.1413 70.3593 51.5532C70.8583 51.9651 71.5003 52.1623 72.1444 52.1014C72.2559 52.0892 72.3666 52.0709 72.4761 52.0467C72.434 51.962 72.3975 51.8747 72.3668 51.7853Z" fill="#FAD564"/>
<path d="M58.0092 65.8173L58.0057 65.8156C57.4481 65.558 56.7872 65.8011 56.5295 66.3587L55.6823 68.1924C55.4246 68.75 55.6678 69.4109 56.2254 69.6685L56.2289 69.6701C56.7865 69.9278 57.4474 69.6846 57.7051 69.127L58.5523 67.2934C58.81 66.7358 58.5668 66.0749 58.0092 65.8173Z" fill="#F44533"/>
<path d="M68.6926 63.0055L68.689 63.0071C68.1279 63.2569 67.8755 63.9144 68.1254 64.4755L68.9469 66.3208C69.1968 66.8819 69.8542 67.1343 70.4153 66.8845L70.4189 66.8829C70.98 66.633 71.2324 65.9756 70.9826 65.4145L70.161 63.5692C69.9112 63.008 69.2537 62.7557 68.6926 63.0055Z" fill="#F44533"/>
</svg>
