<svg width="40" height="40" viewBox="0 0 40 40" fill="none" xmlns="http://www.w3.org/2000/svg">
<path d="M19.4724 1.01665C19.3976 1.01997 19.1156 1.04322 18.8437 1.06315C15.4454 1.30893 11.9995 2.53784 9.17551 4.51075C8.24098 5.16174 7.50355 5.77287 6.68116 6.57665C1.95411 11.2 0.00688593 17.8162 1.48515 24.2431C2.09005 26.8803 3.3814 29.5341 5.09415 31.6664C7.78221 35.0177 11.466 37.3792 15.5983 38.4022C17.2805 38.8207 18.6772 38.9901 20.4409 38.9901C22.1808 38.9901 23.462 38.8373 25.1204 38.442C27.5026 37.8708 29.5959 36.9308 31.6893 35.4993C33.6943 34.1242 35.5599 32.1978 36.8989 30.122C38.6252 27.4383 39.6073 24.4756 39.8486 21.224C39.8996 20.5398 39.869 18.8459 39.7942 18.1484C39.6447 16.7633 39.2641 14.9366 39.0432 14.5546C38.9549 14.4052 38.7068 14.2125 38.5233 14.1494C38.4587 14.1295 38.316 14.1129 38.2004 14.1129C37.6907 14.1129 37.2625 14.5281 37.2625 15.0163C37.2625 15.1325 37.3169 15.4115 37.395 15.7138C38.0679 18.2713 38.1223 21.0811 37.548 23.6453C36.8139 26.9301 35.1759 29.8264 32.7054 32.2012C31.5533 33.3072 30.4421 34.1242 29.0046 34.928C25.6505 36.8046 21.4808 37.5154 17.5693 36.8777C14.5992 36.3961 12.0199 35.2801 9.56971 33.4168C8.41769 32.5399 7.01419 31.0951 6.14422 29.8861C4.64217 27.8003 3.69744 25.6016 3.20809 23.0474C2.96001 21.7454 2.87505 20.0183 2.9906 18.6134C3.16731 16.481 3.71444 14.5015 4.64217 12.6249C5.07036 11.7514 5.33543 11.2963 5.84857 10.5424C6.89525 8.99462 8.28176 7.54649 9.81439 6.39729C11.6121 5.04549 13.7462 4.01918 15.9042 3.46783C17.0698 3.1689 18.0009 3.01944 19.1835 2.93641C23.462 2.63748 27.6215 3.83983 31.0096 6.36076C31.2611 6.54676 31.5262 6.74936 31.5975 6.81247L31.7267 6.92207L31.6757 7.06157C31.414 7.77899 31.6077 8.67244 32.1582 9.29686C32.4403 9.61572 32.95 9.91464 33.3816 10.0143C33.6773 10.084 34.1904 10.084 34.4895 10.0143C35.2473 9.83825 35.9541 9.20387 36.1784 8.49973C36.4299 7.71256 36.2838 6.93536 35.7672 6.30429C35.1963 5.6068 34.2142 5.29459 33.3069 5.52709L33.1098 5.57691L32.8311 5.35106C31.6995 4.42439 30.33 3.56747 28.8891 2.88659C26.551 1.78056 24.2028 1.18604 21.5283 1.02661C21.0152 0.996717 19.802 0.990075 19.4724 1.01665Z" fill="black"/>
<path d="M17.1476 12.6507C16.7874 13.5608 16.0058 15.5536 15.4043 17.0781C14.8028 18.6027 13.5692 21.7347 12.6619 24.0364C11.7579 26.3382 11.0069 28.2314 11.0001 28.2446C10.9899 28.2613 11.9448 28.2712 13.1172 28.2712H15.2548L15.3805 27.9291C15.4519 27.7431 15.7033 27.0855 15.9378 26.4677L16.366 25.3484H19.574C22.1295 25.3484 22.782 25.3384 22.7718 25.3052C22.7378 25.2155 22.2145 23.7541 21.9358 22.9736L21.6368 22.1433L19.5128 22.1266L17.3923 22.11L18.772 18.3934C19.6012 16.1614 20.1619 14.7 20.1721 14.7332C20.1857 14.7631 20.7362 16.2943 21.3989 18.1343C22.0616 19.9744 23.1558 23.0035 23.8287 24.8668L25.0487 28.2546L27.176 28.2646C28.345 28.2679 29.3033 28.2646 29.3033 28.2579C29.3033 28.2513 29.0281 27.5438 28.6883 26.6902C28.3484 25.8333 27.6212 23.9899 27.0707 22.5916C26.5201 21.1933 25.9016 19.6256 25.6943 19.1042C25.4904 18.5827 25.1336 17.6793 24.9025 17.0947C24.6715 16.5102 24.07 14.979 23.5602 13.6903C23.0505 12.4016 22.6053 11.269 22.5679 11.1727L22.5033 11H17.7967L17.1476 12.6507Z" fill="black"/>
</svg>
