<svg width="36" height="36" viewBox="0 0 36 36" fill="none" xmlns="http://www.w3.org/2000/svg">
<path d="M21.843 13.6687L15.039 14.5215L14.796 15.651L16.1347 15.894C17.0055 16.1033 17.1787 16.416 16.9897 17.2867L14.796 27.585C14.2222 30.2467 15.111 31.5 17.1967 31.5C18.8167 31.5 20.6932 30.753 21.546 29.7248L21.807 28.4895C21.2152 29.0115 20.3445 29.2208 19.7707 29.2208C18.954 29.2208 18.6592 28.647 18.8662 27.6367L21.843 13.6687ZM22.0477 7.47C22.0477 8.25769 21.7348 9.01312 21.1779 9.57011C20.6209 10.1271 19.8654 10.44 19.0777 10.44C18.2901 10.44 17.5346 10.1271 16.9776 9.57011C16.4207 9.01312 16.1077 8.25769 16.1077 7.47C16.1077 6.68231 16.4207 5.92688 16.9776 5.36989C17.5346 4.81291 18.2901 4.5 19.0777 4.5C19.8654 4.5 20.6209 4.81291 21.1779 5.36989C21.7348 5.92688 22.0477 6.68231 22.0477 7.47Z" fill="#102762"/>
</svg>
