<svg width="40" height="40" viewBox="0 0 40 40" fill="none" xmlns="http://www.w3.org/2000/svg">
<g clip-path="url(#clip0_209_734)">
<path d="M18.2578 0.710232L0.707645 18.246C-0.235882 19.1887 -0.235882 20.7114 0.707645 21.6542L18.2578 39.1899C19.2014 40.1327 20.7253 40.1327 21.6688 39.1899L29.0274 31.8374C29.8724 30.9931 29.8724 29.6243 29.0274 28.78C28.1824 27.9357 26.8124 27.9357 25.9674 28.78L20.3889 34.3538C20.1541 34.5885 19.7977 34.5885 19.5628 34.3538L5.54774 20.3503C5.3129 20.1156 5.3129 19.7595 5.54774 19.5248L19.5628 5.5213C19.7977 5.28665 20.1541 5.28665 20.3889 5.5213L25.9674 11.0952C26.8124 11.9395 28.1824 11.9395 29.0274 11.0952C29.8724 10.2509 29.8724 8.88197 29.0274 8.03767L21.6696 0.685981C20.7222 -0.236368 19.1977 -0.228901 18.2578 0.710232Z" fill="url(#paint0_linear_209_734)"/>
<path d="M18.2578 0.710232L0.707645 18.246C-0.235882 19.1887 -0.235882 20.7114 0.707645 21.6542L18.2578 39.1899C19.2014 40.1327 20.7253 40.1327 21.6688 39.1899L29.0274 31.8374C29.8724 30.9931 29.8724 29.6243 29.0274 28.78C28.1824 27.9357 26.8124 27.9357 25.9674 28.78L20.3889 34.3538C20.1541 34.5885 19.7977 34.5885 19.5628 34.3538L5.54774 20.3503C5.3129 20.1156 5.3129 19.7595 5.54774 19.5248L19.5628 5.5213C20.1476 5.01719 21.1016 3.99613 22.5027 3.75732C23.544 3.57984 24.6823 3.97047 25.9178 4.9292C25.0918 4.10387 23.6758 2.68946 21.6696 0.685981C20.7222 -0.236368 19.1977 -0.228901 18.2578 0.710232Z" fill="url(#paint1_linear_209_734)"/>
<path d="M30.7261 27.1491C31.5711 27.9934 32.9411 27.9934 33.7861 27.1491L39.2142 21.7256C40.1577 20.7828 40.1577 19.2601 39.2143 18.3175L33.7389 12.8661C32.8919 12.0228 31.5215 12.024 30.676 12.8688C29.831 13.7131 29.831 15.082 30.676 15.9263L34.3741 19.6213C34.6089 19.8559 34.6089 20.2121 34.3741 20.4467L30.7261 24.0917C29.8811 24.936 29.8811 26.3048 30.7261 27.1491Z" fill="url(#paint2_linear_209_734)"/>
<path d="M20.051 24.7724C22.6681 24.7724 24.7896 22.6526 24.7896 20.0378C24.7896 17.4229 22.6681 15.3031 20.051 15.3031C17.434 15.3031 15.3125 17.4229 15.3125 20.0378C15.3125 22.6526 17.434 24.7724 20.051 24.7724Z" fill="url(#paint3_linear_209_734)"/>
</g>
<defs>
<linearGradient id="paint0_linear_209_734" x1="4715.58" y1="0.000273118" x2="8985.09" y2="2607.32" gradientUnits="userSpaceOnUse">
<stop stop-color="#4285EB"/>
<stop offset="1" stop-color="#2EC7FF"/>
</linearGradient>
<linearGradient id="paint1_linear_209_734" x1="5288.25" y1="1.12145e-05" x2="3179.51" y2="10898.6" gradientUnits="userSpaceOnUse">
<stop stop-color="#29CDFF"/>
<stop offset="0.378601" stop-color="#148EFF"/>
<stop offset="1" stop-color="#0A60FF"/>
</linearGradient>
<linearGradient id="paint2_linear_209_734" x1="1792.64" y1="-504.182" x2="-951.16" y2="3786.9" gradientUnits="userSpaceOnUse">
<stop stop-color="#FA816E"/>
<stop offset="0.414726" stop-color="#F74A5C"/>
<stop offset="1" stop-color="#F51D2C"/>
</linearGradient>
<linearGradient id="paint3_linear_209_734" x1="1668.19" y1="-849.887" x2="755.245" y2="2802.03" gradientUnits="userSpaceOnUse">
<stop stop-color="#FA8E7D"/>
<stop offset="0.512635" stop-color="#F74A5C"/>
<stop offset="1" stop-color="#F51D2C"/>
</linearGradient>
<clipPath id="clip0_209_734">
<rect width="40" height="40" fill="white"/>
</clipPath>
</defs>
</svg>
